<?xml version="1.0" standalone="no"?><!DOCTYPE svg PUBLIC "-//W3C//DTD SVG 1.1//EN" "http://www.w3.org/Graphics/SVG/1.1/DTD/svg11.dtd"><svg t="1769735153855" class="icon" viewBox="0 0 1024 1024" version="1.1" xmlns="http://www.w3.org/2000/svg" p-id="6160" xmlns:xlink="http://www.w3.org/1999/xlink" width="200" height="200"><path d="M511.43 427.57m-281.57 0a281.57 281.57 0 1 0 563.14 0 281.57 281.57 0 1 0-563.14 0Z" fill="#FFA227" p-id="6161"></path><path d="M527.91 280.53l33.65 68.18a18.32 18.32 0 0 0 13.83 10.05l75.25 10.94a18.37 18.37 0 0 1 10.18 31.3l-54.44 53.08a18.35 18.35 0 0 0-5.29 16.26l12.85 74.94a18.38 18.38 0 0 1-26.66 19.38L520 529.31a18.4 18.4 0 0 0-17.1 0l-67.3 35.39a18.38 18.38 0 0 1-26.67-19.38l12.85-74.94a18.34 18.34 0 0 0-5.28-16.26L362 401a18.37 18.37 0 0 1 10.19-31.34l75.24-10.94a18.34 18.34 0 0 0 13.84-10.05L495 280.53a18.38 18.38 0 0 1 32.91 0z" fill="#FFFFFF" p-id="6162"></path><path d="M859.61 710.72L808 637a17 17 0 0 0-27.4-0.6 344 344 0 0 1-28.25 32 340.32 340.32 0 0 1-142.25 85.27 17 17 0 0 0-9.07 26l52.65 75.18a23.08 23.08 0 0 0 38.56-1.12l43.23-70.12a45 45 0 0 1 29.19-20.45l80.68-16.63a23.09 23.09 0 0 0 14.27-35.81zM379 741.39a339.47 339.47 0 0 1-108.24-73 344.75 344.75 0 0 1-28.39-32.16 17 17 0 0 0-27.4 0.59l-51.72 73.86a23.09 23.09 0 0 0 14.25 35.86l80.68 16.63a45 45 0 0 1 29.19 20.45l43.23 70.12a23.08 23.08 0 0 0 38.56 1.12l52.69-75.25a17 17 0 0 0-9.06-26A338.56 338.56 0 0 1 379 741.39z" fill="#FFBE69" p-id="6163"></path></svg>