<?xml version="1.0" standalone="no"?><!DOCTYPE svg PUBLIC "-//W3C//DTD SVG 1.1//EN" "http://www.w3.org/Graphics/SVG/1.1/DTD/svg11.dtd"><svg t="1767337519747" class="icon" viewBox="0 0 1024 1024" version="1.1" xmlns="http://www.w3.org/2000/svg" p-id="71788" xmlns:xlink="http://www.w3.org/1999/xlink" width="16" height="16"><path d="M646.736842 242.526316h323.368421a53.894737 53.894737 0 0 1 53.894737 53.894737v646.736842a53.894737 53.894737 0 0 1-53.894737 53.894737H431.157895a53.894737 53.894737 0 0 1-53.894737-53.894737v-161.684211H53.894737a53.894737 53.894737 0 0 1-53.894737-53.894737V80.842105a53.894737 53.894737 0 0 1 53.894737-53.894737h538.947368a53.894737 53.894737 0 0 1 53.894737 53.894737v161.684211z m-215.578947 538.947368v161.684211h538.947368V296.421053H646.736842v431.157894a53.894737 53.894737 0 0 1-53.894737 53.894737h-161.68421z m424.528842 33.333895l-1.697684-72.488421a20.210526 20.210526 0 0 1 40.421052-0.916211l2.856421 122.88a20.210526 20.210526 0 0 1-20.668631 20.695579l-122.88-2.856421a20.210526 20.210526 0 1 1 0.91621-40.421052l72.488421 1.670736-101.564631-101.537684a20.210526 20.210526 0 0 1 28.56421-28.56421l101.564632 101.537684zM271.467789 619.789474h210.917053l9.593263-45.136842h-157.130105l16.949895-73.296843h139.802947l9.404632-45.136842h-139.829895l12.907789-61.359158h144.599579l9.404632-45.109894h-200.245895L271.467789 619.789474z" fill="#00B657" p-id="71789"></path></svg>