<?xml version="1.0" standalone="no"?><!DOCTYPE svg PUBLIC "-//W3C//DTD SVG 1.1//EN" "http://www.w3.org/Graphics/SVG/1.1/DTD/svg11.dtd"><svg t="1767331866635" class="icon" viewBox="0 0 1024 1024" version="1.1" xmlns="http://www.w3.org/2000/svg" p-id="19986" xmlns:xlink="http://www.w3.org/1999/xlink" width="16" height="16"><path d="M789.333 448H554.667V341.333h-85.334V448H234.667c-46.934 0-85.334 38.4-85.334 85.333v149.334h85.334V533.333h234.666v149.334h85.334V533.333h234.666v149.334h85.334V533.333c0-46.933-38.4-85.333-85.334-85.333z" fill="#36D1EB" p-id="19987"></path><path d="M576 128v128H448V128h128m0-85.333H448c-46.933 0-85.333 38.4-85.333 85.333v128c0 46.933 38.4 85.333 85.333 85.333h128c46.933 0 85.333-38.4 85.333-85.333V128c0-46.933-38.4-85.333-85.333-85.333zM576 768v128H448V768h128m0-85.333H448c-46.933 0-85.333 38.4-85.333 85.333v128c0 46.933 38.4 85.333 85.333 85.333h128c46.933 0 85.333-38.4 85.333-85.333V768c0-46.933-38.4-85.333-85.333-85.333zM896 768v128H768V768h128m0-85.333H768c-46.933 0-85.333 38.4-85.333 85.333v128c0 46.933 38.4 85.333 85.333 85.333h128c46.933 0 85.333-38.4 85.333-85.333V768c0-46.933-38.4-85.333-85.333-85.333zM256 768v128H128V768h128m0-85.333H128c-46.933 0-85.333 38.4-85.333 85.333v128c0 46.933 38.4 85.333 85.333 85.333h128c46.933 0 85.333-38.4 85.333-85.333V768c0-46.933-38.4-85.333-85.333-85.333z" fill="#0558FF" p-id="19988"></path></svg>