<?xml version="1.0" standalone="no"?><!DOCTYPE svg PUBLIC "-//W3C//DTD SVG 1.1//EN" "http://www.w3.org/Graphics/SVG/1.1/DTD/svg11.dtd"><svg t="1767333254667" class="icon" viewBox="0 0 1228 1024" version="1.1" xmlns="http://www.w3.org/2000/svg" p-id="34511" xmlns:xlink="http://www.w3.org/1999/xlink" width="19.1875" height="16"><path d="M1095.68 32H133.12A96 96 0 0 0 37.12 128v179.2h1154.56V128a96 96 0 0 0-96-96zM37.12 896a96 96 0 0 0 96 96h962.56A96 96 0 0 0 1191.68 896v-179.2H37.12z" fill="#5466E0" p-id="34512"></path><path d="M1126.4 0H102.4a102.4 102.4 0 0 0-102.4 102.4v819.2a102.4 102.4 0 0 0 102.4 102.4h1024a102.4 102.4 0 0 0 102.4-102.4V102.4a102.4 102.4 0 0 0-102.4-102.4z m76.8 896a109.056 109.056 0 0 1-108.8 108.8H133.12A109.056 109.056 0 0 1 25.6 896V128A109.056 109.056 0 0 1 133.12 19.2h962.56A109.056 109.056 0 0 1 1204.48 128z" fill="#5466E0" p-id="34513"></path><path d="M366.08 614.4a109.568 109.568 0 0 0 17.92-68.352v-153.6h-30.72v153.6c0 42.752-12.544 64-37.888 64a39.168 39.168 0 0 1-25.6-7.168v30.464a56.576 56.576 0 0 0 25.6 4.352A60.928 60.928 0 0 0 366.08 614.4zM626.688 392.192h-33.28l-66.304 188.416a91.904 91.904 0 0 0-5.376 22.016 95.232 95.232 0 0 0-4.864-21.504l-65.024-188.928h-35.328l87.04 241.408H537.6zM879.104 633.6h30.976v-241.408H870.4l-72.448 164.864c-2.048 5.376-5.888 15.616-11.264 30.464h-1.28a211.456 211.456 0 0 0-10.752-29.696l-71.168-165.632h-42.752v241.408H691.2v-158.464c0-21.248 0-37.632-1.536-48.896a153.6 153.6 0 0 0 7.168 25.6l79.36 181.76H793.6l79.616-183.04a140.8 140.8 0 0 0 7.168-25.6q-2.304 27.648-2.304 47.616z" fill="#5466E0" p-id="34514"></path></svg>