<?xml version="1.0" standalone="no"?><!DOCTYPE svg PUBLIC "-//W3C//DTD SVG 1.1//EN" "http://www.w3.org/Graphics/SVG/1.1/DTD/svg11.dtd"><svg t="1767334545763" class="icon" viewBox="0 0 1024 1024" version="1.1" xmlns="http://www.w3.org/2000/svg" p-id="60387" xmlns:xlink="http://www.w3.org/1999/xlink" width="16" height="16"><path d="M969.228139 359.13288c-0.607974 126.234517-102.90753 227.030138-230.006009 226.518161-125.69054-0.607974-226.390166-103.419508-225.750194-230.67798 0.607974-123.738625 104.859445-225.558202 230.006009-224.630243 124.826578 0.92796 226.29417 103.83549 225.750194 228.822061zM418.692053 1023.968001c-100.571631 0.351985-185.047962-83.836358-186.071917-185.335949-1.023956-99.419681 83.420376-184.727976 183.256039-185.175956 104.027481-0.415982 187.511855 81.756449 187.511855 184.567982 0.127994 101.659584-83.292382 185.591938-184.695977 185.943923zM380.709703 121.191216c0 66.653105-54.877616 121.466724-121.210735 121.114739C193.421838 242.017967 137.424271 185.604418 138.512223 120.327253 139.568178 54.122129 195.757737-0.91548 261.386886 0.012479c65.309163 0.991957 119.322817 55.805576 119.322817 121.178737zM934.381653 509.782336c-115.067002 100.507634-213.334733 118.55485-316.56225 58.01348-91.292035-53.501676-136.346077-158.745105-113.243081-264.404515 25.054912-114.331034 106.907356-174.296429 264.404515-190.583721C649.466029 27.40329 523.103518 1.068434 384.357544 35.018959c-17.95122 4.351811-10.271554 11.135516-5.375766 20.191123 33.534543 61.725319 16.35129 136.826057-40.190254 177.112306a134.170172 134.170172 0 0 1-179.960183-20.895092c-13.727404-15.64732-18.207209-11.487501-27.902788 2.687883C23.925201 370.812373 30.100932 584.403095 146.799863 733.996597c20.991088 26.910831 43.806097 51.997741 72.156866 72.956831 31.99861-136.858055 144.793711-181.368122 235.477772-165.880795 110.619195 18.847181 170.744583 111.003178 160.345035 246.901276 150.009484-18.335204 338.19331-241.04553 319.634115-378.191573zM546.654495 89.384597c19.711144-0.991957 37.118388 15.583323 37.598367 35.614453a35.262468 35.262468 0 0 1-34.430505 35.966438c-21.599062 0.735968-36.766403-13.663406-36.958395-34.910484-0.22399-20.319117 13.983393-35.710449 33.790533-36.702405zM216.588832 282.848194a35.838443 35.838443 0 0 1 35.486458 37.374376 35.806445 35.806445 0 0 1-36.638408 34.046521 35.486459 35.486459 0 0 1-35.326466-35.294466 35.166472 35.166472 0 0 1 36.478416-36.126431z m-30.750664 132.218257a36.254425 36.254425 0 0 1 35.358464-35.614453c19.679145-0.479979 35.198471 14.303379 35.998436 34.270511 0.863962 20.863094-14.367376 37.470372-34.686493 37.854356a36.318422 36.318422 0 0 1-36.702406-36.478416z m21.951046 101.147606a35.518457 35.518457 0 0 1 36.60641-34.014523c20.447112 0.415982 35.070477 16.671276 34.206514 38.014349-0.799965 19.967133-16.383288 34.686493-36.094432 34.014523a35.67845 35.67845 0 0 1-34.718492-38.014349z m84.988308 129.434378c-21.343073 0.287987-36.574411-14.719361-36.318422-35.742448 0.255989-19.615148 15.839312-35.486459 34.910484-35.67845 20.063129-0.159993 37.246382 16.671276 37.086389 36.38242-0.095996 19.295162-15.839312 34.686493-35.678451 35.038478z m163.448901-516.649558a36.478415 36.478415 0 0 1-36.958395-36.222427c0.095996-20.511109 16.383288-35.838443 37.374377-35.23047a35.198471 35.198471 0 0 1 34.686493 35.710449 36.222427 36.222427 0 0 1-35.102475 35.742448z m213.686718 645.155976c-21.087084-0.159993-36.510414-15.999305-35.742448-36.60641a36.478415 36.478415 0 0 1 36.478416-34.462503 35.646452 35.646452 0 0 1 35.550455 37.342378c-0.639972 19.711144-15.775315 33.790532-36.254425 33.758533z m65.437157-75.51672a35.614453 35.614453 0 0 1-36.958394-35.838443 35.614453 35.614453 0 0 1 35.198471-35.550456 35.294467 35.294467 0 0 1 36.8304 35.870442 35.518457 35.518457 0 0 1-35.070477 35.486458z" fill="#008CC1" p-id="60388"></path></svg>