<?xml version="1.0" standalone="no"?><!DOCTYPE svg PUBLIC "-//W3C//DTD SVG 1.1//EN" "http://www.w3.org/Graphics/SVG/1.1/DTD/svg11.dtd"><svg t="1767349979661" class="icon" viewBox="0 0 1227 1024" version="1.1" xmlns="http://www.w3.org/2000/svg" p-id="102676" xmlns:xlink="http://www.w3.org/1999/xlink" width="19.171875" height="16"><path d="M221.693602 298.433649c0-37.673368 30.540141-68.213508 68.213508-68.213508h520.127251c9.417443 0 17.053077 7.635635 17.053077 17.053077V882.510539h-537.180328c-37.673368 0-68.213508-30.540141-68.213508-68.213509V298.433649z" fill="#D8D8D8" p-id="102677"></path><path d="M567.023813 221.693602c0-37.673368 30.540141-68.213508 68.213508-68.213508h136.427016c9.417443 0 17.053077 7.635635 17.053078 17.053077v562.761143c0 9.417443-7.635635 17.053077-17.053078 17.053077H635.237321c-37.673368 0-68.213508-30.540141-68.213508-68.213508v-460.440281z" fill="#F4F4F4" p-id="102678"></path><path d="M221.693602 221.693602c0-37.673368 30.540141-68.213508 68.213508-68.213508h306.960187c47.09081 0 85.266585 38.175775 85.266586 85.266585v443.387204c0 37.673368-30.540141 68.213508-68.213508 68.213508H272.32045l-33.573771 27.71155-17.053077 40.501958V221.693602z" fill="#41DEE5" p-id="102679"></path><path d="M598.999232 89.529255A4.263869 4.263869 0 0 0 594.735363 93.793124v518.750726a8.527738 8.527738 0 0 0 6.394604 14.166932h10.658473c30.609686 0 55.423101 24.813415 55.423101 55.423101 0 30.609686-24.813415 55.423101-55.423101 55.423101H296.301714c-42.382089 0-76.740047 34.357958-76.740047 76.740046 0 42.382089 34.357958 76.740047 76.740047 76.740047h537.180328a8.526539 8.526539 0 0 0 0-17.053077h-537.180328c-32.963447 0-59.68697-26.722323-59.686969-59.68697 0-32.963447 26.723522-59.68697 59.686969-59.686969h315.486726c40.028328 0 72.477377-32.449049 72.477377-72.476178 0-6.040881-0.739822-11.909096-2.131934-17.519513V157.742763c0-37.673368-30.540141-68.213508-68.213508-68.213508h-14.921143zM306.960187 281.380571a8.52534 8.52534 0 0 1 8.526539-8.526538h76.740047a8.526539 8.526539 0 0 1 0 17.053077h-76.740047a8.526539 8.526539 0 0 1-8.526539-8.526539z" fill="#262626" p-id="102680"></path><path d="M306.960187 341.066342a8.526539 8.526539 0 0 1 8.526539-8.526539h170.533171a8.52534 8.52534 0 1 1 0 17.053078H315.486726a8.526539 8.526539 0 0 1-8.526539-8.526539z" fill="#262626" p-id="102681"></path><path d="M306.960187 788.716215a4.263869 4.263869 0 0 1 4.263869-4.262669h68.212309a4.263869 4.263869 0 0 1 4.263869 4.262669v53.126895c0 3.08519-3.175119 5.148778-5.995316 3.895757l-30.64326-13.618961a4.259073 4.259073 0 0 0-3.462895 0L312.955504 845.738867c-2.820197 1.253021-5.995316-0.810567-5.995317-3.895757v-53.126895z" fill="#262626" p-id="102682"></path><path d="M898.293808 361.987597l50.878651-5.347822 49.912206 474.877003-50.87985 5.347822-49.911007-474.877003z" fill="#41DEE5" p-id="102683"></path><path d="M947.758763 832.624712l50.879851-5.347822 0.892103 8.479775-50.88105 5.347822z" fill="#FFFFFF" p-id="102684"></path><path d="M906.110501 314.011878l25.440525-2.673911 16.730529 36.823232-50.87985 5.347822 8.708796-39.497143z" fill="#D8D8D8" p-id="102685"></path><path d="M913.483541 261.795073l12.935494 41.507971-16.95955 1.783008 4.024056-43.290979zM948.649667 841.104487l50.879851-5.347822 4.010866 38.160187c0.738623 7.024112-4.357396 13.317995-11.382707 14.056619l-25.439326 2.673911c-7.025311 0.738623-13.319194-4.358595-14.057817-11.383907l-4.010867-38.158988z" fill="#262626" p-id="102686"></path><path d="M936.452796 357.97793l12.720862-1.336956 49.466155 470.638314-12.722061 1.336956z" fill="#09B2BA" p-id="102687"></path></svg>