<?xml version="1.0" standalone="no"?><!DOCTYPE svg PUBLIC "-//W3C//DTD SVG 1.1//EN" "http://www.w3.org/Graphics/SVG/1.1/DTD/svg11.dtd"><svg t="1770354598793" class="icon" viewBox="0 0 1024 1024" version="1.1" xmlns="http://www.w3.org/2000/svg" p-id="8053" xmlns:xlink="http://www.w3.org/1999/xlink" width="200" height="200"><path d="M78.237771 403.023677V277.766477a200.104454 200.104454 0 0 1 199.592678-199.592678h101.267696V5.117761H277.830449A273.41638 273.41638 0 0 0 5.117761 277.766477V403.023677h73.12001z" p-id="8054"></path><path d="M83.803336 408.589242H0V277.766477A278.278253 278.278253 0 0 1 277.766477 0h106.449429v83.803336H277.766477A194.474917 194.474917 0 0 0 83.803336 277.702505v130.822765zM10.619354 397.905916h62.372712V277.766477c0-112.782658 91.927782-204.710439 204.710439-204.710439H373.596552V10.683326H277.766477A267.211095 267.211095 0 0 0 10.683326 277.766477V397.905916zM651.299057 78.173799h94.038858a199.784594 199.784594 0 0 1 199.592678 199.592678V403.023677h73.056038V277.766477A273.160492 273.160492 0 0 0 745.337915 5.117761h-94.038858v73.056038z" p-id="8055"></path><path d="M1023.552196 408.589242h-83.803336V277.766477a194.602861 194.602861 0 0 0-194.410945-194.474917h-99.604423V0h99.604423a278.086337 278.086337 0 0 1 277.766477 277.766477v130.822765H1023.552196z m-73.056038-10.683326h62.372712V277.766477A267.211095 267.211095 0 0 0 745.785719 10.683326h-88.921097v62.372712h88.921097a205.222215 205.222215 0 0 1 205.094271 205.158243v120.075467l-0.383832-0.383832z" p-id="8056"></path><path d="M379.098145 944.866621H277.830449a199.784594 199.784594 0 0 1-199.592678-199.592678v-70.049354H5.117761v70.113326a272.840632 272.840632 0 0 0 272.712688 272.648716h101.267696V944.866621z" p-id="8057"></path><path d="M384.599738 1023.552196H278.278253a278.278253 278.278253 0 0 1-277.766477-277.830449v-75.614919h83.739364v75.614919a194.602861 194.602861 0 0 0 194.474917 194.474917h106.385457v83.803336L384.599738 1023.552196zM10.683326 680.790154v64.931593a267.211095 267.211095 0 0 0 267.083151 267.147123H373.596552v-62.436684H277.766477a205.478103 205.478103 0 0 1-205.094271-205.094271v-64.995565h-62.052852v0.447804z" p-id="8058"></path><path d="M944.866621 675.352533v70.049354a199.784594 199.784594 0 0 1-199.592678 199.592678h-93.974886v73.12001h94.038858a272.840632 272.840632 0 0 0 272.648716-272.712688v-70.049354h-73.056038z" p-id="8059"></path><path d="M745.337915 1023.552196h-99.604423v-83.739364h99.604423a194.602861 194.602861 0 0 0 194.474917-194.474917V669.786968H1023.552196v75.614919a278.086337 278.086337 0 0 1-277.766477 277.830449L745.273943 1023.552196z m-88.921097-10.683326h88.921097a267.211095 267.211095 0 0 0 267.083151-267.083151v-64.931593h-62.372712v64.931593a205.222215 205.222215 0 0 1-205.158243 205.158243h-88.921097v62.372712l0.447804-0.447804z" p-id="8060"></path><path d="M362.401449 773.16574c-26.868245 0-49.962142-5.117761-69.217717-14.969451-19.191604-9.787718-33.777222-24.309365-44.012744-43.117136-10.235522-18.807772-15.353283-41.453864-15.353283-68.450053v-27.316049l87.12988-0.831637v27.31605c0 12.794402 3.838321 23.093896 11.131131 30.386705 7.292809 7.228837 17.528331 11.067158 30.322733 11.067159 12.794402 0 22.646092-3.838321 29.491098-11.067159 6.845005-7.292809 10.235522-17.080527 10.235522-29.938901v-44.844381a37.295683 37.295683 0 0 0-9.339914-26.484413 97.685263 97.685263 0 0 0-24.821141-19.255576c-10.235522-5.565565-21.366652-11.514962-33.265446-17.528331a592.060973 592.060973 0 0 1-35.120635-19.639408 160.313863 160.313863 0 0 1-32.43381-26.548385 114.893734 114.893734 0 0 1-23.5417-37.551571 144.896608 144.896608 0 0 1-8.956082-53.864434v-26.484413c0-39.342788 11.067158-70.113325 33.265446-92.311614 22.26226-21.814456 53.480602-32.945586 94.038858-32.945586 40.622228 0 70.113325 11.13113 92.375586 33.329418 22.198288 22.26226 33.265446 53.032798 33.265446 93.207222v29.043293l-87.12988 0.831637v-29.427126c0-13.306179-3.454489-23.541701-10.235522-30.83451a36.975823 36.975823 0 0 0-28.211658-11.067158c-12.794402 0-22.646092 3.390517-29.491097 10.235522a37.103767 37.103767 0 0 0-10.235522 27.763853v34.225027c0 11.962766 3.390517 21.750484 10.619354 29.427125 7.292809 7.676641 16.632723 14.585619 27.827825 20.151184 11.514962 5.949397 23.477728 11.962766 36.272131 18.807772 11.13113 5.501593 22.26226 11.962766 32.945586 18.359967 11.13113 6.397201 20.918848 14.521647 29.87493 23.925533s16.248891 20.918848 21.814456 35.056663c5.565565 14.073843 8.124446 31.15437 8.124446 51.689386v42.733304c0 40.174424-11.13113 71.008934-33.329419 93.207222-22.198288 22.198288-53.41663 33.265446-93.591054 33.265446l-0.447804 0.447804z" p-id="8061"></path><path d="M362.401449 778.219529c-27.763853 0-52.13719-5.117761-71.776597-15.801087-20.087212-10.235522-35.504467-25.588805-46.187793-45.292185-10.683326-19.639408-15.801087-43.56494-15.801087-70.944961v-32.881615l97.877178-0.895608v32.945587c0 11.514962 3.006685 20.471044 9.403886 26.868245 6.397201 6.397201 14.969451 9.467858 26.484413 9.467857 11.514962 0 19.639408-3.006685 25.652777-9.403885 6.013369-6.397201 8.956082-14.969451 8.956082-26.548385v-44.844381a32.43381 32.43381 0 0 0-8.124446-23.029924 88.153433 88.153433 0 0 0-23.477728-18.42394c-10.235522-5.565565-21.366652-11.514962-33.329418-17.528331a612.212157 612.212157 0 0 1-35.504467-20.087212 172.148685 172.148685 0 0 1-33.713251-27.316049 125.960892 125.960892 0 0 1-24.82114-39.342788c-6.397201-15.353283-9.403886-34.225027-9.403886-55.591679v-26.484413c0-41.00606 11.514962-73.056038 35.056662-95.70213 23.029924-22.646092 55.975511-34.225027 97.877179-34.225026 41.837696 0 72.608234 11.514962 95.702131 34.608858 23.093896 23.093896 34.608859 55.591679 34.608858 97.045543v34.161054l-97.877179 1.279441v-34.544887c0-11.578934-2.942713-20.98282-8.508277-27.380021-5.565565-6.397201-13.690011-9.403886-23.925533-9.403886-11.13113 0-20.087212 3.006685-25.652777 8.508278-6.013369 5.565565-8.956082 13.690011-8.956081 23.989504v34.161055c0 10.683326 2.942713 19.191604 9.403885 25.588805 6.845005 7.292809 15.353283 13.753983 26.484413 18.871743 11.514962 5.949397 23.477728 11.962766 36.336103 18.807772 11.067158 5.565565 22.198288 11.962766 33.265447 18.359967 11.13113 6.845005 21.814456 14.969451 31.218342 24.757169 9.403886 9.85169 17.144499 22.26226 23.093896 36.783907 5.565565 14.521647 8.57225 32.497782 8.57225 53.41663v42.733304c0 41.453864-11.514962 73.951646-35.056663 97.045543-23.477728 23.029924-55.975511 34.992691-97.429375 34.992691l-0.447804 1.27944z m-123.465983-154.236522v22.198289c0 25.652777 5.117761 47.851065 14.521647 65.8272 9.787718 17.912163 23.925533 31.602174 41.837696 41.00606 18.42394 9.403886 41.070032 14.521647 67.170612 14.521647 38.383207 0 68.769913-10.683326 89.688762-31.602174 20.918848-20.918848 31.602174-51.305554 31.602174-89.752733v-42.733304c0-19.639408-2.55888-36.336103-8.060474-49.57831a100.819891 100.819891 0 0 0-20.98282-33.329418 138.179546 138.179546 0 0 0-29.043294-23.029925c-10.683326-6.397201-21.750484-12.41057-32.497782-18.423939-12.794402-6.845005-24.757169-13.242207-36.336103-18.807772a104.9141 104.9141 0 0 1-29.427125-21.366652 46.251765 46.251765 0 0 1-12.410571-32.881614v-34.225027c0-13.242207 3.838321-23.925533 11.962767-31.602174s19.191604-11.514962 33.265446-11.514962c14.137815 0 24.437309 4.222153 32.11395 12.794402 7.676641 8.508278 11.514962 20.087212 11.514962 34.608859v23.925533L480.429812 399.185356v-23.5417c0-38.383207-10.683326-68.386081-31.602174-89.304929-20.98282-20.918848-50.85775-31.602174-88.473293-31.602174s-69.281689 10.683326-90.200537 31.15437c-20.918848 20.98282-31.602174 50.473918-31.602174 88.473293v26.484413c0 20.087212 3.006685 37.615543 8.508277 51.753358 5.565565 14.073843 13.242207 26.036609 22.646093 35.888299 9.403886 9.85169 20.087212 18.359968 31.218342 25.588804 11.962766 7.292809 23.541701 13.753983 34.608858 19.70338 11.962766 6.013369 23.093896 11.514962 33.777223 17.528332 10.683326 6.013369 19.639408 12.794402 26.484413 20.471043a43.948772 43.948772 0 0 1 10.683326 30.386706v44.844381c0 14.073843-3.838321 25.268945-11.962766 33.777222-8.124446 8.57225-19.191604 12.41057-33.265447 12.410571-14.137815 0-25.716749-4.286125-34.225026-12.794403a47.979009 47.979009 0 0 1-12.410571-34.225026v-22.198289H237.975886h0.831636z" p-id="8062"></path><path d="M545.297432 767.600175V254.736553h87.641657v513.247454h-87.641657V767.664147z m58.15056 0v-84.187168h65.8272c11.962766 0 20.918848-3.454489 27.316049-10.683326 6.397201-7.292809 9.403886-17.144499 9.403886-30.386706V379.098145c0-13.242207-3.006685-23.029924-9.403886-30.322734-6.397201-7.292809-15.353283-10.683326-27.316049-10.683326h-65.891173V253.904917h74.399451c36.783907 0 65.379397 10.235522 85.914412 30.322733 20.471044 20.087212 30.322734 48.298869 30.322734 85.082777v282.884238c0 24.309365-4.669957 44.844381-13.626039 61.98888-8.956082 17.080527-22.646092 30.322734-39.790591 39.278815-17.528331 8.956082-38.383207 13.690011-63.204348 13.690011H603.447992V767.664147z" p-id="8063"></path><path d="M677.399638 773.101768H539.795839v-523.93078h137.987631c38.063347 0 68.450053 10.619354 89.752733 31.602174 21.366652 20.918848 32.049978 50.85775 32.049978 88.921097V652.514525c0 25.204973-4.669957 46.571625-14.521647 64.54776-9.787718 17.912163-23.925533 31.986006-42.2855 41.453864-17.912163 9.403886-40.174424 14.073843-65.8272 14.073843l0.447804 0.447804z m-39.342788-10.683326h39.342788c23.925533 0 44.012744-4.286125 60.645467-12.794403 16.248891-8.57225 29.107266-20.98282 37.615543-37.231711 8.57225-16.248891 13.242207-36.336103 13.242207-59.366027V370.078091c0-34.608859-9.787718-61.98888-29.043294-81.244456-19.191604-18.7438-47.019429-28.595489-82.076091-28.595489h-39.662648v73.567814h31.15437c13.242207 0 23.925533 4.222153 31.218342 12.346598 7.228837 8.124446 10.683326 19.191604 10.683326 33.777223v263.24483c0 14.073843-3.838321 25.588805-10.683326 33.777223-7.292809 8.124446-17.976135 12.346598-31.218342 12.346598h-31.218342v73.567814-0.447804z m-29.427126 0h18.7438v-73.567814h-18.807772v73.567814z m-58.214531 0h47.467233v-84.187168h29.491098V343.529706h-29.427126V259.40651h-47.467233V762.418442z m87.641657-84.187168h31.218342c10.235522 0 17.912163-3.006685 23.029925-8.956082 5.565565-6.013369 8.188418-14.969451 8.188417-26.548385V379.481977c0-11.514962-2.55888-20.918848-8.124445-26.868246-5.565565-6.013369-12.794402-9.020054-23.093897-9.020053h-31.218342v334.573624z m-29.427126-345.320922h18.7438v-73.567814h-18.807772v73.567814z" p-id="8064"></path></svg>