<?xml version="1.0" standalone="no"?><!DOCTYPE svg PUBLIC "-//W3C//DTD SVG 1.1//EN" "http://www.w3.org/Graphics/SVG/1.1/DTD/svg11.dtd"><svg t="1767332899435" class="icon" viewBox="0 0 1280 1024" version="1.1" xmlns="http://www.w3.org/2000/svg" p-id="29434" xmlns:xlink="http://www.w3.org/1999/xlink" width="20" height="16"><path d="M320 234.666667m-35.555556 0a2.5 2.5 0 1 0 71.111111 0 2.5 2.5 0 1 0-71.111111 0Z" fill="#15A07B" p-id="29435"></path><path d="M429.511111 256l321.422222 0c9.955556 0 17.066667-7.111111 17.066667-14.222222l0-14.222222c0-7.111111-7.111111-14.222222-17.066667-14.222222L429.511111 213.333333c-9.955556 0-17.066667 7.111111-17.066667 14.222222l0 14.222222C412.444444 248.888889 419.555556 256 429.511111 256z" fill="#15A07B" p-id="29436"></path><path d="M320 419.555556m-35.555556 0a2.5 2.5 0 1 0 71.111111 0 2.5 2.5 0 1 0-71.111111 0Z" fill="#15A07B" p-id="29437"></path><path d="M429.511111 440.888889l321.422222 0c9.955556 0 17.066667-7.111111 17.066667-14.222222l0-14.222222c0-7.111111-7.111111-14.222222-17.066667-14.222222L429.511111 398.222222c-9.955556 0-17.066667 7.111111-17.066667 14.222222l0 14.222222C412.444444 433.777778 419.555556 440.888889 429.511111 440.888889z" fill="#15A07B" p-id="29438"></path><path d="M320 604.444444m-35.555556 0a2.5 2.5 0 1 0 71.111111 0 2.5 2.5 0 1 0-71.111111 0Z" fill="#15A07B" p-id="29439"></path><path d="M320 789.333333m-35.555556 0a2.5 2.5 0 1 0 71.111111 0 2.5 2.5 0 1 0-71.111111 0Z" fill="#15A07B" p-id="29440"></path><path d="M952.888889 512c-4.266667 0-9.955556 0-14.222222 1.422222L938.666667 28.444444c0-15.644444-12.8-28.444444-28.444444-28.444444L142.222222 0C126.577778 0 113.777778 12.8 113.777778 28.444444l0 967.111111c0 15.644444 12.8 28.444444 28.444444 28.444444l768 0c4.266667 0 7.111111-1.422222 11.377778-2.844444 9.955556 1.422222 21.333333 2.844444 31.288889 2.844444 140.8 0 256-115.2 256-256S1093.688889 512 952.888889 512zM156.444444 981.333333 156.444444 42.666667l739.555556 0 0 476.444444c-49.777778 11.377778-95.288889 36.977778-129.422222 73.955556-2.844444-5.688889-8.533333-9.955556-15.644444-9.955556L429.511111 583.111111c-9.955556 0-17.066667 7.111111-17.066667 14.222222l0 14.222222c0 7.111111 7.111111 14.222222 17.066667 14.222222L739.555556 625.777778c-27.022222 41.244444-42.666667 89.6-42.666667 142.222222L429.511111 768c-9.955556 0-17.066667 7.111111-17.066667 14.222222l0 14.222222c0 7.111111 7.111111 14.222222 17.066667 14.222222l271.644444 0c11.377778 71.111111 52.622222 132.266667 110.933333 170.666667L156.444444 981.333333zM952.888889 981.333333c-4.266667 0-9.955556 0-14.222222-1.422222-14.222222-1.422222-28.444444-2.844444-42.666667-7.111111-76.8-21.333333-136.533333-83.911111-152.177778-162.133333-2.844444-14.222222-4.266667-28.444444-4.266667-42.666667 0-98.133333 66.844444-180.622222 156.444444-204.8 14.222222-4.266667 28.444444-5.688889 42.666667-7.111111 4.266667 0 9.955556-1.422222 14.222222-1.422222 118.044444 0 213.333333 95.288889 213.333333 213.333333S1070.933333 981.333333 952.888889 981.333333z" fill="#15A07B" p-id="29441"></path><path d="M1009.777778 824.888889 853.333333 824.888889 853.333333 768 810.666667 768 810.666667 822.044444 810.666667 867.555556 853.333333 867.555556 1009.777778 867.555556 1009.777778 913.066667 1079.466667 843.377778 1009.777778 772.266667Z" fill="#15A07B" p-id="29442"></path><path d="M896 668.444444 896 622.933333 826.311111 692.622222 896 763.733333 896 711.111111 1052.444444 711.111111 1052.444444 768 1095.111111 768 1095.111111 713.955556 1095.111111 668.444444 1051.022222 668.444444Z" fill="#15A07B" p-id="29443"></path></svg>