<?xml version="1.0" standalone="no"?><!DOCTYPE svg PUBLIC "-//W3C//DTD SVG 1.1//EN" "http://www.w3.org/Graphics/SVG/1.1/DTD/svg11.dtd"><svg t="1767347742021" class="icon" viewBox="0 0 1024 1024" version="1.1" xmlns="http://www.w3.org/2000/svg" p-id="98098" xmlns:xlink="http://www.w3.org/1999/xlink" width="16" height="16"><path d="M443.008 241.152l-41.216-34.304A64 64 0 0 0 360.832 192H128a64 64 0 0 0-64 64v512a64 64 0 0 0 64 64h768a64 64 0 0 0 64-64V320a64 64 0 0 0-64-64H483.968a64 64 0 0 1-40.96-14.848" fill="#41B883" p-id="98099"></path><path d="M588.8 384a71.36 71.36 0 0 0-76.8 64v384a71.36 71.36 0 0 0 76.8 64h358.4a71.36 71.36 0 0 0 76.8-64V448a71.36 71.36 0 0 0-76.8-64z" fill="#E8F5E9" p-id="98100"></path><path d="M576 512l192 320 192-318.464V512h-74.656l-116.224 192.832L653.44 512z" fill="#41B883" p-id="98101"></path><path d="M653.376 512l115.712 192.832L885.344 512h-70.016l-45.76 75.904L724 512z" fill="#35495E" p-id="98102"></path></svg>