<?xml version="1.0" standalone="no"?><!DOCTYPE svg PUBLIC "-//W3C//DTD SVG 1.1//EN" "http://www.w3.org/Graphics/SVG/1.1/DTD/svg11.dtd"><svg t="1767347829165" class="icon" viewBox="0 0 1024 1024" version="1.1" xmlns="http://www.w3.org/2000/svg" p-id="99930" xmlns:xlink="http://www.w3.org/1999/xlink" width="16" height="16"><path d="M810.666667 853.333333H170.666667a85.333333 85.333333 0 0 1-85.333334-85.333333V256c0-47.36 37.973333-85.333333 85.333334-85.333333h256l85.333333 85.333333h298.666667c46.805333 0 85.333333 38.528 85.333333 85.333333H170.666667v426.666667l91.306666-341.333333h728.32l-97.28 362.666666c-9.813333 37.12-43.093333 64-82.346666 64z" fill="#41B883" p-id="99931"></path><path d="M649.984 374.229333a64 64 0 0 0-64 64v384a64 64 0 0 0 64 64h298.666667a64 64 0 0 0 64-64v-384a64 64 0 0 0-64-64z" fill="#E8F5E9" p-id="99932"></path><path d="M650.965333 502.272l148.352 256L947.626667 503.466667v-1.28h-57.6l-89.813334 154.24-89.386666-154.197334z" fill="#41B883" p-id="99933"></path><path d="M710.784 502.272l89.386667 154.24 89.813333-154.24H835.84l-35.370667 60.672-35.2-60.672z" fill="#35495E" p-id="99934"></path></svg>