<?xml version="1.0" standalone="no"?><!DOCTYPE svg PUBLIC "-//W3C//DTD SVG 1.1//EN" "http://www.w3.org/Graphics/SVG/1.1/DTD/svg11.dtd"><svg t="1770354613573" class="icon" viewBox="0 0 1024 1024" version="1.1" xmlns="http://www.w3.org/2000/svg" p-id="8215" xmlns:xlink="http://www.w3.org/1999/xlink" width="200" height="200"><path d="M42.752 757.888v-490.88c0-76.8 62.08-138.88 138.24-138.88h661.76c76.16 0 138.24 62.08 138.24 138.88v490.88c0 76.16-62.08 138.24-138.24 138.24H180.992c-76.16 0-138.24-62.08-138.24-138.24z m853.12 0v-490.88a53.12 53.12 0 0 0-53.12-53.76H180.992a53.12 53.12 0 0 0-53.12 53.76v490.88c0 29.44 23.68 53.12 53.12 53.12h661.76c29.44 0 53.12-23.68 53.12-53.12z" p-id="8216"></path><path d="M42.752 234.368c0-58.24 48-106.24 106.24-106.24h725.76c58.24 0 106.24 48 106.24 106.24v234.88H42.752z m853.12 149.76v-149.76c0-11.52-9.6-21.12-21.12-21.12H148.992c-11.52 0-21.12 9.6-21.12 21.12v149.76z" p-id="8217"></path><path d="M170.688 295.744c0 23.68 19.2 42.88 42.88 42.88a42.624 42.624 0 1 0-42.88-42.88zM298.688 295.744c0 23.68 19.2 42.88 42.88 42.88a42.624 42.624 0 1 0-42.88-42.88z" p-id="8218"></path></svg>