<?xml version="1.0" standalone="no"?><!DOCTYPE svg PUBLIC "-//W3C//DTD SVG 1.1//EN" "http://www.w3.org/Graphics/SVG/1.1/DTD/svg11.dtd"><svg t="1767350089089" class="icon" viewBox="0 0 1024 1024" version="1.1" xmlns="http://www.w3.org/2000/svg" p-id="104915" xmlns:xlink="http://www.w3.org/1999/xlink" width="16" height="16"><path d="M896 128v832H128V128h768z m-59.072 55.488H187.072v721.024h649.856V183.488z m-118.144 554.624v55.488H305.216v-55.488h413.568z m0-110.912v55.488H305.216V627.2h413.568z" fill="#0096F8" p-id="104916"></path><path d="M397.952 521.216c3.904 4.992 7.808 9.984 15.616 9.984s11.712-4.992 15.616-9.984c7.744-9.984 7.744-29.888 0-39.808l-58.496-69.76 58.496-74.688c7.744-9.92 7.744-29.888 0-39.808a20.032 20.032 0 0 0-31.232 0L327.808 391.68C320 396.8 320 401.728 320 411.648c0 9.984 3.84 14.976 7.808 19.968l70.144 89.6z m198.848 0c3.84 4.992 7.808 9.984 15.616 9.984 7.744 0 11.648-4.992 15.552-9.984l70.208-89.6c7.744-9.984 7.744-29.888 0-39.872l-70.208-89.6a20.032 20.032 0 0 0-31.168 0c-7.808 9.92-7.808 29.824 0 39.808l58.496 74.688-58.496 74.688c-7.808 4.992-7.808 19.904 0 29.888zM475.968 576h3.84c7.808 0 19.52-9.984 19.52-19.904l58.496-263.936c3.84-14.976-3.904-29.888-15.616-34.88-7.808-4.992-19.456 4.992-23.36 19.904l-58.496 263.936c0 14.976 3.84 29.888 15.616 34.88z" fill="#0096F8" p-id="104917"></path></svg>