<?xml version="1.0" standalone="no"?><!DOCTYPE svg PUBLIC "-//W3C//DTD SVG 1.1//EN" "http://www.w3.org/Graphics/SVG/1.1/DTD/svg11.dtd"><svg t="1770912736594" class="icon" viewBox="0 0 1024 1024" version="1.1" xmlns="http://www.w3.org/2000/svg" p-id="15260" xmlns:xlink="http://www.w3.org/1999/xlink" width="16" height="16"><path d="M647.33620907 325.58648889h194.92639478C900.0507923 325.58648889 946.96485925 369.82862885 946.96485925 424.38564978v113.0908634c0 54.55702092-46.85192912 98.79916089-104.7022554 98.7991609h-116.38416877v-84.75600973h116.38416877c8.26433232 0 14.97521872-6.27592155 14.97521873-14.105289V424.44778762a14.54025387 14.54025387 0 0 0-14.91308089-14.10528901H480.93108148V325.58648889h76.18098821l-0.43496486-205.48982708a15.03735657 15.03735657 0 0 0-15.03735656-14.97521873H420.78165523a15.03735657 15.03735657 0 0 0-15.03735656 15.03735657v349.27678198H315.64443497V120.15879965C315.58229712 61.99778418 362.6827776 14.8973037 420.78165523 14.8973037h120.85809304c57.97460195 0 105.07508243 46.9762048 105.1993581 105.0129446L647.33620907 325.58648889zM557.36062103 479.6261869l90.16200155 0.18641352-0.68351621 362.13931425A105.26149595 105.26149595 0 0 1 541.57761043 946.96485925H420.78165523a105.26149595 105.26149595 0 0 1-105.19935811-105.26149593v-118.80754442H405.74429867v118.80754442c0 8.32647017 6.77302423 15.03735657 15.03735656 15.03735656h120.7959552a15.03735657 15.03735657 0 0 0 15.03735656-14.97521873l0.74565404-362.13931425zM480.93108148 551.51966435V636.27567408H120.15879965C62.12205985 636.27567408 14.8973037 592.0335341 14.8973037 537.47651318V424.38564978C14.8973037 369.8907667 62.05992202 325.58648889 120.15879965 325.58648889h123.90284705v84.75600972H120.15879965c-8.26433232 0-15.03735657 6.27592155-15.03735657 14.10528901v112.96658773c0 7.82936747 6.77302423 14.10528901 15.03735657 14.105289H480.93108148z" fill="#447CE6" p-id="15261"></path></svg>