<?xml version="1.0" standalone="no"?><!DOCTYPE svg PUBLIC "-//W3C//DTD SVG 1.1//EN" "http://www.w3.org/Graphics/SVG/1.1/DTD/svg11.dtd"><svg t="1767350132362" class="icon" viewBox="0 0 1025 1024" version="1.1" xmlns="http://www.w3.org/2000/svg" p-id="107590" xmlns:xlink="http://www.w3.org/1999/xlink" width="16.015625" height="16"><path d="M188.68906667 707.97084445a92.66062222 92.66062222 0 0 1-92.47857778-92.47857778V408.50773333a92.66062222 92.66062222 0 0 1 92.47857778-92.47857778h92.38755555v48.05973334H188.68906667a44.96497778 44.96497778 0 0 0-44.32782222 44.32782222v205.25511111a45.51111111 45.51111111 0 0 0 44.32782222 46.23928889H624.86755555v46.23928889H188.68906667z m595.19431111 0v-48.05973334H876.08888889a45.51111111 45.51111111 0 0 0 46.23928889-46.23928889V408.50773333a45.51111111 45.51111111 0 0 0-46.23928889-46.23928888H434.54008889v-46.2392889H876.08888889a91.56835555 91.56835555 0 0 1 92.38755556 92.38755556v205.25511111A91.56835555 91.56835555 0 0 1 876.08888889 706.05937778H783.88337778z" fill="#282E39" p-id="107591"></path><path d="M428.98773333 948.26951111a92.66062222 92.66062222 0 0 1-92.38755555-92.38755556v-74.00106666H384.56888889v73.91004444a44.60088889 44.60088889 0 0 0 12.92515556 31.40266667 43.32657778 43.32657778 0 0 0 31.40266666 12.92515555h205.25511111a45.51111111 45.51111111 0 0 0 46.23928889-46.23928888V419.61244445h46.23928889v436.2695111a91.56835555 91.56835555 0 0 1-92.38755555 92.38755556z" fill="#41A2FF" p-id="107592"></path><path d="M338.42062222 598.8352V168.20906667a92.66062222 92.66062222 0 0 1 92.38755556-92.47857778h205.16408889a91.56835555 91.56835555 0 0 1 92.47857778 92.47857778V257.13777778H680.39111111v-88.92871111a44.96497778 44.96497778 0 0 0-44.32782222-44.32782222H428.98773333A44.96497778 44.96497778 0 0 0 384.56888889 168.20906667v428.80568888h-46.14826667z" fill="#282E39" p-id="107593"></path></svg>