<?xml version="1.0" standalone="no"?><!DOCTYPE svg PUBLIC "-//W3C//DTD SVG 1.1//EN" "http://www.w3.org/Graphics/SVG/1.1/DTD/svg11.dtd"><svg t="1767337326718" class="icon" viewBox="0 0 1024 1024" version="1.1" xmlns="http://www.w3.org/2000/svg" p-id="68332" xmlns:xlink="http://www.w3.org/1999/xlink" width="16" height="16"><path d="M470.004025 258.287601h210.645535v32.276101H470.004025zM470.004025 357.415272H891.293047v32.224936H470.004025zM470.004025 457.990922H891.293047v32.276101H470.004025z" fill="#73D99C" p-id="68333"></path><path d="M896.639822 686.323281L512.721943 821.274856l-10.691504-30.478152 383.892297-134.950552z" fill="#6B6F80" p-id="68334"></path><path d="M818.096978 224.063125c2.098801-37.872562-4.644787-76.04393-13.065573-107.371426 40.144302 21.583574 90.909499 58.207703 125.632325 116.064412-41.494043-9.79304-82.813101-10.342556-112.566752-8.692986m-618.619296 484.143559c-4.096295 10.091846-12.814864 19.584034-23.982204 26.180266-19.085684 11.392468-43.767829 10.5421-49.863664-0.100284-5.968945-10.441816 3.247974-31.576159 24.558325-44.168966 9.317203-5.544273 19.685341-8.592702 29.102828-8.592702 9.866718 0 17.612123 3.297093 20.709671 8.745175 3.472078 5.945409 1.173732 13.791098-0.524956 17.936511m-89.134063-201.553459c-26.705222 0-43.066865-13.288654-43.066865-20.583804 0-7.243985 16.338107-20.635993 43.066865-20.635993 26.705222 0 43.018769 13.390985 43.018769 20.635993 0.024559 7.245008-16.313547 20.583804-43.018769 20.583804m908.006196-232.626151C960.041828 82.817194 766.98488 29.955242 758.815827 27.807323c-0.449231-0.100284-0.949628-0.100284-1.424442-0.198522-1.62501-0.401136-3.322675-0.600681-5.046947-0.649799-0.450255-0.051165-0.998747-0.200568-1.474584-0.200568H378.620735c-8.394181 0-16.438391 3.397377-22.433942 9.444093-5.944386 6.04467-9.267061 14.287401-9.267061 22.832008l0.050142 442.073394a25500.725996 25500.725996 0 0 0-67.726497 34.374902l-71.522963-14.588254c5.77247-10.543124 9.06854-22.284539 9.068539-34.825156 0-47.76384-46.765093-85.138052-106.470917-85.138052-59.705823 0-106.446357 37.373189-106.446357 85.138052 0 45.016263 41.643446 80.84119 96.42819 84.786035l100.177583 21.735024-47.490617 27.578102 0.174985 0.151449c-12.016685 2.847861-23.781636 7.393387-34.898834 13.989619-51.612495 30.577413-72.447009 88.73395-47.440476 132.453684 14.588253 25.530466 42.842761 40.769542 75.568093 40.769543 20.759813 0 41.894156-5.995551 61.031005-17.288759 23.208585-13.788028 41.194214-34.126238 50.612725-57.307193 10.5421-25.781176 9.367345-53.261041-3.173273-75.19561a77.528748 77.528748 0 0 0-5.695722-8.493441l46.466288-26.930349c79.690994 6.64535 337.725838 28.079522 383.492184 30.878264 54.286394 3.297093 51.562353-80.59048 51.562353-80.590479L395.558499 553.96988l14.838964-8.592702s0.473791-6.845918 0-15.839756l-0.074702-438.175621h319.713602c14.81645 38.071084 34.626635 108.120486 19.810185 160.232354-3.071965 10.741645-0.448208 22.282492 6.895037 30.577413 7.345292 8.292873 18.362206 12.139481 29.15297 10.191106 29.080316-5.395894 111.618147-11.340279 170.448021 17.287735v430.385191L494.885715 921.399227l-65.152882-178.069604 216.691227-71.197553c-14.21577-2.047636-28.603455-4.396123-41.044811-5.295609-31.027667-2.349511-109.120256-5.496178-130.029472-6.344499l-96.627735 31.775705c-8.245801 2.648316-15.064091 8.692986-18.812461 16.638958-3.77293 7.941879-4.172019 17.086144-1.198291 25.329899l87.960331 240.373602c2.947122 8.094352 8.968256 14.641465 16.712636 18.137079a31.106462 31.106462 0 0 0 12.990873 2.847862c3.872191 0 7.768941-0.699941 11.441586-2.148943l511.673566-201.201442c12.216229-4.797259 20.284999-16.739243 20.284998-30.079062V283.620569c-0.001023-3.248997-0.451278-6.495948-1.425465-9.593495" fill="#6B6F80" p-id="68335"></path></svg>