<?xml version="1.0" standalone="no"?><!DOCTYPE svg PUBLIC "-//W3C//DTD SVG 1.1//EN" "http://www.w3.org/Graphics/SVG/1.1/DTD/svg11.dtd"><svg t="1767347329659" class="icon" viewBox="0 0 1024 1024" version="1.1" xmlns="http://www.w3.org/2000/svg" p-id="83855" xmlns:xlink="http://www.w3.org/1999/xlink" width="16" height="16"><path d="M512 1024A512 512 0 1 1 512 0a512 512 0 0 1 0 1024z m261.184-727.232l-39.104 31.36a288.192 288.192 0 0 0-229.44-114.816c-160.896 0-291.072 133.376-291.328 298.304-0.192 165.12 130.304 299.072 291.328 299.072 125.76 0 232.96-81.792 273.728-196.352a5.76 5.76 0 0 0-3.456-7.36l-39.296-13.824a5.504 5.504 0 0 0-7.04 3.392 243.776 243.776 0 0 1-131.008 140.864c-29.376 12.8-60.608 19.2-92.8 19.2-32.256 0-63.488-6.4-92.8-19.2a243.776 243.776 0 0 1-126.912-130.304A248.64 248.64 0 0 1 266.176 512c0-33.088 6.336-65.088 18.752-95.232a243.776 243.776 0 0 1 126.912-130.24c29.376-12.8 60.672-19.2 92.8-19.2 32.32 0 63.488 6.4 92.8 19.2 28.416 12.288 53.952 29.888 75.904 52.48 6.848 7.04 13.312 14.464 19.2 22.272l-41.728 33.472c-3.648 2.88-2.368 8.896 2.112 9.984l121.792 30.592a5.632 5.632 0 0 0 6.912-5.44l0.512-128.64c0-4.736-5.376-7.36-8.96-4.48z" fill="#1E89EB" p-id="83856"></path></svg>