<?xml version="1.0" standalone="no"?><!DOCTYPE svg PUBLIC "-//W3C//DTD SVG 1.1//EN" "http://www.w3.org/Graphics/SVG/1.1/DTD/svg11.dtd"><svg t="1768128736160" class="icon" viewBox="0 0 1024 1024" version="1.1" xmlns="http://www.w3.org/2000/svg" p-id="9793" xmlns:xlink="http://www.w3.org/1999/xlink" width="16" height="16"><path d="M64 388.256c0-113.504 0-170.24 22.08-213.6A202.656 202.656 0 0 1 174.656 86.08C218.016 64 274.752 64 388.256 64h247.488c113.504 0 170.24 0 213.6 22.08a202.656 202.656 0 0 1 88.576 88.576c22.08 43.36 22.08 100.096 22.08 213.6v247.488c0 113.504 0 170.24-22.08 213.6a202.656 202.656 0 0 1-88.576 88.576c-43.36 22.08-100.096 22.08-213.6 22.08h-247.488c-113.504 0-170.24 0-213.6-22.08a202.656 202.656 0 0 1-88.576-88.576C64 805.984 64 749.248 64 635.744v-247.488z" fill="#00005B" p-id="9794"></path><path d="M410.112 604.864H270.784l-28.352 93.344a7.232 7.232 0 0 1-7.232 5.76H164.64c-4.032 0-5.44-2.336-4.224-7.04l120.64-366.08c1.184-3.84 2.4-7.584 3.616-12.48 1.568-8.512 2.368-17.184 2.4-25.856-0.32-2.56 1.792-4.832 4.224-4.48H387.2c2.784 0 4.416 1.056 4.8 3.2l136.928 406.336c1.184 4.288 0 6.4-3.616 6.4h-78.4a5.664 5.664 0 0 1-6.08-4.48l-30.72-94.624z m-117.6-78.72h95.264c-15.648-55.2-33.312-109.696-47.648-165.312-16.224 57.696-31.2 111.232-47.616 165.312zM567.232 697.024v-237.44a1103.84 1103.84 0 0 0-1.184-49.76 582.784 582.784 0 0 0-1.216-19.168c-1.12-3.008 1.504-5.312 4.224-5.12h62.72c11.296-0.352 13.216 17.056 13.856 26.208a119.84 119.84 0 0 1 39.808-24.576 130.24 130.24 0 0 1 45.248-8c11.968 0.064 23.872 2.112 35.264 6.08 13.152 4.448 25.152 12.064 35.04 22.272 9.888 10.176 17.408 22.656 21.952 36.448 6.048 16.384 9.056 37.536 9.056 63.488v189.568c0 3.84-1.6 5.76-4.8 5.76h-72.992c-3.456 0.512-6.528-2.72-6.048-6.4v-181.248a83.808 83.808 0 0 0-5.44-32.544c-15.808-39.2-67.2-30.592-91.648-6.4v220.832c0 3.84-1.6 5.76-4.8 5.76h-73.6c-3.136 0.48-5.888-2.464-5.44-5.76z" fill="#9999FF" p-id="9795"></path></svg>