<?xml version="1.0" standalone="no"?><!DOCTYPE svg PUBLIC "-//W3C//DTD SVG 1.1//EN" "http://www.w3.org/Graphics/SVG/1.1/DTD/svg11.dtd"><svg t="1768048155869" class="icon" viewBox="0 0 1024 1024" version="1.1" xmlns="http://www.w3.org/2000/svg" p-id="4628" xmlns:xlink="http://www.w3.org/1999/xlink" width="16" height="16"><path d="M434.663727 552.079383c37.256891 22.579934 55.320838 32.740904 76.771775 32.740904s40.643881-11.289967 76.771775-32.740904l234.831312-135.479604c11.289967-7.902977 18.063947-18.063947 18.063947-29.353914s-7.902977-25.966924-18.063947-32.740904l-238.218302-135.479603c-37.256891-22.579934-55.320838-32.740904-76.771775-32.740904s-40.643881 11.289967-76.771776 32.740904L229.186329 335.312018s-3.38699 0-3.386991 3.38699C155.801544 379.342889 111.770673 457.24366 111.770673 537.402426v7.902976c0 81.287762 44.030871 154.672547 114.028665 198.703418l3.386991 3.38699 128.705622 73.384785c73.384785 44.030871 114.028666 66.610805 154.672547 66.610805s76.771775-22.579934 154.672547-66.610805l135.479603-76.771775c37.256891-22.579934 55.320838-32.740904 66.610805-51.933848 11.289967-18.063947 11.289967-40.643881 11.289967-84.674751v-84.674752c0-11.289967-7.902977-22.579934-18.063947-29.353914-11.289967-7.902977-22.579934-7.902977-32.740904 0L548.692393 654.818082c-18.063947 11.289967-29.353914 14.676957-37.256891 14.676957-11.289967 0-18.063947-3.38699-37.256891-14.676957l-187.413451-110.641676c-14.676957-7.902977-18.063947-7.902977-22.579934-11.289967-7.902977 0-18.063947 3.38699-22.579934 11.289967v32.740904c0 7.902977 7.902977 14.676957 11.289967 22.579934s7.902977 7.902977 14.676957 14.676957l202.090408 117.415656c18.063947 11.289967 29.353914 14.676957 37.256891 14.676957 11.289967 0 18.063947-3.38699 37.256891-14.676957L790.297685 589.336273c7.902977-3.38699 11.289967-7.902977 11.289967-3.38699 3.38699 0 3.38699 3.38699 3.38699 11.289967v37.256891c0 11.289967 0 14.676957-3.38699 22.579934-3.38699 3.38699-7.902977 7.902977-18.063947 11.289967L581.433297 783.523705c-37.256891 22.579934-55.320838 32.740904-76.771776 32.740904s-40.643881-11.289967-76.771775-32.740904L237.089305 672.882029c-37.256891-22.579934-58.707828-66.610805-58.707828-114.028666v-37.256891c0-25.966924 14.676957-47.417861 37.256891-62.094818 18.063947-11.289967 44.030871-11.289967 62.094818 0l156.930541 92.577729z" p-id="4629"></path></svg>