<?xml version="1.0" standalone="no"?><!DOCTYPE svg PUBLIC "-//W3C//DTD SVG 1.1//EN" "http://www.w3.org/Graphics/SVG/1.1/DTD/svg11.dtd"><svg t="1768019219873" class="icon" viewBox="0 0 1044 1024" version="1.1" xmlns="http://www.w3.org/2000/svg" p-id="1778" xmlns:xlink="http://www.w3.org/1999/xlink" width="16.3125" height="16"><path d="M329.728 935.936c-143.36-43.008-153.6-49.152-157.696-106.496-4.096-32.768-16.384-176.128-28.672-317.44S116.736 212.992 108.544 159.744l-12.288-98.304h434.176c237.568 0 432.128 6.144 432.128 16.384-2.048 51.2-81.92 808.96-86.016 813.056-14.336 10.24-339.968 92.16-366.592 90.112-16.384 0-96.256-20.48-180.224-45.056z m38.912-331.776v-92.16h327.68v92.16c0 79.872 6.144 92.16 40.96 92.16 40.96 0 43.008-10.24 36.864-208.896-6.144-182.272-10.24-210.944-40.96-217.088s-36.864 8.192-36.864 86.016v94.208H368.64v-94.208c0-77.824-6.144-92.16-34.816-86.016-32.768 6.144-36.864 34.816-43.008 217.088-6.144 198.656-4.096 208.896 36.864 208.896 34.816 0 40.96-12.288 40.96-92.16z" fill="#1BA036" p-id="1779"></path></svg>