<svg width="48" height="48" viewBox="0 0 48 48" fill="none" xmlns="http://www.w3.org/2000/svg">
<rect width="48.0001" height="48.0001" transform="translate(0 -0.00012207)" fill="url(#paint0_linear_285_1687)"/>
<path d="M31.8086 16.139C32.7618 17.0922 32.7618 18.6377 31.8086 19.5909L19.6043 31.7952C18.6511 32.7484 17.1056 32.7484 16.1524 31.7952C15.1992 30.8419 15.1992 29.2965 16.1524 28.3433L28.3567 16.139C29.3099 15.1858 30.8554 15.1858 31.8086 16.139Z" fill="white" fill-opacity="0.6"/>
<path d="M14.2167 17.6554V30.2785L16.152 28.3431C17.1052 27.3899 18.6507 27.3899 19.6039 28.3431C20.5571 29.2964 20.5571 30.8418 19.6039 31.795L15.5852 35.8138C13.2787 38.1203 9.33496 36.4867 9.33496 33.2249V14.709C9.33496 11.4472 13.2787 9.81363 15.5852 12.1201L33.7435 30.2785V17.6554L31.8082 19.5907C30.855 20.544 29.3095 20.544 28.3563 19.5907C27.4031 18.6375 27.4031 17.0921 28.3563 16.1389L32.375 12.1201C34.6815 9.81363 38.6252 11.4472 38.6252 14.709V33.2249C38.6252 36.4867 34.6815 38.1203 32.375 35.8138L14.2167 17.6554Z" fill="white"/>
<defs>
<linearGradient id="paint0_linear_285_1687" x1="48.0002" y1="60.2546" x2="-10.2643" y2="-2.76465" gradientUnits="userSpaceOnUse">
<stop stop-color="#008899"/>
<stop offset="1" stop-color="#66FF66"/>
</linearGradient>
</defs>
</svg>
