<?xml version="1.0" standalone="no"?><!DOCTYPE svg PUBLIC "-//W3C//DTD SVG 1.1//EN" "http://www.w3.org/Graphics/SVG/1.1/DTD/svg11.dtd"><svg t="1768044372924" class="icon" viewBox="0 0 1123 1024" version="1.1" xmlns="http://www.w3.org/2000/svg" p-id="73819" xmlns:xlink="http://www.w3.org/1999/xlink" width="17.546875" height="16"><path d="M171.2998 80.849h624.732744q171.2998 0 171.2998 171.2998v600.5514Q967.332344 1024 796.032544 1024H171.2998Q0 1024 0 852.7002V252.1488Q0 80.849 171.2998 80.849z m0 0" fill="#001E36" p-id="73820"></path><path d="M217.815484 742.233639V327.574681c0-3.012843 1.309932-4.532365 3.929796-4.532364 6.916441 0 13.243412-0.104795 22.753518-0.327483l30.822698-0.654966 35.053779-0.641867q18.48314-0.327483 36.678094-0.327483 49.318938 0 83.062785 12.32646a144.092514 144.092514 0 0 1 54.191885 33.088881A127.063399 127.063399 0 0 1 513.833905 412.261782a151.742517 151.742517 0 0 1 8.986133 52.240086q0 51.912603-24.011053 85.65645a135.656552 135.656552 0 0 1-64.86783 49.056951c-27.246584 10.178171-57.532211 13.623292-90.84378 13.623292-9.523205 0-16.216957-0.104795-20.120555-0.327483s-9.732794-0.327483-17.51379-0.327483v129.473674a5.239728 5.239728 0 0 1-5.842296 5.842296h-77.285985q-4.545464 0-4.545464-5.239728z m87.647546-341.315868v135.237374q8.435962 0.654966 15.575091 0.641867h21.417387a152.161695 152.161695 0 0 0 46.39779-7.401116 70.002763 70.002763 0 0 0 33.10198-21.417387q12.653943-14.920125 12.653943-41.524843a65.653789 65.653789 0 0 0-9.405312-35.695645 60.545054 60.545054 0 0 0-28.242132-23.028604 120.120759 120.120759 0 0 0-47.35404-8.121578q-15.575091 0-27.587167 0.327483t-16.54444 0.982449z m468.287571 110.636852a151.952106 151.952106 0 0 0-38.616793-13.623292 204.886456 204.886456 0 0 0-45.100957-5.239728 83.835644 83.835644 0 0 0-24.325437 3.039042 21.836566 21.836566 0 0 0-12.653942 8.108479 20.356342 20.356342 0 0 0-3.248631 11.029627 17.238704 17.238704 0 0 0 3.929795 10.38776 44.157806 44.157806 0 0 0 13.610193 10.702144 274.116359 274.116359 0 0 0 28.556517 13.29581 283.259684 283.259684 0 0 1 61.97288 29.525866 94.380597 94.380597 0 0 1 31.805148 33.429463 89.153968 89.153968 0 0 1 9.405311 41.524842 93.201658 93.201658 0 0 1-15.58819 53.471422 102.462877 102.462877 0 0 1-45.100957 36.023129q-29.525866 12.968326-73.002507 12.981425a263.977486 263.977486 0 0 1-54.833751-5.239727 174.915213 174.915213 0 0 1-41.223559-12.90283 8.383564 8.383564 0 0 1-4.532364-7.780996v-70.081359a3.785703 3.785703 0 0 1 1.624315-3.576114 3.156936 3.156936 0 0 1 3.563015 0.327483 173.552883 173.552883 0 0 0 49.960805 19.793072 206.379778 206.379778 0 0 0 47.380238 6.169779q22.688021 0 33.416364-5.855396a18.339047 18.339047 0 0 0 10.702144-16.898122q0-8.422862-9.745894-16.230057t-39.586143-18.810622a239.390063 239.390063 0 0 1-57.427417-29.198383 99.070153 99.070153 0 0 1-30.495215-34.058231 89.49455 89.49455 0 0 1-9.392212-41.249757 93.005168 93.005168 0 0 1 13.623292-48.663972 99.043954 99.043954 0 0 1 42.179809-36.992478q28.543417-14.265159 71.378191-14.278258a315.955585 315.955585 0 0 1 49.973904 3.576114 130.796705 130.796705 0 0 1 34.778693 9.405312 5.907793 5.907793 0 0 1 3.929796 3.563015 17.985366 17.985366 0 0 1 0.654966 4.872946v65.496598a4.362073 4.362073 0 0 1-1.938699 3.929795 6.274574 6.274574 0 0 1-5.59341 0z m0 0" fill="#31A8FF" p-id="73821"></path></svg>