<?xml version="1.0" standalone="no"?><!DOCTYPE svg PUBLIC "-//W3C//DTD SVG 1.1//EN" "http://www.w3.org/Graphics/SVG/1.1/DTD/svg11.dtd"><svg t="1768021880543" class="icon" viewBox="0 0 1024 1024" version="1.1" xmlns="http://www.w3.org/2000/svg" p-id="27118" xmlns:xlink="http://www.w3.org/1999/xlink" width="16" height="16"><path d="M950.044444 321.991111c0-40.96-21.617778-78.506667-56.888888-98.986667l-329.955556-191.146666c-35.271111-20.48-78.506667-20.48-113.777778 0L120.604444 224.142222c-35.271111 20.48-56.888889 58.026667-56.888888 97.848889l-1.137778 378.88c0 40.96 21.617778 78.506667 56.888889 98.986667L450.56 989.866667c35.271111 20.48 78.506667 20.48 113.777778 0l327.68-190.008889c35.271111-20.48 56.888889-58.026667 56.888889-97.848889l1.137777-380.017778z" fill="#621B1C" p-id="27119"></path><path d="M497.208889 77.368889L126.293333 292.408889l53.475556 30.72 326.542222-190.008889 328.817778 190.008889 53.475555-30.72L506.311111 71.68l-9.102222 5.688889z" fill="#C6302B" p-id="27120"></path><path d="M188.871111 327.68l53.475556 30.72L506.311111 204.8l266.24 153.6 53.475556-30.72-319.715556-184.32-317.44 184.32z" fill="#C6302B" p-id="27121"></path><path d="M934.115556 265.102222l-37.546667 21.617778L506.311111 61.44 118.328889 286.72l-38.684445-22.755556c9.102222-15.928889 22.755556-29.582222 38.684445-39.822222l332.231111-193.422222c34.133333-18.204444 75.093333-19.342222 109.226667 0l332.231111 192.284444c18.204444 11.377778 32.995556 25.031111 42.097778 42.097778z" fill="#C6302B" p-id="27122"></path><path d="M507.448889 510.862222V216.177778l259.413333 147.911111-3.413333 294.684444-256-147.911111z" fill="#942524" p-id="27123"></path><path d="M506.311111 807.822222L248.035556 658.773333 506.311111 512l257.137778 147.911111-257.137778 147.911111z" fill="#C6302B" p-id="27124"></path><path d="M62.577778 695.182222l444.871111 257.137778v-61.44L62.577778 633.742222v61.44z m117.191111-361.813333l-53.475556-30.72-1.137777 285.582222 53.475555 30.72 1.137778-285.582222zM63.715556 562.062222v61.44l444.871111 257.137778V819.2L63.715556 562.062222z m178.631111-193.422222l-53.475556-30.72-1.137778 285.582222 53.475556 30.72 1.137778-285.582222z" fill="#912626" p-id="27125"></path><path d="M948.906667 705.422222c-2.275556 38.684444-21.617778 72.817778-53.475556 92.16L564.337778 989.866667c-18.204444 10.24-37.546667 14.791111-58.026667 14.791111v-43.235556L948.906667 705.422222zM506.311111 952.32l441.457778-257.137778v-61.44L507.448889 890.88l-1.137778 61.44z m1.137778-71.68l441.457778-257.137778v-61.44L507.448889 819.2v61.44z m381.155555-579.128889l-53.475555 30.72-1.137778 286.72 53.475556-30.72 1.137777-286.72z m-62.577777 36.408889L773.688889 368.64l-1.137778 286.72 53.475556-30.72V337.92z m124.017777-18.204444l-1.137777 232.106666-53.475556 30.72 1.137778-286.72 40.96-23.893333c7.964444 14.791111 12.515556 31.857778 12.515555 47.786667z" fill="#792021" p-id="27126"></path><path d="M507.448889 962.56v43.235556c-19.342222 0-39.822222-4.551111-56.888889-14.791112L119.466667 799.857778c-34.133333-19.342222-55.751111-54.613333-56.888889-94.435556l444.871111 257.137778zM117.191111 296.96l-1.137778 285.582222-53.475555-30.72 1.137778-229.831111c0-17.066667 4.551111-34.133333 11.377777-48.924444l42.097778 23.893333z" fill="#912626" p-id="27127"></path><path d="M468.764444 568.888889l31.857778 79.644444-137.671111-18.204444-40.96 23.893333 193.422222 111.502222 43.235556-25.031111-129.706667-75.093333L546.133333 683.804444l15.928889-9.102222-31.857778-67.128889L659.911111 681.528889l43.235556-25.031111-193.422223-111.502222-40.96 23.893333z m242.346667-141.084445c-2.275556-15.928889-6.826667-31.857778-14.791111-46.648888-6.826667-14.791111-17.066667-27.306667-28.444444-38.684445s-26.168889-22.755556-44.373334-32.995555L541.582222 261.688889l-1.137778 242.346667 83.057778 47.786666c18.204444 10.24 32.995556 17.066667 44.373334 18.204445 11.377778 2.275556 21.617778 0 28.444444-5.688889 6.826667-5.688889 11.377778-15.928889 14.791111-29.582222 2.275556-13.653333 4.551111-30.72 4.551111-51.2 0-18.204444-1.137778-37.546667-4.551111-55.751112zM666.737778 455.111111c0 12.515556 0 23.893333-2.275556 36.408889-1.137778 9.102222-3.413333 15.928889-6.826666 20.48-3.413333 4.551111-7.964444 6.826667-13.653334 6.826667s-12.515556-3.413333-21.617778-7.964445l-35.271111-20.48V329.955556l35.271111 20.48c7.964444 4.551111 14.791111 10.24 21.617778 17.066666 5.688889 6.826667 10.24 13.653333 12.515556 21.617778 3.413333 9.102222 5.688889 19.342222 6.826666 28.444444 1.137778 11.377778 2.275556 23.893333 2.275556 35.271112 1.137778 1.137778 1.137778 2.275556 1.137778 2.275555z m-328.817778 35.271111l26.168889-14.791111 58.026667 64.853333 52.337777-30.72-59.164444-65.991111c9.102222-6.826667 17.066667-13.653333 25.031111-21.617777 6.826667-6.826667 11.377778-13.653333 15.928889-21.617778 4.551111-7.964444 6.826667-15.928889 7.964444-25.031111 2.275556-10.24 2.275556-20.48 2.275556-30.72 0-14.791111-1.137778-25.031111-4.551111-32.995556-2.275556-7.964444-7.964444-12.515556-14.791111-13.653333-6.826667-1.137778-17.066667 0-28.444445 4.551111-12.515556 4.551111-27.306667 12.515556-45.511111 22.755555l-85.333333 48.924445-1.137778 242.346667 48.924444-28.444445 2.275556-97.848889z m0-105.813333l39.822222-22.755556c1.137778 0 1.137778-1.137778 2.275556-1.137777 5.688889-3.413333 12.515556-6.826667 18.204444-9.102223 5.688889-2.275556 9.102222-3.413333 12.515556-2.275555 3.413333 1.137778 5.688889 3.413333 6.826666 6.826666 1.137778 4.551111 2.275556 10.24 2.275556 18.204445 0 6.826667 0 13.653333-2.275556 19.342222-1.137778 5.688889-3.413333 10.24-6.826666 14.791111s-7.964444 9.102222-12.515556 12.515556c-5.688889 4.551111-12.515556 7.964444-18.204444 11.377778-1.137778 0-1.137778 1.137778-2.275556 1.137777l-39.822222 22.755556v-71.68z" fill="#FFFFFF" p-id="27128"></path></svg>