<?xml version="1.0" standalone="no"?><!DOCTYPE svg PUBLIC "-//W3C//DTD SVG 1.1//EN" "http://www.w3.org/Graphics/SVG/1.1/DTD/svg11.dtd"><svg t="1767331756382" class="icon" viewBox="0 0 1024 1024" version="1.1" xmlns="http://www.w3.org/2000/svg" p-id="17891" xmlns:xlink="http://www.w3.org/1999/xlink" width="16" height="16"><path d="M980.72789334 451.10613333c-0.08192 29.52533333-0.16611555 59.04611555-0.25144888 88.57258667-0.03413333 12.44615111-8.21361778 24.87296-24.55324446 34.36885333l0.25144889-88.57486222c16.33848889-9.49475555 24.51911111-21.92156445 24.55324445-34.36657778zM26.06634667 539.19516445l0.25144888-88.57372445c-0.03527111 12.60885333 8.28757333 25.23591111 24.95146667 34.85696l-0.25144888 88.57258667c-16.66503111-9.61991111-24.98673778-22.24810667-24.95146667-34.85582222z" fill="#D82C20" p-id="17892"></path><path d="M956.17464889 485.47384889l-0.25144889 88.57486222-391.41375999 227.46453334 0.25144889-88.57372445 391.41375999-227.46567111zM445.24188446 712.93838222l-0.2514489 88.57372445-393.97376001-227.46112 0.2514489-88.57258667a70010430.11128889 70010430.11128889 0 0 0 393.97376001 227.45998222zM564.7608889 712.93838222l-0.25144889 88.57372445c-32.89884445 19.11808-86.40512 19.11808-119.51900445 0l0.2514489-88.57372445c33.11388445 19.11808 86.62016 19.11808 119.51900444 0z" fill="#D82C20" p-id="17893"></path><path d="M980.72789334 608.05575111c-0.08192 29.52533333-0.16611555 59.04611555-0.25144888 88.57258667-0.03413333 12.44615111-8.21361778 24.87296-24.55324446 34.36885333l0.25144889-88.57486222c16.33848889-9.49361778 24.51911111-21.92156445 24.55324445-34.36657778zM26.06634667 696.14478222l0.25144888-88.57372444c-0.03527111 12.60771555 8.28757333 25.23591111 24.95146667 34.85582222l-0.25144888 88.57372445c-16.66503111-9.62104889-24.98673778-22.24924445-24.95146667-34.85582223z" fill="#D82C20" p-id="17894"></path><path d="M956.17464889 642.42232889l-0.25144889 88.57486222-391.41375999 227.46453334 0.25144889-88.57372445 391.41375999-227.46567111zM445.24188446 869.888l-0.2514489 88.57372445L51.01667555 730.99946667l0.2514489-88.57372445L445.24188446 869.888zM564.7608889 869.888l-0.25144889 88.57372445c-32.89884445 19.11921778-86.40512 19.11921778-119.51900445 0l0.2514489-88.57372445c33.11388445 19.11921778 86.62016 19.11921778 119.51900444 0z" fill="#D82C20" p-id="17895"></path><path d="M979.9416889 340.57557333l-0.15473779 54.19918222c-0.00113778 0.22755555-0.00455111 0.45511111-0.01137777 0.68266667l0.15473778-54.20032c0.00682667-0.22755555 0.01024-0.45511111 0.01137778-0.68152889" fill="#D82C20" p-id="17896"></path><path d="M979.93144889 341.25710222l-0.15473777 54.20032a26.35776 26.35776 0 0 1-0.5074489 4.44984889l0.1536-54.20032c0.29582222-1.47797333 0.46535111-2.96277333 0.50858667-4.44984889M979.42172445 345.70581333l-0.1536 54.20032a28.35683555 28.35683555 0 0 1-1.25269334 4.36679112l0.1536-54.20032a28.19413333 28.19413333 0 0 0 1.25269334-4.36679112" fill="#D82C20" p-id="17897"></path><path d="M978.17016889 350.07374222l-0.1536 54.20032a31.86119111 31.86119111 0 0 1-2.06620444 4.40888889l0.15018666-54.19918222a31.37194667 31.37194667 0 0 0 2.06961778-4.41002667" fill="#D82C20" p-id="17898"></path><path d="M976.10055111 354.48376889c-0.05006222 18.06563555-0.10126222 36.13240889-0.15018666 54.19918222a36.57386667 36.57386667 0 0 1-3.12206222 4.63530667l0.15473777-54.20032a36.56135111 36.56135111 0 0 0 3.11751111-4.63416889M972.98190222 359.11793778l-0.15473776 54.20032a44.8 44.8 0 0 1-4.81052445 5.17233777l0.1536-54.20032a44.42225778 44.42225778 0 0 0 4.81166222-5.17233777" fill="#D82C20" p-id="17899"></path><path d="M968.17137778 364.29027555l-0.1536 54.20032c-2.77845333 2.56682667-6.05525333 5.00622222-9.82129778 7.27267556l0.1536-54.20032c3.76604445-2.26531555 7.03943111-4.70584889 9.82129778-7.27267556" fill="#D82C20" p-id="17900"></path><path d="M958.35008 371.56181333c-0.0512 18.06677333-0.10012445 36.13354667-0.1536 54.20032-0.31175111 0.18773333-0.62577778 0.37546667-0.94776889 0.55978667l0.1536-54.20032c0.31857778-0.18432 0.63601778-0.37091555 0.94776889-0.55978667" fill="#D82C20" p-id="17901"></path><path d="M48.44416001 372.13070222l-0.15246223 54.20032c-15.29628445-8.83143111-22.93532445-20.42197333-22.90119111-31.99544889l0.15246222-54.19918222c-0.03299555 11.57347555 7.60604445 23.16288 22.90119112 31.99431111" fill="#D82C20" p-id="17902"></path><path d="M957.40231111 372.12273778l-0.1536 54.20032L558.92067555 657.80622222l0.15473778-54.20145777c132.77525333-77.16067555 265.55164445-154.32021333 398.32689778-231.48202667z" fill="#D82C20" p-id="17903"></path><path d="M449.3765689 603.60931555l-0.1536 54.20259556-400.93127112-231.47975111 0.15246223-54.20032 400.93240889 231.47747555z" fill="#D82C20" p-id="17904"></path><path d="M559.07541333 603.60590222l-0.15473778 54.20145778c-5.17688889 3.00600889-10.90446222 5.49774222-17.00067555 7.47292445l0.15587555-54.19804445c6.0928-1.97745778 11.82378667-4.47032889 16.99953778-7.47633778M542.07587555 611.08224l-0.15587555 54.19804445c-4.70698667 1.52917333-9.63128889 2.74545778-14.68757333 3.65909333l0.15473779-54.20259556a112.42723555 112.42723555 0 0 0 14.68871109-3.65454222" fill="#D82C20" p-id="17905"></path><path d="M527.38716446 614.73678222l-0.15473779 54.20259556c-3.24949333 0.58595555-6.55928889 1.04448-9.89297778 1.37671111l0.1536-54.20032c3.33482667-0.33336889 6.64234667-0.79075555 9.89411557-1.37898667M517.49191111 616.11576889l-0.1536 54.20032c-2.85013333 0.28444445-5.72074667 0.47559111-8.60273778 0.57230222l0.15246223-54.19918222a133.21102222 133.21102222 0 0 0 8.60387555-0.57344" fill="#D82C20" p-id="17906"></path><path d="M508.88917333 616.68920889l-0.15246222 54.19918222a134.03022222 134.03022222 0 0 1-7.94510222 0.03868444l0.15246223-54.20032c2.64760889 0.06371555 5.30090667 0.05347555 7.94510221-0.03754666M500.94293334 616.72675555l-0.15246222 54.20032a137.60056889 137.60056889 0 0 1-7.63904001-0.40846222l0.15246222-54.20145778c2.53724445 0.20821333 5.08586667 0.34702222 7.63904001 0.4096" fill="#D82C20" p-id="17907"></path><path d="M493.30389333 616.31715555l-0.15246222 54.20145778a131.96970667 131.96970667 0 0 1-7.54232888-0.84423111l0.15473777-54.20145777c2.49287111 0.35498667 5.00963555 0.63488 7.54005333 0.8442311" fill="#D82C20" p-id="17908"></path><path d="M485.76497778 615.47178667l-0.15473778 54.20145778a123.46026667 123.46026667 0 0 1-7.68910221-1.33575112l0.1536-54.20259555c2.52928 0.52565333 5.09610667 0.97166222 7.69023999 1.33688889" fill="#D82C20" p-id="17909"></path><path d="M478.07473779 614.13603555l-0.1536 54.20259556a114.97813333 114.97813333 0 0 1-8.08960001-1.98428444l0.15246223-54.19918222c2.64419555 0.75207111 5.34528 1.41198222 8.09073778 1.9808711M469.98400001 612.15402667l-0.15246223 54.19918222a101.65020445 101.65020445 0 0 1-9.41852445-3.17895111l0.15473778-54.20032a100.27576889 100.27576889 0 0 0 9.4162489 3.18008889" fill="#D82C20" p-id="17910"></path><path d="M460.56661333 608.97393778c-0.0512 18.06677333-0.10126222 36.13354667-0.15473777 54.20032-3.93898667-1.55648-7.68796445-3.34392889-11.18890666-5.36348445l0.1536-54.20259555c3.50094222 2.02296889 7.24878222 3.80928 11.19004443 5.36576" fill="#D82C20" p-id="17911"></path><path d="M957.04391112 308.58467555L556.11377778 77.1072c-30.39687111-17.55022222-79.50791111-17.55022222-109.69998223-0.00455111L48.08576 308.58467555c-30.19662222 17.54908445-30.03619555 45.99580445 0.35726222 63.54602667l400.93354668 231.47861333c30.38890667 17.54680889 79.50108445 17.54567111 109.69884443-0.00341333 132.77525333-77.16067555 265.55278222-154.32135111 398.32689778-231.48316444 30.18979555-17.54567111 30.02936889-45.99352889-0.35839999-63.53806223zM422.92778668 153.4464l67.75921777 21.54723555 67.30752-39.77329777-21.61095112 56.12999111 63.99431113 25.61592889-81.11559113 13.13336889-27.75153778 55.60775111-28.51839999-48.01194667-81.14631111 8.75633778 63.48458666-42.81685334-22.40284444-50.18851555z m-198.27939556 196.55111111c-14.47936-8.35925333-24.23694222-19.56750222-26.40668444-32.25486222-4.95729778-29.00423111 31.60405333-54.76693333 81.65944888-57.54538667 28.16-1.56330667 54.58716445 4.48056889 73.20689777 15.23143111 14.47936 8.36039111 24.23808 19.56864 26.40554668 32.256 4.95843555 29.00309333-31.59722667 54.77034667-81.65831112 57.54424889-28.16 1.56330667-54.58488889-4.48056889-73.20689777-15.23143111z m291.00373334 186.35548444l-177.01546667-102.20088888 240.81294221-37.40558222-63.79747554 139.6064711zM692.66531555 417.20035555l-146.15210665-84.38101333 145.19978665-84.38442667 146.15438224 84.3832889-145.20206224 84.3821511z" fill="#D82C20" p-id="17912"></path><path d="M980.72789334 451.10613333c-0.08192 29.52533333-0.16611555 59.04611555-0.25144888 88.57258667-0.03413333 12.44615111-8.21361778 24.87296-24.55324446 34.36885333l0.25144889-88.57486222c16.33848889-9.49475555 24.51911111-21.92156445 24.55324445-34.36657778zM26.06634667 539.19516445l0.25144888-88.57372445c-0.03527111 12.60885333 8.28757333 25.23591111 24.95146667 34.85696l-0.25144888 88.57258667c-16.66503111-9.61991111-24.98673778-22.24810667-24.95146667-34.85582222z" fill="#D82C20" p-id="17913"></path><path d="M956.17464889 485.47384889l-0.25144889 88.57486222-391.41375999 227.46453334 0.25144889-88.57372445 391.41375999-227.46567111zM445.24188446 712.93838222l-0.2514489 88.57372445-393.97376001-227.46112 0.2514489-88.57258667a70010430.11128889 70010430.11128889 0 0 0 393.97376001 227.45998222zM564.7608889 712.93838222l-0.25144889 88.57372445c-32.89884445 19.11808-86.40512 19.11808-119.51900445 0l0.2514489-88.57372445c33.11388445 19.11808 86.62016 19.11808 119.51900444 0z" fill="#D82C20" p-id="17914"></path><path d="M980.72789334 608.05575111c-0.08192 29.52533333-0.16611555 59.04611555-0.25144888 88.57258667-0.03413333 12.44615111-8.21361778 24.87296-24.55324446 34.36885333l0.25144889-88.57486222c16.33848889-9.49361778 24.51911111-21.92156445 24.55324445-34.36657778zM26.06634667 696.14478222l0.25144888-88.57372444c-0.03527111 12.60771555 8.28757333 25.23591111 24.95146667 34.85582222l-0.25144888 88.57372445c-16.66503111-9.62104889-24.98673778-22.24924445-24.95146667-34.85582223z" fill="#D82C20" p-id="17915"></path><path d="M956.17464889 642.42232889l-0.25144889 88.57486222-391.41375999 227.46453334 0.25144889-88.57372445 391.41375999-227.46567111zM445.24188446 869.888l-0.2514489 88.57372445L51.01667555 730.99946667l0.2514489-88.57372445L445.24188446 869.888zM564.7608889 869.888l-0.25144889 88.57372445c-32.89884445 19.11921778-86.40512 19.11921778-119.51900445 0l0.2514489-88.57372445c33.11388445 19.11921778 86.62016 19.11921778 119.51900444 0z" fill="#D82C20" p-id="17916"></path><path d="M979.9416889 340.57557333l-0.15473779 54.19918222c-0.00113778 0.22755555-0.00455111 0.45511111-0.01137777 0.68266667l0.15473778-54.20032c0.00682667-0.22755555 0.01024-0.45511111 0.01137778-0.68152889" fill="#D82C20" p-id="17917"></path><path d="M979.93144889 341.25710222l-0.15473777 54.20032a26.35776 26.35776 0 0 1-0.5074489 4.44984889l0.1536-54.20032c0.29582222-1.47797333 0.46535111-2.96277333 0.50858667-4.44984889M979.42172445 345.70581333l-0.1536 54.20032a28.35683555 28.35683555 0 0 1-1.25269334 4.36679112l0.1536-54.20032a28.19413333 28.19413333 0 0 0 1.25269334-4.36679112" fill="#D82C20" p-id="17918"></path><path d="M978.17016889 350.07374222l-0.1536 54.20032a31.86119111 31.86119111 0 0 1-2.06620444 4.40888889l0.15018666-54.19918222a31.37194667 31.37194667 0 0 0 2.06961778-4.41002667" fill="#D82C20" p-id="17919"></path><path d="M976.10055111 354.48376889c-0.05006222 18.06563555-0.10126222 36.13240889-0.15018666 54.19918222a36.57386667 36.57386667 0 0 1-3.12206222 4.63530667l0.15473777-54.20032a36.56135111 36.56135111 0 0 0 3.11751111-4.63416889M972.98190222 359.11793778l-0.15473776 54.20032a44.8 44.8 0 0 1-4.81052445 5.17233777l0.1536-54.20032a44.42225778 44.42225778 0 0 0 4.81166222-5.17233777" fill="#D82C20" p-id="17920"></path><path d="M968.17137778 364.29027555l-0.1536 54.20032c-2.77845333 2.56682667-6.05525333 5.00622222-9.82129778 7.27267556l0.1536-54.20032c3.76604445-2.26531555 7.03943111-4.70584889 9.82129778-7.27267556" fill="#D82C20" p-id="17921"></path><path d="M958.35008 371.56181333c-0.0512 18.06677333-0.10012445 36.13354667-0.1536 54.20032-0.31175111 0.18773333-0.62577778 0.37546667-0.94776889 0.55978667l0.1536-54.20032c0.31857778-0.18432 0.63601778-0.37091555 0.94776889-0.55978667" fill="#D82C20" p-id="17922"></path><path d="M48.44416001 372.13070222l-0.15246223 54.20032c-15.29628445-8.83143111-22.93532445-20.42197333-22.90119111-31.99544889l0.15246222-54.19918222c-0.03299555 11.57347555 7.60604445 23.16288 22.90119112 31.99431111" fill="#D82C20" p-id="17923"></path><path d="M957.40231111 372.12273778l-0.1536 54.20032L558.92067555 657.80622222l0.15473778-54.20145777c132.77525333-77.16067555 265.55164445-154.32021333 398.32689778-231.48202667z" fill="#D82C20" p-id="17924"></path><path d="M449.3765689 603.60931555l-0.1536 54.20259556-400.93127112-231.47975111 0.15246223-54.20032 400.93240889 231.47747555z" fill="#D82C20" p-id="17925"></path><path d="M559.07541333 603.60590222l-0.15473778 54.20145778c-5.17688889 3.00600889-10.90446222 5.49774222-17.00067555 7.47292445l0.15587555-54.19804445c6.0928-1.97745778 11.82378667-4.47032889 16.99953778-7.47633778M542.07587555 611.08224l-0.15587555 54.19804445c-4.70698667 1.52917333-9.63128889 2.74545778-14.68757333 3.65909333l0.15473779-54.20259556a112.42723555 112.42723555 0 0 0 14.68871109-3.65454222" fill="#D82C20" p-id="17926"></path><path d="M527.38716446 614.73678222l-0.15473779 54.20259556c-3.24949333 0.58595555-6.55928889 1.04448-9.89297778 1.37671111l0.1536-54.20032c3.33482667-0.33336889 6.64234667-0.79075555 9.89411557-1.37898667M517.49191111 616.11576889l-0.1536 54.20032c-2.85013333 0.28444445-5.72074667 0.47559111-8.60273778 0.57230222l0.15246223-54.19918222a133.21102222 133.21102222 0 0 0 8.60387555-0.57344" fill="#D82C20" p-id="17927"></path><path d="M508.88917333 616.68920889l-0.15246222 54.19918222a134.03022222 134.03022222 0 0 1-7.94510222 0.03868444l0.15246223-54.20032c2.64760889 0.06371555 5.30090667 0.05347555 7.94510221-0.03754666M500.94293334 616.72675555l-0.15246222 54.20032a137.60056889 137.60056889 0 0 1-7.63904001-0.40846222l0.15246222-54.20145778c2.53724445 0.20821333 5.08586667 0.34702222 7.63904001 0.4096" fill="#D82C20" p-id="17928"></path><path d="M493.30389333 616.31715555l-0.15246222 54.20145778a131.96970667 131.96970667 0 0 1-7.54232888-0.84423111l0.15473777-54.20145777c2.49287111 0.35498667 5.00963555 0.63488 7.54005333 0.8442311" fill="#D82C20" p-id="17929"></path><path d="M485.76497778 615.47178667l-0.15473778 54.20145778a123.46026667 123.46026667 0 0 1-7.68910221-1.33575112l0.1536-54.20259555c2.52928 0.52565333 5.09610667 0.97166222 7.69023999 1.33688889" fill="#D82C20" p-id="17930"></path><path d="M478.07473779 614.13603555l-0.1536 54.20259556a114.97813333 114.97813333 0 0 1-8.08960001-1.98428444l0.15246223-54.19918222c2.64419555 0.75207111 5.34528 1.41198222 8.09073778 1.9808711M469.98400001 612.15402667l-0.15246223 54.19918222a101.65020445 101.65020445 0 0 1-9.41852445-3.17895111l0.15473778-54.20032a100.27576889 100.27576889 0 0 0 9.4162489 3.18008889" fill="#D82C20" p-id="17931"></path><path d="M460.56661333 608.97393778c-0.0512 18.06677333-0.10126222 36.13354667-0.15473777 54.20032-3.93898667-1.55648-7.68796445-3.34392889-11.18890666-5.36348445l0.1536-54.20259555c3.50094222 2.02296889 7.24878222 3.80928 11.19004443 5.36576" fill="#D82C20" p-id="17932"></path><path d="M957.04391112 308.58467555L556.11377778 77.1072c-30.39687111-17.55022222-79.50791111-17.55022222-109.69998223-0.00455111L48.08576 308.58467555c-30.19662222 17.54908445-30.03619555 45.99580445 0.35726222 63.54602667l400.93354668 231.47861333c30.38890667 17.54680889 79.50108445 17.54567111 109.69884443-0.00341333 132.77525333-77.16067555 265.55278222-154.32135111 398.32689778-231.48316444 30.18979555-17.54567111 30.02936889-45.99352889-0.35839999-63.53806223zM422.92778668 153.4464l67.75921777 21.54723555 67.30752-39.77329777-21.61095112 56.12999111 63.99431113 25.61592889-81.11559113 13.13336889-27.75153778 55.60775111-28.51839999-48.01194667-81.14631111 8.75633778 63.48458666-42.81685334-22.40284444-50.18851555z m-198.27939556 196.55111111c-14.47936-8.35925333-24.23694222-19.56750222-26.40668444-32.25486222-4.95729778-29.00423111 31.60405333-54.76693333 81.65944888-57.54538667 28.16-1.56330667 54.58716445 4.48056889 73.20689777 15.23143111 14.47936 8.36039111 24.23808 19.56864 26.40554668 32.256 4.95843555 29.00309333-31.59722667 54.77034667-81.65831112 57.54424889-28.16 1.56330667-54.58488889-4.48056889-73.20689777-15.23143111z m291.00373334 186.35548444l-177.01546667-102.20088888 240.81294221-37.40558222-63.79747554 139.6064711zM692.66531555 417.20035555l-146.15210665-84.38101333 145.19978665-84.38442667 146.15438224 84.3832889-145.20206224 84.3821511z" fill="#D82C20" p-id="17933"></path><path d="M980.72789334 451.10613333c-0.08192 29.52533333-0.16611555 59.04611555-0.25144888 88.57258667-0.03413333 12.44615111-8.21361778 24.87296-24.55324446 34.36885333l0.25144889-88.57486222c16.33848889-9.49475555 24.51911111-21.92156445 24.55324445-34.36657778zM26.06634667 539.19516445l0.25144888-88.57372445c-0.03527111 12.60885333 8.28757333 25.23591111 24.95146667 34.85696l-0.25144888 88.57258667c-16.66503111-9.61991111-24.98673778-22.24810667-24.95146667-34.85582222z" fill="#D82C20" p-id="17934"></path><path d="M956.17464889 485.47384889l-0.25144889 88.57486222-391.41375999 227.46453334 0.25144889-88.57372445 391.41375999-227.46567111zM445.24188446 712.93838222l-0.2514489 88.57372445-393.97376001-227.46112 0.2514489-88.57258667a70010430.11128889 70010430.11128889 0 0 0 393.97376001 227.45998222zM564.7608889 712.93838222l-0.25144889 88.57372445c-32.89884445 19.11808-86.40512 19.11808-119.51900445 0l0.2514489-88.57372445c33.11388445 19.11808 86.62016 19.11808 119.51900444 0z" fill="#D82C20" p-id="17935"></path><path d="M980.72789334 608.05575111c-0.08192 29.52533333-0.16611555 59.04611555-0.25144888 88.57258667-0.03413333 12.44615111-8.21361778 24.87296-24.55324446 34.36885333l0.25144889-88.57486222c16.33848889-9.49361778 24.51911111-21.92156445 24.55324445-34.36657778zM26.06634667 696.14478222l0.25144888-88.57372444c-0.03527111 12.60771555 8.28757333 25.23591111 24.95146667 34.85582222l-0.25144888 88.57372445c-16.66503111-9.62104889-24.98673778-22.24924445-24.95146667-34.85582223z" fill="#D82C20" p-id="17936"></path><path d="M956.17464889 642.42232889l-0.25144889 88.57486222-391.41375999 227.46453334 0.25144889-88.57372445 391.41375999-227.46567111zM445.24188446 869.888l-0.2514489 88.57372445L51.01667555 730.99946667l0.2514489-88.57372445L445.24188446 869.888zM564.7608889 869.888l-0.25144889 88.57372445c-32.89884445 19.11921778-86.40512 19.11921778-119.51900445 0l0.2514489-88.57372445c33.11388445 19.11921778 86.62016 19.11921778 119.51900444 0z" fill="#D82C20" p-id="17937"></path><path d="M979.9416889 340.57557333l-0.15473779 54.19918222c-0.00113778 0.22755555-0.00455111 0.45511111-0.01137777 0.68266667l0.15473778-54.20032c0.00682667-0.22755555 0.01024-0.45511111 0.01137778-0.68152889" fill="#D82C20" p-id="17938"></path><path d="M979.93144889 341.25710222l-0.15473777 54.20032a26.35776 26.35776 0 0 1-0.5074489 4.44984889l0.1536-54.20032c0.29582222-1.47797333 0.46535111-2.96277333 0.50858667-4.44984889M979.42172445 345.70581333l-0.1536 54.20032a28.35683555 28.35683555 0 0 1-1.25269334 4.36679112l0.1536-54.20032a28.19413333 28.19413333 0 0 0 1.25269334-4.36679112" fill="#D82C20" p-id="17939"></path><path d="M978.17016889 350.07374222l-0.1536 54.20032a31.86119111 31.86119111 0 0 1-2.06620444 4.40888889l0.15018666-54.19918222a31.37194667 31.37194667 0 0 0 2.06961778-4.41002667" fill="#D82C20" p-id="17940"></path><path d="M976.10055111 354.48376889c-0.05006222 18.06563555-0.10126222 36.13240889-0.15018666 54.19918222a36.57386667 36.57386667 0 0 1-3.12206222 4.63530667l0.15473777-54.20032a36.56135111 36.56135111 0 0 0 3.11751111-4.63416889M972.98190222 359.11793778l-0.15473776 54.20032a44.8 44.8 0 0 1-4.81052445 5.17233777l0.1536-54.20032a44.42225778 44.42225778 0 0 0 4.81166222-5.17233777" fill="#D82C20" p-id="17941"></path><path d="M968.17137778 364.29027555l-0.1536 54.20032c-2.77845333 2.56682667-6.05525333 5.00622222-9.82129778 7.27267556l0.1536-54.20032c3.76604445-2.26531555 7.03943111-4.70584889 9.82129778-7.27267556" fill="#D82C20" p-id="17942"></path><path d="M958.35008 371.56181333c-0.0512 18.06677333-0.10012445 36.13354667-0.1536 54.20032-0.31175111 0.18773333-0.62577778 0.37546667-0.94776889 0.55978667l0.1536-54.20032c0.31857778-0.18432 0.63601778-0.37091555 0.94776889-0.55978667" fill="#D82C20" p-id="17943"></path><path d="M48.44416001 372.13070222l-0.15246223 54.20032c-15.29628445-8.83143111-22.93532445-20.42197333-22.90119111-31.99544889l0.15246222-54.19918222c-0.03299555 11.57347555 7.60604445 23.16288 22.90119112 31.99431111" fill="#D82C20" p-id="17944"></path><path d="M957.40231111 372.12273778l-0.1536 54.20032L558.92067555 657.80622222l0.15473778-54.20145777c132.77525333-77.16067555 265.55164445-154.32021333 398.32689778-231.48202667z" fill="#D82C20" p-id="17945"></path><path d="M449.3765689 603.60931555l-0.1536 54.20259556-400.93127112-231.47975111 0.15246223-54.20032 400.93240889 231.47747555z" fill="#D82C20" p-id="17946"></path><path d="M559.07541333 603.60590222l-0.15473778 54.20145778c-5.17688889 3.00600889-10.90446222 5.49774222-17.00067555 7.47292445l0.15587555-54.19804445c6.0928-1.97745778 11.82378667-4.47032889 16.99953778-7.47633778M542.07587555 611.08224l-0.15587555 54.19804445c-4.70698667 1.52917333-9.63128889 2.74545778-14.68757333 3.65909333l0.15473779-54.20259556a112.42723555 112.42723555 0 0 0 14.68871109-3.65454222" fill="#D82C20" p-id="17947"></path><path d="M527.38716446 614.73678222l-0.15473779 54.20259556c-3.24949333 0.58595555-6.55928889 1.04448-9.89297778 1.37671111l0.1536-54.20032c3.33482667-0.33336889 6.64234667-0.79075555 9.89411557-1.37898667M517.49191111 616.11576889l-0.1536 54.20032c-2.85013333 0.28444445-5.72074667 0.47559111-8.60273778 0.57230222l0.15246223-54.19918222a133.21102222 133.21102222 0 0 0 8.60387555-0.57344" fill="#D82C20" p-id="17948"></path><path d="M508.88917333 616.68920889l-0.15246222 54.19918222a134.03022222 134.03022222 0 0 1-7.94510222 0.03868444l0.15246223-54.20032c2.64760889 0.06371555 5.30090667 0.05347555 7.94510221-0.03754666M500.94293334 616.72675555l-0.15246222 54.20032a137.60056889 137.60056889 0 0 1-7.63904001-0.40846222l0.15246222-54.20145778c2.53724445 0.20821333 5.08586667 0.34702222 7.63904001 0.4096" fill="#D82C20" p-id="17949"></path><path d="M493.30389333 616.31715555l-0.15246222 54.20145778a131.96970667 131.96970667 0 0 1-7.54232888-0.84423111l0.15473777-54.20145777c2.49287111 0.35498667 5.00963555 0.63488 7.54005333 0.8442311" fill="#D82C20" p-id="17950"></path><path d="M485.76497778 615.47178667l-0.15473778 54.20145778a123.46026667 123.46026667 0 0 1-7.68910221-1.33575112l0.1536-54.20259555c2.52928 0.52565333 5.09610667 0.97166222 7.69023999 1.33688889" fill="#D82C20" p-id="17951"></path><path d="M478.07473779 614.13603555l-0.1536 54.20259556a114.97813333 114.97813333 0 0 1-8.08960001-1.98428444l0.15246223-54.19918222c2.64419555 0.75207111 5.34528 1.41198222 8.09073778 1.9808711M469.98400001 612.15402667l-0.15246223 54.19918222a101.65020445 101.65020445 0 0 1-9.41852445-3.17895111l0.15473778-54.20032a100.27576889 100.27576889 0 0 0 9.4162489 3.18008889" fill="#D82C20" p-id="17952"></path><path d="M460.56661333 608.97393778c-0.0512 18.06677333-0.10126222 36.13354667-0.15473777 54.20032-3.93898667-1.55648-7.68796445-3.34392889-11.18890666-5.36348445l0.1536-54.20259555c3.50094222 2.02296889 7.24878222 3.80928 11.19004443 5.36576" fill="#D82C20" p-id="17953"></path><path d="M957.04391112 308.58467555L556.11377778 77.1072c-30.39687111-17.55022222-79.50791111-17.55022222-109.69998223-0.00455111L48.08576 308.58467555c-30.19662222 17.54908445-30.03619555 45.99580445 0.35726222 63.54602667l400.93354668 231.47861333c30.38890667 17.54680889 79.50108445 17.54567111 109.69884443-0.00341333 132.77525333-77.16067555 265.55278222-154.32135111 398.32689778-231.48316444 30.18979555-17.54567111 30.02936889-45.99352889-0.35839999-63.53806223zM422.92778668 153.4464l67.75921777 21.54723555 67.30752-39.77329777-21.61095112 56.12999111 63.99431113 25.61592889-81.11559113 13.13336889-27.75153778 55.60775111-28.51839999-48.01194667-81.14631111 8.75633778 63.48458666-42.81685334-22.40284444-50.18851555z m-198.27939556 196.55111111c-14.47936-8.35925333-24.23694222-19.56750222-26.40668444-32.25486222-4.95729778-29.00423111 31.60405333-54.76693333 81.65944888-57.54538667 28.16-1.56330667 54.58716445 4.48056889 73.20689777 15.23143111 14.47936 8.36039111 24.23808 19.56864 26.40554668 32.256 4.95843555 29.00309333-31.59722667 54.77034667-81.65831112 57.54424889-28.16 1.56330667-54.58488889-4.48056889-73.20689777-15.23143111z m291.00373334 186.35548444l-177.01546667-102.20088888 240.81294221-37.40558222-63.79747554 139.6064711zM692.66531555 417.20035555l-146.15210665-84.38101333 145.19978665-84.38442667 146.15438224 84.3832889-145.20206224 84.3821511z" fill="#D82C20" p-id="17954"></path></svg>