<?xml version="1.0" standalone="no"?><!DOCTYPE svg PUBLIC "-//W3C//DTD SVG 1.1//EN" "http://www.w3.org/Graphics/SVG/1.1/DTD/svg11.dtd"><svg t="1767975376623" class="icon" viewBox="0 0 1024 1024" version="1.1" xmlns="http://www.w3.org/2000/svg" p-id="16339" xmlns:xlink="http://www.w3.org/1999/xlink" width="16" height="16"><path d="M182.342979 494.442885l14.627731 75.612147c-28.999583 34.884792-43.54202 78.93857-43.542021 132.20398 0 53.180117 14.499791 98.513288 43.542021 136.04216l-55.824197 33.690692C97.092735 815.783849 79.181228 748.999516 87.497285 671.638865c8.316057-77.360651 39.959719-136.468624 94.88834-177.19598z" fill="#797F52" p-id="16340"></path><path d="M172.321064 522.632185l-0.980868 0.895576c-39.021497 36.931821-61.879992 86.61493-68.660776 149.731668-7.249896 67.637262 6.396967 126.233478 41.02588 176.47099l1.407332 2.04703 29.895158-18.082093-0.59705-0.852929c-23.626131-36.377418-35.652428-78.895924-36.206832-127.256992v-3.369069c0-53.393349 13.902741-98.683874 41.793517-135.359817l0.682343-0.852929-8.358704-43.371435z" fill="#959B6F" p-id="16341"></path><path d="M224.733546 439.173092c-30.876026 17.27181-50.493391 34.628913-58.852095 52.028663-12.495408 26.056978-10.576318 46.697857-3.198483 66.784333 7.377835 20.043829 47.124322 34.799499 54.58745 46.058161 4.946988 7.548421 15.864478-5.970502 32.752469-40.599416l-25.289341-124.271741zM196.97071 831.477741c-10.448379-9.766036-25.246696-8.614582-44.309657 3.497008-19.062961 12.068944-24.308474 27.720189-15.736538 46.996383l60.046195-50.493391z" fill="#009425" p-id="16342"></path><path d="M209.849936 818.726454c25.758453-4.861695 50.578684 5.117573 68.575484 17.058578l2.558787 1.705858 4.904341 3.582301 2.260261 1.748504 2.132323 1.791151 1.066161 0.852929 1.961736 1.748504 1.833797 1.705858 1.705858 1.705858c0.59705 0.511757 1.108808 1.066161 1.620565 1.620565l1.449979 1.535272 0.682343 0.767636 1.279394 1.449979 0.554404 0.682343 1.023514 1.364686 0.852929 1.194101 0.426465 0.59705c8.443996 13.390984 2.473494 33.520106-4.648463 45.887575-6.994017 12.11159-35.396549 23.540838-54.160985 7.633714l-0.980868-0.852929c-18.764436-17.229164-31.131905-14.627731-39.23473 2.302908-6.183735 12.793934 0.682343 20.385001 15.907124 26.611382l2.260262 0.895575 2.388201 0.895575 2.558786 0.852929 2.558787 0.852929 2.772019 0.852929 4.264644 1.279393c26.39815 7.633714 30.876026 48.872826 10.661612 63.841729l-0.852929 0.59705-1.620565 1.151454-1.705858 1.108808a64.822597 64.822597 0 0 1-1.833797 1.066161l-1.876444 1.066161-1.876443 0.980868c-21.10999 10.448379-52.753653 11.813065-86.785516-19.91589-32.411298-30.278976-36.803882-64.054961-31.856895-91.945736l0.511758-2.899958 0.980868-4.264644 0.682343-2.772019 0.767636-2.772019 0.767636-2.686726 0.852929-2.601433c10.021915-30.278976 40.002366-59.875609 84.610547-68.276959z" fill="#009425" p-id="16343"></path><path d="M263.371225 844.399614c-17.058578-9.59545-34.543621-13.689509-50.706623-10.661611-36.249478 6.823431-63.799082 30.364269-72.968068 58.084458-11.429247 34.543621-6.226381 66.443162 23.199666 93.907472 28.91429 26.952553 56.463893 28.146654 77.147419 12.879226 10.91749-8.102825 7.335189-33.050995-5.799916-36.846528-16.845346-4.861695-27.379018-9.254279-34.970085-15.651245-11.51454-9.808682-14.201266-23.583484-7.292542-37.955337 13.220398-27.634896 38.168568-29.980451 63.244678-6.95137 4.691109 4.264645 11.130722 5.629331 18.423264 4.051412 6.396967-1.407333 11.941005-4.946988 13.263045-7.207249 6.48226-11.216015 8.571935-24.308474 4.946987-30.023098-3.710241-5.799917-15.438013-16.205649-28.487825-23.583484z" fill="#00B144" p-id="16344"></path><path d="M841.571728 494.442885c54.928621 40.770002 86.572284 99.792682 94.845694 177.19598 8.316057 77.360651-7.889592 153.31397-65.888758 216.260123l-2.302908 2.473494-1.108807 1.151454-2.217615 2.260261c-1.108808 1.066161-2.132322 2.132322-3.198484 3.070544l-2.047029 1.91909-2.004383 1.705858a92.713372 92.713372 0 0 1-0.980868 0.852929l-1.91909 1.535272c-17.612982 13.646862-27.634896 8.9984-30.108391-14.073327l-0.213232-2.51614-0.085293-1.279393-0.170586-2.772019-0.085292-2.899959v-2.985251-1.620565l0.042646-3.241129 0.042646-1.663212 0.170586-3.411715 0.170586-3.624948 0.255879-3.710241 0.341171-3.880827 0.170586-2.004382 0.426464-4.094059 0.426465-4.221998 0.554404-4.349938 0.255878-2.217615c29.042229-37.528872 43.584667-82.862043 43.584667-136.04216 0-52.156602-13.945388-95.528037-41.793516-130.071658l-1.791151-2.132322 14.627731-75.612147z" fill="#797F52" p-id="16345"></path><path d="M851.636289 522.632185l-8.40135 43.371435 0.682344 0.852929c27.336371 35.908307 41.281759 80.13267 41.793516 132.118687l0.042646 3.24113c0 54.246278-14.371852 101.285307-43.072909 140.562683l-1.108808 1.449979-0.298525 2.388201-0.426464 4.392584-0.426465 4.179351-0.341172 4.008766-0.170585 1.961737-0.213233 3.710241-0.213232 3.582301-0.127939 3.326423-0.042647 3.155837v7.079309l0.12794 2.430848 0.170586 2.260261 0.213232 2.04703 0.213232 1.833797 0.426464 2.388201 0.255879 0.980868 0.298525-0.127939c4.221998-2.473494 10.021915-7.420481 16.973285-14.88361l1.32204-1.407332c51.175734-55.525672 70.53722-124.484973 61.965285-204.276473-6.780785-63.116739-29.639279-112.799847-68.660777-149.689022l-0.980868-0.938222z" fill="#959B6F" p-id="16346"></path><path d="M796.579728 439.173092c30.876026 17.27181 50.493391 34.628913 58.852095 52.028663 12.495408 26.056978 10.576318 46.697857 3.198483 66.784333-7.377835 20.043829-47.124322 34.799499-54.58745 46.058161-4.989634 7.548421-15.907124-5.970502-32.75247-40.599416l25.289342-124.271741zM818.500001 831.477741c10.448379-9.766036 25.246696-8.614582 44.352303 3.497008 19.062961 12.068944 24.308474 27.720189 15.693892 46.996383l-60.046195-50.493391z" fill="#009425" p-id="16347"></path><path d="M801.995827 818.726454c44.565535 8.40135 74.588633 37.997983 84.610547 68.276959l0.852929 2.601433 0.767636 2.686726 0.767636 2.772019 0.682343 2.772019 0.639697 2.814665c0.426464 1.91909 0.767636 3.83818 1.108807 5.842563l0.426465 2.985251c3.710241 26.952553-1.833797 58.809448-32.539238 87.425213-29.340754 27.379018-56.890358 30.151037-77.445944 23.711423l-2.132322-0.724989a64.822597 64.822597 0 0 1-7.20725-3.027898l-1.91909-0.980868-1.833797-1.066161a64.822597 64.822597 0 0 1-1.79115-1.066161l-1.748505-1.108808-0.852929-0.59705-1.620565-1.151454c-20.214415-14.968902-15.736538-56.208015 10.661612-63.841729l4.264644-1.279393 2.729373-0.852929 2.601433-0.852929 2.558787-0.852929 2.345554-0.852929 2.302908-0.938221c15.224781-6.226381 22.048212-13.774802 15.907124-26.611382-8.102825-16.930639-20.470294-19.532072-39.234729-2.345555-18.764436 17.229164-48.062544 5.586684-55.1845-6.738138-7.121956-12.367469-13.049812-32.496591-4.605816-45.887575a33.178934 33.178934 0 0 1 1.748504-2.473494l1.108807-1.364686 1.279394-1.449979 0.639696-0.767636 1.44998-1.535272 1.620564-1.620565 1.705858-1.705858 1.876444-1.705858 1.961736-1.705858 2.132323-1.79115 1.066161-0.852929 2.260261-1.791151a130.498122 130.498122 0 0 1 4.861695-3.582301l2.558787-1.705858c18.039446-11.941005 42.817031-21.920273 68.575484-17.058578z" fill="#009425" p-id="16348"></path><path d="M799.138515 833.738003c-17.783568-3.369069-37.230347 2.004383-55.355086 13.476276l-1.833797 1.194101-2.473494 1.705857a118.471825 118.471825 0 0 0-2.814665 2.004383l-1.32204 0.980869-2.985251 2.345554-1.91909 1.663212-1.620565 1.364686-1.577918 1.492625-1.449979 1.407333-1.32204 1.279393-1.705858 1.876444-0.895575 1.066161-0.938222 1.151454-0.682343 0.938222a11.813065 11.813065 0 0 0-0.255879 0.341171c-3.624948 5.75727-1.535272 18.764436 4.904341 30.023098 1.32204 2.260262 6.908724 5.799917 13.263045 7.207249 7.335189 1.577918 13.774802 0.213232 18.46591-4.051412 25.07611-23.02908 50.02428-20.683526 63.244678 6.95137 10.1925 21.323223 0.085293 37.1877-22.773201 46.91109l-1.279394 0.59705-2.473493 0.938222-1.791151 0.682343-1.023515 0.383818-2.772019 0.938222-2.814665 0.938222-2.942605 0.895575-4.392584 1.32204c-12.879226 3.710241-16.632114 27.634896-6.695492 36.121539l0.682344 0.554404 1.876443 1.32204 1.535272 1.023514 1.151454 0.682343 1.407333 0.810283 1.705858 0.852929c1.32204 0.682343 2.686726 1.279393 3.966119 1.79115l1.279393 0.426465 1.919091 0.682343c18.892375 5.885209 40.130305 0.554404 62.477042-20.299708 23.114373-21.536455 31.217198-45.759636 28.146653-72.157785l-0.255878-1.833797-0.426465-2.772019a105.763184 105.763184 0 0 0-0.59705-3.326423l-0.298525-1.577918-0.554404-2.473494-0.639697-2.473494-0.639696-2.430847-0.72499-2.388201-0.767636-2.473494c-9.041046-27.165786-35.737721-50.365452-71.006331-57.70064l-2.004383-0.383818z" fill="#00B144" p-id="16349"></path><path d="M512.341172 825.720471c56.080075 0 101.583832 38.808265 101.583832 86.657576 0 47.891958-45.503757 86.657577-101.583832 86.657577-56.080075 0-101.541186-38.808265-101.541186-86.657577 0-47.849311 45.461111-86.657577 101.541186-86.657576z" fill="#797F52" p-id="16350"></path><path d="M512.341172 841.030545c-48.190483 0-86.316405 32.539238-86.316405 71.347502s38.168568 71.390149 86.316405 71.39015c48.190483 0 86.359051-32.581884 86.359051-71.39015 0-38.808265-38.168568-71.347503-86.359051-71.347502z" fill="#959B6F" p-id="16351"></path><path d="M709.154516 790.068043c-9.936622 34.500974-32.112773 66.784333-66.528455 96.850077-33.562752 29.340754-75.69744 47.039029-126.446709 53.052177v0.426465l-1.91909-0.213232-1.91909 0.213232v-0.426465c-50.74927-6.013149-92.841311-23.711424-126.404064-53.052177-34.415681-30.065744-56.591833-62.349103-66.528454-96.850077l194.894254 69.087241 194.894254-69.087241z" fill="#009425" p-id="16352"></path><path d="M512.341172 0c227.774664 213.957215 331.959929 397.678101 312.598442 551.205303-22.43203 177.281272-95.997148 244.790595-141.927369 276.64749l-3.497008 2.430848-1.705858 1.151454-3.369069 2.217615-4.733756 3.070544-9.808682 6.226381-2.388201 1.577918-2.217615 1.492626a121.670308 121.670308 0 0 0-1.066161 0.724989l-1.961737 1.407333-0.852929 0.682343c-29.042229 22.218798-100.560318 39.064144-139.027411 39.064144h-2.132322c-38.936204-0.59705-108.44991-17.229164-136.937736-39.064144l-0.895575-0.682343-1.961736-1.407333-2.132323-1.449979-3.539655-2.345554-9.808682-6.226381-4.691109-3.070544-3.369069-2.217615-3.454362-2.345555c-45.759636-31.345137-120.987965-98.300056-143.675874-277.884237C180.594475 399.170727 282.519479 217.62481 505.560387 6.396967l6.823431-6.396967z" fill="#009425" p-id="16353"></path><path d="M512.341172 21.024697L509.441213 23.75407C294.161958 229.309936 196.629538 404.800057 214.882217 549.286213c12.580701 99.280924 41.75087 169.519619 83.288507 218.776264 15.054195 17.911507 30.876026 32.070127 48.70224 44.778767l2.516141 1.748505 5.544038 3.752887 20.726172 13.646862 4.691109 3.113191 1.279393 0.895575 0.938222 0.682343c11.51454 8.785168 32.880409 17.485043 56.421247 24.095242l5.074927 1.407332c22.090859 5.842563 45.546403 9.808682 64.1829 10.363087l2.132322 0.085293h1.961737c20.427647 0 48.062544-4.691109 73.266592-11.813066l5.032281-1.449979c20.726172-6.183735 39.320022-13.860095 50.237512-21.749687l2.132322-1.620565 2.132323-1.449979 8.657228-5.714624 15.949771-10.491025 4.563169-3.070544 2.772019-1.876444c0.255879-0.213232 0.511757-0.426464 0.767636-0.554404 17.783568-12.708641 33.605399-26.86726 48.702241-44.778767 41.494991-49.256644 70.707806-119.495339 83.24586-218.776264 18.252679-144.486156-79.279742-320.018924-294.51635-525.489497l-2.942604-2.772019z" fill="#00B144" p-id="16354"></path><path d="M507.308891 683.025465h15.182135a5.117573 5.117573 0 0 1 5.117573 5.117574v71.347503a5.117573 5.117573 0 0 1-5.117573 5.117573H507.308891a5.117573 5.117573 0 0 1-5.074927-5.117573v-71.39015a5.117573 5.117573 0 0 1 5.117573-5.117573z m45.631696 0h15.267428a5.117573 5.117573 0 0 1 5.117573 5.117574v52.625713a10.235147 10.235147 0 0 1-3.795534 7.889593l-8.955753 7.335188a7.761653 7.761653 0 0 1-12.665994-6.055795v-61.837346a5.117573 5.117573 0 0 1 5.074927-5.117573z m-76.123904 0h-15.267428a5.117573 5.117573 0 0 0-5.074927 5.117574v52.625713c0 3.070544 1.407333 5.970502 3.752888 7.889593l8.955753 7.335188a7.761653 7.761653 0 0 0 12.708641-6.055795v-61.837346a5.117573 5.117573 0 0 0-5.117574-5.117573z m-60.984417 0h15.267428a5.117573 5.117573 0 0 1 5.117573 5.117574v37.528872a8.40135 8.40135 0 0 1-12.751287 7.207249l-7.761653-4.691109a10.235147 10.235147 0 0 1-4.904341-8.742521v-31.345138a5.117573 5.117573 0 0 1 5.074927-5.117573z m198.092738 0h-15.224781a5.117573 5.117573 0 0 0-5.117573 5.117574v37.528872a8.40135 8.40135 0 0 0 12.70864 7.207249l7.761653-4.691109a10.235147 10.235147 0 0 0 4.946988-8.742521v-31.345138a5.117573 5.117573 0 0 0-5.117574-5.117573z" fill="#007E21" p-id="16355"></path><path d="M375.23285 484.250385a137.620078 137.108321 90 1 0 274.216643 0 137.620078 137.108321 90 1 0-274.216643 0Z" fill="#007C20" p-id="16356"></path><path d="M390.457631 484.250385a122.352651 121.88354 90 1 0 243.767081 0 122.352651 121.88354 90 1 0-243.767081 0Z" fill="#BDFFEE" p-id="16357"></path><path d="M410.757339 484.250385a101.925004 101.583832 90 1 0 203.167665 0 101.925004 101.583832 90 1 0-203.167665 0Z" fill="#82E0B3" p-id="16358"></path><path d="M461.549255 479.132811a45.887575 45.716989 90 1 0 91.433979 0 45.887575 45.716989 90 1 0-91.433979 0Z" fill="#63CB85" p-id="16359"></path><path d="M439.245165 448.55531a42.646445 42.646445 0 1 0 85.29289 0 42.646445 42.646445 0 1 0-85.29289 0Z" fill="#C9F2DF" p-id="16360"></path></svg>