<?xml version="1.0" standalone="no"?><!DOCTYPE svg PUBLIC "-//W3C//DTD SVG 1.1//EN" "http://www.w3.org/Graphics/SVG/1.1/DTD/svg11.dtd"><svg t="1767975710236" class="icon" viewBox="0 0 1024 1024" version="1.1" xmlns="http://www.w3.org/2000/svg" p-id="19310" xmlns:xlink="http://www.w3.org/1999/xlink" width="16" height="16"><path d="M251.727011 276.862567c-94.675739-23.754228-152.03559-41.580561-172.164846-53.564292-30.193884-17.911626-64.695088-66.614191 0-75.868532 64.695088-9.25434 104.56978-9.083753 152.41941-40.642333C279.788559 75.228831 358.898242 18.679267 437.965278 18.679267c52.668711 0 111.606491 15.77929 176.728046 47.423163C668.385556 22.048359 719.092518 0 766.942148 0c47.764337 0 90.965474 6.226422 129.560764 18.679267-43.499664 56.123096-68.959761 93.22575-76.422939 111.307964-11.173443 27.080673-24.308636 36.889421-16.418991 52.583417 7.889645 15.693996 121.671119 125.594618 133.484263 255.709789 11.813144 130.072524-57.871612 250.336301-142.440076 318.400481-84.568464 68.106827-187.901489 119.922603-228.373236 129.134297-40.514393 9.169047-52.881944 102.22421-108.322692 124.613743-55.440748 22.389533-121.415238 14.627828-151.52383-12.239612 1.663222-46.783462 18.721914-127.471074 119.453489-158.81642-63.543627-53.351058-94.377212-165.213429-77.361167-200.354334 51.474602 4.43526 116.212337 16.546931 151.77971 56.123096 35.567372 39.576165 67.381832 87.553735 81.583193 87.553735 14.158714 0 76.508232-55.568688 86.871388-158.006132 10.363155-102.394797-46.399642-184.404458-102.480091-222.658574-56.080449-38.296763-40.514393 8.017585-40.514393 36.24972 0 28.189488 24.90569 91.946348 40.514393 101.627156 15.608703 9.723454-84.952285-6.269069-117.363799-101.627156-32.411514-95.358087-21.920419-108.322692-49.68344-126.87402-18.508681-12.367552-67.723006-23.882168-147.557683-34.54385z" fill="#5294E7" p-id="19311"></path></svg>