<?xml version="1.0" standalone="no"?><!DOCTYPE svg PUBLIC "-//W3C//DTD SVG 1.1//EN" "http://www.w3.org/Graphics/SVG/1.1/DTD/svg11.dtd"><svg t="1768110029511" class="icon" viewBox="0 0 1024 1024" version="1.1" xmlns="http://www.w3.org/2000/svg" p-id="4515" xmlns:xlink="http://www.w3.org/1999/xlink" width="16" height="16"><path d="M449.763556 33.905778c90.055111-11.491556 183.580444 2.048 265.557333 41.358222 116.337778 54.385778 208.497778 157.468444 249.969778 278.926222 23.210667 68.835556 32.142222 143.018667 22.243555 215.096889-14.336 125.838222-82.033778 244.167111-182.101333 321.536-82.887111 65.251556-187.960889 101.262222-293.376 101.091556-103.822222 0-207.36-34.986667-289.621333-98.417778-92.785778-70.314667-158.492444-175.559111-180.337778-289.962667-19.114667-94.151111-8.135111-193.877333 29.696-282.112C136.078222 168.277333 284.672 54.158222 449.763556 33.905778m-200.248889 209.976889C176.924444 314.481778 135.111111 415.971556 138.183111 517.233778c0.284444 96.369778 41.472 191.146667 109.340445 259.185778 69.063111 69.347556 166.058667 110.990222 264.192 109.624888 80.668444 1.365333 160.938667-26.339556 225.109333-74.865777 76.003556-56.775111 128.853333-143.587556 144.384-237.226667 12.629333-76.743111 2.218667-157.582222-32.483556-227.498667-46.08-95.345778-134.200889-169.244444-236.316444-197.518222-24.860444 115.143111-49.038222 230.456889-73.557333 345.656889-2.503111 23.438222-8.135111 52.622222 10.183111 71.281778 25.941333 17.863111 62.350222 13.653333 88.689777-1.479111 39.424-23.438222 64.568889-65.024 77.824-107.975111 19.171556-0.170667 38.343111-0.227556 57.571556 0-23.779556 69.006222-58.936889 136.305778-113.265778 186.254222-48.753778 45.112889-115.2 71.509333-181.987555 67.640889-48.241778 1.422222-96.711111-24.746667-119.068445-68.096-27.079111-51.825778-23.552-113.265778-13.255111-169.130667 21.902222-108.316444 46.250667-216.120889 68.209778-324.380444-61.781333 16.725333-119.068444 49.777778-164.238222 95.175111z" fill="#FF7D00" p-id="4516"></path></svg>