<?xml version="1.0" standalone="no"?><!DOCTYPE svg PUBLIC "-//W3C//DTD SVG 1.1//EN" "http://www.w3.org/Graphics/SVG/1.1/DTD/svg11.dtd"><svg t="1768021367402" class="icon" viewBox="0 0 1024 1024" version="1.1" xmlns="http://www.w3.org/2000/svg" p-id="20750" xmlns:xlink="http://www.w3.org/1999/xlink" width="16" height="16"><path d="M935.424 358.4c-8.192 21.504-28.16 21.504-36.352 0s2.048-48.64 17.92-48.64c16.384 0.512 26.624 27.136 18.432 48.64z m41.984-60.416c-14.848 0-24.064 25.6-16.384 46.592 7.168 20.48 25.6 20.48 33.28 0 6.656-20.992-2.56-46.592-16.896-46.592z m12.288 93.184c14.848-15.36 24.064-39.424 24.064-69.632 0-75.776-55.296-108.544-90.624-68.096-26.624-17.408-56.832-4.096-71.168 31.744-22.528 19.968-26.624 27.648-37.376 96.768-14.848 29.696-22.016 64.512-73.728 62.464 21.504-27.648-14.848-63.488-52.224-48.64-9.216-24.576-80.384-67.584-120.832-83.456-75.776-29.184-165.888-24.576-231.424-2.048C245.76 342.016 188.928 422.4 167.936 503.808l-116.736-40.96c-49.664-20.48-66.56-2.56-35.328 28.672 84.992 69.632 114.176 73.728 132.608 95.744-61.952 66.56-60.416 87.552-43.008 149.504 11.776 41.984 121.856 65.024 142.848 53.248 15.36-8.704 31.232-27.136 31.232-31.232 0.512-24.064-51.712-70.144-22.016-111.616 20.992 16.896 84.992 38.4 110.08 41.984-12.8 20.992-14.336 46.592-10.24 67.072 4.096 39.424 61.952 53.76 111.104 61.952 46.592-3.584 91.136 19.968 123.904-31.232 5.632-32.768 0-74.24-18.432-100.352 13.312 4.096 25.6 2.048 38.4-2.56 1.536 48.64 26.112 91.648 66.048 91.136 55.808 4.608 86.016-3.072 112.128-46.08 15.36-44.544-22.528-94.72-76.8-142.336 95.232 6.144 81.92-73.728 143.872-76.288 55.808-1.024 76.288-5.12 85.504-21.504-33.792-4.096-55.296-18.432-72.192-48.128-4.096-7.68 6.656-13.824 11.264-6.144 13.824 24.576 31.744 40.96 75.264 42.496 37.376 1.024 44.544-1.536 63.488-32.768 10.24-16.896-5.632-30.208-31.232-53.248z m-312.832 119.296c-13.824 69.12-53.248 161.792-90.624 153.088-75.776-20.992-149.504-19.968-198.656 2.048-35.84-0.512-68.608-23.04-103.424-31.232-20.992-9.728-60.416-66.048-117.76-65.024-32.768-32.256-35.84-38.4 0.512-38.4 67.072 16.896 86.016 27.648 141.824 68.608 79.872 45.056 143.36-2.56 193.024-6.144 44.032-4.096 72.192 31.232 100.864 18.432 23.552-10.24 37.888-46.592 53.76-107.008 22.528-95.744 50.176-92.672 64.512-78.336-3.072 12.288-29.696 16.384-44.032 83.968z m259.072-142.848c-15.872 47.104-55.808 47.104-72.192 0-15.872-47.104 4.096-106.496 35.84-106.496 32.256 0 52.224 58.88 36.352 106.496z m6.656 20.48c20.992-39.424 17.408-93.184-8.704-124.416 6.656-7.68 14.336-12.8 23.552-12.8 31.744 0 51.712 59.392 35.84 106.496-10.752 32.256-32.768 42.496-50.688 30.72z" fill="#1C487F" p-id="20751"></path></svg>