<?xml version="1.0" standalone="no"?><!DOCTYPE svg PUBLIC "-//W3C//DTD SVG 1.1//EN" "http://www.w3.org/Graphics/SVG/1.1/DTD/svg11.dtd"><svg t="1767972429542" class="icon" viewBox="0 0 1024 1024" version="1.1" xmlns="http://www.w3.org/2000/svg" p-id="7059" xmlns:xlink="http://www.w3.org/1999/xlink" width="16" height="16"><path d="M343.210667 0c16.341333 0 32.384 4.693333 46.08 13.568l18.389333 11.818667-114.304 114.176 173.056 172.8-154.88 154.752-173.056-172.842667-110.208 110.08-9.216-11.136A82.517333 82.517333 0 0 1 0 341.76V84.48C0 37.845333 37.888 0 84.650667 0h258.56z" fill="#005EF2" p-id="7060"></path><path d="M343.210667 0c16.341333 0 32.384 4.693333 46.08 13.568l18.389333 11.818667-114.304 114.176 173.056 172.8-154.88 154.752-173.056-172.842667-110.208 110.08-9.216-11.136A82.517333 82.517333 0 0 1 0 341.76V84.48C0 37.845333 37.888 0 84.650667 0h258.56z m0 12.416h-258.56A72.106667 72.106667 0 0 0 12.458667 83.328v258.261333c0.256 15.530667 5.674667 30.549333 15.36 42.666667l0.853333 1.024 0.469333 0.597333 109.354667-109.226666L311.466667 449.578667l137.301333-137.130667-173.013333-172.8L388.010667 27.434667 382.592 24.021333a72.704 72.704 0 0 0-37.973333-11.562666h-1.408z" fill="#6EACFF" p-id="7061"></path><path d="M582.485333 89.514667a154.24 154.24 0 0 1 154.325334 154.112v183.978666h-87.125334V257.28a79.616 79.616 0 0 0-77.056-78.250667H451.754667a79.616 79.616 0 0 0-78.336 76.928V427.605333H283.733333V243.626667a154.24 154.24 0 0 1 154.325334-154.112h144.384z" fill="#B1B1B1" p-id="7062"></path><path d="M534.101333 97.109333c-1.365333 16.725333-23.893333 28.117333-67.669333 34.133334-65.706667 8.96-107.52 24.618667-120.064 47.786666-8.405333 15.402667-13.141333 37.973333-14.208 67.669334v190.848h-37.205333V217.002667L332.16 140.8l68.608-36.693333 133.333333-6.954667z" fill="#FFFFFF" p-id="7063"></path><path d="M582.485333 89.514667a154.24 154.24 0 0 1 154.325334 154.112v183.978666h-19.925334V243.626667a134.314667 134.314667 0 0 0-132.181333-134.229334h-146.602667a134.357333 134.357333 0 0 0-134.4 132.010667v186.197333H283.733333V243.626667a154.24 154.24 0 0 1 154.325334-154.112h144.384z m-12.288 89.472h1.152c43.008 0.725333 77.653333 35.413333 78.336 78.293333v170.325333h-19.925333V257.578667a59.733333 59.733333 0 0 0-57.770667-58.666667h-119.936A59.733333 59.733333 0 0 0 393.386667 256.597333l-0.042667 0.981334V427.605333H373.333333V257.28a79.616 79.616 0 0 1 78.336-78.208h118.485334z" fill="#979797" p-id="7064"></path><path d="M522.752 437.546667h74.666667v397.781333h-74.666667z" fill="#767676" p-id="7065"></path><path d="M577.493333 437.546667h74.666667v397.781333h-74.666667z" fill="#818181" p-id="7066"></path><path d="M450.56 437.546667h74.666667v397.781333h-74.666667z" fill="#878787" p-id="7067"></path><path d="M400.768 437.546667h74.666667v397.781333h-74.666667z" fill="#525252" p-id="7068"></path><path d="M313.642667 437.546667h97.066666v397.781333H313.642667z" fill="#585858" p-id="7069"></path><path d="M276.309333 437.546667h42.666667v397.781333h-42.666667z" fill="#626262" p-id="7070"></path><path d="M246.442667 437.546667h42.666666v397.781333h-42.666666z" fill="#3A3A3A" p-id="7071"></path><path d="M219.050667 437.546667h42.666666v397.781333h-42.666666z" fill="#1F1F1F" p-id="7072"></path><path d="M652.16 437.546667h62.250667v397.781333h-62.250667z" fill="#BFBFBF" p-id="7073"></path><path d="M699.477333 437.546667h62.250667v397.781333h-62.250667z" fill="#9E9E9E" p-id="7074"></path><path d="M754.218667 437.546667h42.666666v397.781333h-42.666666z" fill="#7B7B7B" p-id="7075"></path><path d="M771.669333 427.605333c20.608 0 37.333333 16.725333 37.333334 37.290667v345.6a37.333333 37.333333 0 0 1-37.333334 37.290667H246.442667a37.333333 37.333333 0 0 1-37.333334-37.290667v-345.6c0-20.565333 16.682667-37.290667 37.333334-37.290667h525.226666z m0 19.925334H246.442667c-9.429333 0-17.109333 7.466667-17.408 16.768V810.496c0 9.386667 7.466667 17.066667 16.810666 17.408h525.824c9.386667 0 17.066667-7.466667 17.408-16.810667V464.896c0-9.386667-7.466667-17.066667-16.810666-17.365333h-0.597334z" fill="#888888" p-id="7076"></path><path d="M680.789333 1024c-16.341333 0-32.384-4.693333-46.08-13.568l-18.389333-11.818667 114.304-114.176-173.056-172.8 154.88-154.752 173.056 172.842667 110.208-110.08 9.216 11.136c12.032 14.506667 18.773333 32.64 19.072 51.413333V939.52A84.565333 84.565333 0 0 1 939.349333 1024h-258.56z" fill="#00DF00" p-id="7077"></path><path d="M712.490667 556.885333l173.013333 172.842667 110.208-110.08 9.216 11.136c12.032 14.506667 18.773333 32.64 19.072 51.413333V939.52A84.565333 84.565333 0 0 1 939.349333 1024h-258.56c-16.341333 0-32.384-4.693333-46.08-13.568l-18.389333-11.818667 114.304-114.176-173.056-172.8 154.88-154.752z m0 17.578667l-137.301334 137.130667 173.013334 172.8-112.213334 112.128 5.418667 3.456c11.349333 7.338667 24.490667 11.306667 37.973333 11.562666h259.968a72.106667 72.106667 0 0 0 72.192-70.869333v-258.261333a70.058667 70.058667 0 0 0-15.36-42.666667l-0.853333-1.024-0.469333-0.597333-109.354667 109.226666-173.013333-172.885333z" fill="#8EFF96" p-id="7078"></path></svg>