<?xml version="1.0" standalone="no"?><!DOCTYPE svg PUBLIC "-//W3C//DTD SVG 1.1//EN" "http://www.w3.org/Graphics/SVG/1.1/DTD/svg11.dtd"><svg t="1767971968608" class="icon" viewBox="0 0 1024 1024" version="1.1" xmlns="http://www.w3.org/2000/svg" p-id="3674" xmlns:xlink="http://www.w3.org/1999/xlink" width="16" height="16"><path d="M915.2 622.9l-5.2 3.2 5.2-3.2-315.4 207.9-154.2 101.6c-36.5-56.8-205.4-310.4-412.7-425l137.6-40.2c-29.9-27.3-63.1-54.1-99.6-79.9l264.7-95.2c-4.7-24.5-9-46.7-13.3-66.5l237.2-73.9 45.1 43.9 263.3-94.7 2.8 34.2 120.5-43.4-76 531.2zM338.4 309.6l-224.9 81.8c213.5 152 289.8 342.4 317.4 450.5-21.4-128.9-61.2-368.2-92.5-532.3z m508-185.7l-229.1 83.6 13.3 13.4 217.3-78.1-1.5-18.9zM716 331.8c-84 0-151.8 72.5-151.8 161.7s52.7 171.4 136.1 174.6c125.2 4.6 172.2-99.3 172.2-188.5 0-89.1-72.6-147.8-156.5-147.8z m0 171s-55.5 67.9-75.9 106.3c0 0-15.7-207.9 4.7-217.2 0.9 0 192.6 7.9 208.7 41.6L772.9 452s73.1 62.4 61.7 124.7c0 0 4.7 51.3-61.7 73.9 0 0-18-108.6-56.9-147.8z" fill="#A4CD13" p-id="3675"></path></svg>