<?xml version="1.0" standalone="no"?><!DOCTYPE svg PUBLIC "-//W3C//DTD SVG 1.1//EN" "http://www.w3.org/Graphics/SVG/1.1/DTD/svg11.dtd"><svg t="1768039102235" class="icon" viewBox="0 0 1024 1024" version="1.1" xmlns="http://www.w3.org/2000/svg" p-id="66638" xmlns:xlink="http://www.w3.org/1999/xlink" width="16" height="16"><path d="M874.666667 938.666667H149.333333c-36.266667 0-64-27.733333-64-64V149.333333c0-36.266667 27.733333-64 64-64h725.333334c36.266667 0 64 27.733333 64 64v725.333334c0 36.266667-27.733333 64-64 64z" fill="#FE2139" p-id="66639"></path><path d="M753.066667 375.466667c0-36.266667-8.533333-44.8-44.8-40.533334-21.333333 2.133333-44.8 6.4-66.133334 10.666667-14.933333 2.133333-29.866667 6.4-44.8 8.533333-19.2 4.266667-23.466667 10.666667-17.066666 27.733334 2.133333 6.4 4.266667 12.8 4.266666 19.2 2.133333 19.2-2.133333 27.733333-17.066666 38.4-34.133333 19.2-76.8 17.066667-108.8-8.533334-25.6-19.2-40.533333-46.933333-53.333334-74.666666-12.8-29.866667-17.066667-32-49.066666-25.6-38.4 6.4-78.933333 12.8-117.333334 19.2-23.466667 4.266667-34.133333 19.2-25.6 42.666666 10.666667 32 32 55.466667 61.866667 70.4 29.866667 17.066667 61.866667 27.733333 93.866667 42.666667 8.533333 4.266667 14.933333 10.666667 23.466666 17.066667-8.533333 6.4-14.933333 12.8-23.466666 14.933333-34.133333 10.666667-68.266667 25.6-98.133334 46.933333-29.866667 21.333333-49.066667 51.2-49.066666 89.6 0 21.333333 4.266667 23.466667 25.6 21.333334 38.4-6.4 74.666667-12.8 113.066666-19.2 19.2-4.266667 25.6-10.666667 27.733334-29.866667v-12.8c6.4-38.4 27.733333-66.133333 66.133333-70.4 78.933333-10.666667 147.2 29.866667 172.8 106.666667 6.4 21.333333 19.2 27.733333 42.666667 23.466666 46.933333-10.666667 91.733333-19.2 138.666666-29.866666 8.533333-2.133333 10.666667-6.4 10.666667-14.933334 0-25.6-10.666667-44.8-25.6-64-29.866667-38.4-70.4-59.733333-113.066667-78.933333-12.8-6.4-27.733333-10.666667-40.533333-19.2-8.533333-4.266667-6.4-10.666667 2.133333-12.8 10.666667-4.266667 23.466667-6.4 36.266667-8.533333 42.666667-10.666667 76.8-42.666667 74.666667-89.6z" fill="#F2F2F2" p-id="66640"></path></svg>