<?xml version="1.0" standalone="no"?><!DOCTYPE svg PUBLIC "-//W3C//DTD SVG 1.1//EN" "http://www.w3.org/Graphics/SVG/1.1/DTD/svg11.dtd"><svg t="1767971785013" class="icon" viewBox="0 0 1024 1024" version="1.1" xmlns="http://www.w3.org/2000/svg" p-id="2663" xmlns:xlink="http://www.w3.org/1999/xlink" width="16" height="16"><path d="M830.464 124.202667c112.128 54.016 190.506667 170.069333 193.536 305.322666h-108.245333c8.021333 40.704 10.581333 84.224 7.68 130.56-6.570667 105.386667-84.266667 214.741333-134.229334 254.208l-3.072 2.346667-3.157333 2.432-3.285333 2.432-3.413334 2.432-3.456 2.432c-1.194667 0.853333-2.389333 1.621333-3.626666 2.432l-3.712 2.474667-3.84 2.474666c-54.442667 34.474667-142.165333 68.522667-268.117334 61.269334-149.888-8.618667-243.84-50.602667-360.234666-170.922667-76.8-79.36-121.088-186.581333-132.949334-321.578667L0 398.421333h289.962667c0.256 22.058667 6.784 48.853333 19.584 80.384l2.005333 4.864 3.2 7.466667 2.261333 5.12 2.389334 5.12 2.432 5.205333 1.28 2.645334 2.602666 5.333333 4.096 8.149333 2.858667 5.546667 1.493333 2.773333 2.986667 5.632 3.114667 5.717334 1.578666 2.858666 3.242667 5.845334 3.370667 5.888 3.413333 5.973333 1.792 2.986667c45.354667 77.226667 132.949333 115.2 194.474667 132.266666l5.034666 1.408 4.949334 1.28 4.778666 1.194667 4.693334 1.109333 2.218666 0.512 4.437334 0.981334 4.266666 0.853333 4.010667 0.853333 3.882667 0.725334 3.712 0.64 3.456 0.597333 3.285333 0.512 1.536 0.213333 2.944 0.426667 2.688 0.341333c42.837333 5.205333 167.466667-10.069333 225.493333-109.696 32.213333-55.253333 44.885333-111.104 37.973334-167.509333l-0.426667 1.706667a319.829333 319.829333 0 0 0-0.682667-4.821334h-0.64v-4.352a266.496 266.496 0 0 0-22.528-71.893333 154.154667 154.154667 0 0 0-13.653333-22.912l-2.090667-2.986667c-29.013333-39.68-89.514667-93.696-173.653333-80.896-61.354667 9.344-91.52 46.378667-105.984 83.413334l-1.194667 3.029333c-0.896 2.56-1.792 5.077333-2.56 7.594667l-0.938666 2.986666-0.853334 2.986667-0.810666 2.986667-0.725334 2.986666a189.738667 189.738667 0 0 0-0.341333 1.450667l-0.682667 2.944-0.597333 2.858667-0.554667 2.858666-0.512 2.816-0.426666 2.773334-0.213334 1.365333-0.512 3.413333-0.426666 3.285334a205.653333 205.653333 0 0 0-0.341334 3.2l-0.256 3.114666-0.128 1.493334-0.256 3.712-0.170666 3.498666-0.128 2.688v2.56l-0.042667 2.432c0 39.168 51.114667 135.808 132.181333 129.749334 53.333333-3.968 83.712-31.061333 91.306667-81.322667-17.066667 28.458667-46.72 47.274667-80.426667 47.274667-52.906667 0-95.829333-46.464-95.829333-103.765334 0-55.168 39.850667-100.309333 90.112-103.552l0.085333-0.170666c44.288-2.688 80.554667 9.642667 108.885334 37.034666 27.605333 26.709333 39.765333 71.466667 43.306666 110.165334l0.341334 4.266666 0.298666 4.181334 0.213334 4.010666c0.256 5.973333 0.341333 11.733333 0.213333 17.152l-0.085333 3.541334-0.170667 3.413333-0.213333 3.413333-0.213334 3.2a151.381333 151.381333 0 0 1-1.237333 10.24c-2.048 13.354667-6.826667 29.184-14.421333 47.530667l-1.834667 4.48-0.981333 2.261333-2.005334 4.565334-2.133333 4.693333-2.261333 4.778667a548.693333 548.693333 0 0 1-2.304 4.906666l-2.474667 4.949334-1.28 2.56-2.56 5.12-2.730667 5.205333-2.816 5.333333c-3.925333 4.138667-7.936 8.106667-12.074666 11.904-45.354667 41.813333-98.517333 58.112-159.402667 55.893334-136.917333-5.12-245.546667-133.461333-242.688-286.72 2.901333-153.173333 116.437333-271.488 258.730667-279.210667 37.76-2.048 71.04 0.725333 99.626666 5.888l4.693334 0.853333c3.925333 0.768 7.722667 1.536 11.434666 2.346667l4.394667 1.024 4.352 1.024 4.224 1.066667 4.138667 1.109333 2.048 0.554667 4.010666 1.109333 3.925334 1.152 3.84 1.152 3.712 1.194667 1.834666 0.597333 3.584 1.194667 3.498667 1.194666 3.413333 1.194667 3.370667 1.237333 3.2 1.194667 3.157333 1.194667 3.029334 1.237333 2.986666 1.194667 4.266667 1.749333 5.290667 2.304 4.992 2.261333 4.565333 2.133334 2.133333 1.024z" fill="#F71919" p-id="2664"></path><path d="M289.962667 398.421333c0.256 22.058667 6.784 48.853333 19.584 80.384l2.005333 4.864 3.2 7.466667 2.261333 5.12 2.389334 5.12 2.432 5.205333 1.28 2.645334 2.602666 5.333333 4.096 8.149333 2.858667 5.546667 1.493333 2.773333 2.986667 5.632 3.114667 5.717334 1.578666 2.858666 3.242667 5.845334 3.370667 5.888 0.938666 1.706666-273.066666 91.989334C34.133333 582.314667 8.832 499.626667 0.341333 402.517333L0 398.421333h289.962667z m440.32-306.517333l4.736 0.853333c3.925333 0.768 7.722667 1.536 11.434666 2.346667l4.394667 1.024 4.352 1.024 4.224 1.066667 4.138667 1.109333 2.048 0.554667 4.010666 1.109333 3.925334 1.152 3.84 1.152 5.546666 1.792 3.584 1.194667 3.498667 1.194666 3.413333 1.194667 3.370667 1.237333 3.2 1.194667 3.157333 1.194667 3.029334 1.237333 2.986666 1.194667 4.266667 1.749333 5.290667 2.304 4.992 2.261333 4.565333 2.133334 2.133333 1.024c85.333333 41.088 151.04 118.016 179.029334 212.053333L856.746667 387.669333a299.733333 299.733333 0 0 0-13.568-34.389333 154.154667 154.154667 0 0 0-13.653334-22.912l-2.090666-2.986667-1.749334-2.346666-1.877333-2.432-1.92-2.474667-2.005333-2.474667a228.650667 228.650667 0 0 0-1.024-1.28l-2.133334-2.474666a230.826667 230.826667 0 0 0-1.066666-1.28l-2.218667-2.517334a231.509333 231.509333 0 0 0-3.498667-3.797333l-2.389333-2.56-2.474667-2.517333-2.56-2.517334-2.602666-2.517333-2.730667-2.474667-2.730667-2.474666a217.6 217.6 0 0 0-7.253333-6.101334l-2.986667-2.389333c-32.426667-25.301333-76.586667-44.458667-130.389333-36.266667-46.250667 6.997333-74.752 29.781333-92.202667 56.362667l-1.621333 2.56a136.96 136.96 0 0 0-1.536 2.474667l-1.450667 2.56-1.450666 2.56-1.322667 2.56-1.28 2.56-1.28 2.645333-1.194667 2.56-0.554666 1.322667-1.109334 2.645333-1.024 2.56-1.194666 3.072c-0.896 2.56-1.792 5.077333-2.56 7.594667l-0.938667 2.986666-0.853333 2.986667-0.810667 2.986667-0.725333 2.986666-0.341334 1.450667-0.682666 2.944-0.597334 2.858667-0.554666 2.858666-0.512 2.816-0.64 4.138667-0.512 3.413333-0.426667 3.285334a205.653333 205.653333 0 0 0-0.341333 3.2l-0.256 3.114666-0.128 1.493334-0.256 3.712-0.170667 3.498666-0.128 2.688v2.56l-0.042667 2.432c0 20.181333 13.568 55.594667 37.802667 84.394667l-153.6 51.754667a302.634667 302.634667 0 0 1-47.36-169.813334c2.858667-153.216 116.394667-271.530667 258.688-279.253333 37.76-2.048 71.04 0.725333 99.626667 5.888z m51.2 232.277333c19.712 19.072 31.573333 47.36 37.973333 76.074667l-204.202667 68.821333a107.264 107.264 0 0 1-32.853333-78.208c0-55.168 39.850667-100.309333 90.112-103.552l0.085333-0.170666c44.288-2.688 80.554667 9.642667 108.885334 37.034666z" fill="#FF8280" opacity=".4" p-id="2665"></path></svg>