<?xml version="1.0" standalone="no"?><!DOCTYPE svg PUBLIC "-//W3C//DTD SVG 1.1//EN" "http://www.w3.org/Graphics/SVG/1.1/DTD/svg11.dtd"><svg t="1768053373570" class="icon" viewBox="0 0 1025 1024" version="1.1" xmlns="http://www.w3.org/2000/svg" p-id="6682" xmlns:xlink="http://www.w3.org/1999/xlink" width="16.015625" height="16"><path d="M70.519874 0.99321h881.970902c19.86421 3.972842 38.735209 12.911736 51.646945 28.803104 11.918526 11.918526 14.898157 27.809893 19.864209 42.708051v405.229874c-11.918526 17.877789-34.762367 23.837051-42.70805 43.701261-7.945684 13.904947-26.816683 14.898157-40.721629 19.864209-7.945684 4.966052-21.85063 6.952473-17.877789 18.870999 5.959263 61.579049-1.986421 128.124151 26.816683 184.737148 16.884578 23.837051 46.680892 33.769156 74.490785 39.728419v166.85936c-4.966052 21.85063-14.898157 42.70805-33.769156 55.619787-10.925315 8.938894-24.830262 11.918526-37.741998 15.891368H358.550912c-5.959263-8.938894 3.972842-17.877789 11.918526-20.85742 15.891368-2.979631 30.789525-9.932105 45.687682-14.898158 9.932105-3.972842 16.884578-12.911736 11.918525-22.843841 16.884578-30.789525 35.755577-60.585839 53.633366-90.382153 0.99321-3.972842 7.945684-7.945684 3.972842-10.925315-10.925315-6.952473-20.85742-15.891368-34.762367-15.891368-14.898157 0-23.837051-11.918526-25.823472-24.830261-15.891368-14.898157-32.775946-28.803104-49.660524-43.701261-6.952473-4.966052 0.99321-10.925315 4.966052-12.911737 10.925315-5.959263 18.870999-16.884578 30.789525-19.864209 21.85063 15.891368 41.71484 34.762367 61.57905 52.640155 3.972842 6.952473-10.925315 13.904947-7.945684 20.85742 3.972842 2.979631 5.959263 6.952473 8.938894 10.925315 13.904947 3.972842 28.803104 1.986421 42.708051 1.986421 14.898157 3.972842 18.870999-12.911736 24.830261-22.843841-1.986421-10.925315 7.945684-17.877789 11.918526-26.816682 7.945684-14.898157 20.85742-23.837051 33.769156-33.769157 0.99321-12.911736-12.911736-5.959263-18.870999-4.966052-4.966052-6.952473-14.898157-1.986421-19.864209-10.925315-2.979631-5.959263-13.904947 0.99321-12.911736-6.952474 1.986421-16.884578-13.904947-26.816683-25.823473-35.755577-7.945684-4.966052-10.925315-16.884578-3.972842-23.837051 10.925315-13.904947 17.877789-30.789525 30.789525-43.701261 17.877789-14.898157 40.721629-4.966052 59.592629 3.972842 14.898157 9.932105 22.843841 26.816683 26.816682 43.701261 3.972842 14.898157-5.959263 31.782735 5.959263 44.694471 9.932105 8.938894 22.843841 15.891368 35.755577 20.85742 17.877789 8.938894 25.823472 29.796314 33.769157 46.680893 8.938894 21.85063 14.898157 45.687682 19.864209 68.531522 0.99321 4.966052 0 10.925315 3.972842 14.898157 15.891368-14.898157 28.803104-32.775946 38.735208-51.646944 11.918526-29.796314 17.877789-61.579049 21.850631-92.368574 7.945684-35.755577 12.911736-72.504365 10.925315-108.259942-1.986421-15.891368-1.986421-34.762367-13.904946-45.687682-23.837051 2.979631-36.748788-20.85742-56.612998-27.809893-8.938894-6.952473-15.891368-16.884578-24.830261-23.837052-7.945684-5.959263-11.918526-16.884578-23.837052-14.898157 2.979631-1.986421 5.959263-4.966052 1.986421-7.945684-3.972842-4.966052-5.959263 2.979631-9.932105 2.979632 0-3.972842 4.966052-10.925315-0.99321-12.911737-2.979631 3.972842-7.945684 2.979631-9.932105-0.99321-2.979631 0.99321-0.99321 11.918526-6.952473 7.945684-5.959263-3.972842-2.979631 10.925315-8.938894 5.959263-4.966052-6.952473-9.932105-2.979631-10.925316 3.972842-4.966052 3.972842-6.952473-1.986421-3.972842-5.959263 1.986421-6.952473 13.904947-6.952473 10.925316-14.898157-2.979631-6.952473-14.898157 8.938894-11.918526-2.979632 7.945684 0 7.945684-7.945684 14.898157-10.925315 4.966052-4.966052-3.972842-9.932105-7.945684-6.952473-0.99321 2.979631 0.99321 8.938894-3.972842 9.932104-6.952473 0.99321-6.952473 11.918526-14.898157 9.932105-9.932105 9.932105 11.918526 18.870999 4.966053 30.789525-2.979631 5.959263-4.966052-8.938894-8.938895-3.972842-2.979631 2.979631-2.979631 7.945684-5.959263 10.925315-4.966052-3.972842-4.966052-11.918526-5.959262-16.884578-5.959263-0.99321-7.945684 11.918526-14.898158 7.945684-1.986421-7.945684 11.918526-9.932105 9.932105-17.877789-8.938894-0.99321-15.891368 8.938894-25.823472 2.979632 2.979631-4.966052 10.925315-18.870999 0.99321-17.877789-4.966052 5.959263-11.918526 11.918526-18.870999 13.904947-5.959263-3.972842 6.952473-9.932105 2.979632-14.898157-3.972842-5.959263 1.986421-12.911736-0.993211-18.870999-7.945684 3.972842-1.986421 15.891368-10.925315 19.864209-5.959263-1.986421 7.945684-15.891368-0.99321-11.918526-3.972842 4.966052-7.945684-4.966052-11.918526 0-1.986421 3.972842-8.938894 7.945684-3.972842 11.918526 1.986421 2.979631-1.986421 3.972842-2.979631 5.959263-1.986421 5.959263 9.932105 0.99321 5.959262 8.938894-0.99321 4.966052-7.945684-1.986421-8.938894 2.979632-1.986421 5.959263 10.925315 2.979631 6.952473 10.925315-2.979631 2.979631-7.945684 3.972842-11.918525 4.966052 0 5.959263 10.925315 7.945684 7.945684 15.891368-3.972842 0.99321-2.979631-4.966052-6.952474-3.972842-5.959263 3.972842 5.959263 15.891368-3.972842 9.932105-7.945684 14.898157-9.932105-4.966052-10.925315-10.925315-7.945684-0.99321-4.966052 14.898157-12.911736 15.891367 0-9.932105 4.966052-19.86421 12.911736-25.823472-2.979631-4.966052-0.99321-12.911736-5.959263-16.884578-5.959263 2.979631-0.99321 9.932105 0.993211 13.904946-3.972842 1.986421-11.918526-1.986421-10.925316 7.945684-4.966052 7.945684-9.932105-3.972842-7.945683-8.938894 3.972842-4.966052-4.966052-10.925315-6.952474-4.966052-6.952473 9.932105 11.918526 6.952473 2.979632 14.898157-7.945684 0-21.85063-5.959263-27.809894 3.972842-5.959263 1.986421-3.972842-6.952473-4.966052-10.925316 3.972842 0.99321 9.932105 3.972842 11.918526-1.986421 0-5.959263 2.979631-10.925315 6.952473-14.898157 2.979631-7.945684-7.945684-4.966052-11.918526-2.979631-0.99321-7.945684 8.938894-10.925315 14.898158-6.952473 5.959263-1.986421-5.959263-6.952473 0-9.932105 6.952473-0.99321 16.884578 1.986421 12.911736-7.945684 4.966052-3.972842 14.898157-4.966052 17.877788-10.925315-5.959263-9.932105-21.85063 14.898157-17.877788-1.986421 1.986421-3.972842 14.898157-6.952473 8.938894-10.925315-4.966052 0-2.979631-8.938894-7.945684-5.959263 3.972842 12.911736-8.938894 17.877789-12.911736 27.809893-7.945684-4.966052-12.911736 0.99321-17.877789 5.959263-6.952473-4.966052-12.911736-0.99321-18.870999 3.972842-9.932105-1.986421-6.952473-20.85742-19.864209-18.870999-2.979631 2.979631-2.979631 6.952473-4.966052 10.925315-8.938894 0.99321-10.925315 12.911736-18.870999 14.898157 2.979631-8.938894 3.972842-19.86421 13.904946-23.837051 0-7.945684 12.911736-17.877789 0-20.85742-8.938894-5.959263-3.972842 14.898157-11.918526 5.959263-12.911736-6.952473 0.99321 13.904947-7.945683 7.945683-4.966052-2.979631-2.979631 4.966052-5.959263 6.952474-4.966052 2.979631 1.986421 6.952473 0.99321 10.925315-5.959263-3.972842-13.904947 1.986421-13.904946 8.938894-4.966052 0-8.938894 0-13.904947 0.993211 1.986421-9.932105 13.904947-12.911736 12.911736-23.837052 4.966052-8.938894-3.972842-5.959263-5.959263-0.99321-5.959263-1.986421-10.925315-12.911736-9.932104-19.86421-5.959263-2.979631-7.945684 2.979631-9.932105 6.952474-10.925315-2.979631-11.918526 15.891368-0.993211 15.891367 5.959263 0 10.925315 9.932105 4.966053 12.911736 0-4.966052-10.925315-11.918526-9.932105-4.966052 4.966052 3.972842 13.904947 5.959263 7.945684 13.904947-2.979631 10.925315-7.945684-8.938894-14.898157-4.966053-6.952473 4.966052 6.952473 14.898157-0.993211 17.877789-6.952473-3.972842-16.884578-3.972842-17.877788 5.959263-11.918526 2.979631-3.972842-18.870999-14.898158-12.911736-0.99321 3.972842-4.966052 14.898157-7.945683 5.959262 2.979631-12.911736-12.911736-10.925315-6.952474 0.993211-9.932105 0.99321-8.938894-17.877789-17.877788-11.918526-4.966052 5.959263-3.972842 13.904947-9.932105 18.870999-7.945684-2.979631 6.952473-19.86421-1.986421-17.877788-1.986421 1.986421-11.918526 15.891368-9.932105 4.966052 6.952473-5.959263-4.966052-10.925315-8.938894-4.966052-1.986421 1.986421-3.972842 6.952473-5.959263 2.979631-2.979631-6.952473 6.952473-7.945684 7.945684-12.911736-4.966052 0-10.925315 3.972842-14.898157-0.993211-1.986421-2.979631 4.966052-10.925315-0.993211-10.925315-9.932105 2.979631 0 14.898157-0.99321 20.85742-4.966052 3.972842-3.972842-8.938894-9.932105-3.972842-2.979631 5.959263-7.945684 2.979631-10.925315 0-8.938894 2.979631-1.986421 10.925315 0 15.891368-7.945684-0.99321 0 8.938894-2.979631 10.925315-5.959263-2.979631-7.945684 2.979631-12.911737 3.972842-3.972842-3.972842-11.918526-9.932105-7.945683-15.891368 3.972842-4.966052 7.945684-22.843841 0.99321-18.870999 5.959263 11.918526-9.932105 13.904947-8.938894 24.830262 0 4.966052-9.932105 11.918526-6.952474 2.979632-1.986421-15.891368 14.898157-24.830262 13.904947-37.741998-8.938894-1.986421-5.959263 14.898157-15.891368 11.918525-3.972842-3.972842 1.986421-7.945684 1.986421-12.911736-7.945684-1.986421-4.966052 7.945684-9.932104 10.925315-2.979631-5.959263-9.932105-6.952473-14.898157-3.972842 0.99321-3.972842 5.959263-7.945684 0-9.932104-6.952473 2.979631-10.925315 11.918526-17.877789 12.911736-0.99321-4.966052 3.972842-8.938894 5.959263-12.911736-1.986421-4.966052-7.945684-10.925315-0.993211-13.904947 8.938894-3.972842 12.911736-13.904947 13.904947-22.843841-8.938894-2.979631-4.966052 15.891368-12.911736 8.938894-3.972842-7.945684-8.938894 3.972842-13.904947 0-0.99321-12.911736 19.86421-14.898157 19.86421-27.809893-9.932105-1.986421-14.898157 7.945684-20.85742 14.898157-8.938894 15.891368-29.796314 12.911736-43.701261 17.877789-10.925315-2.979631-17.877789 0-23.837052-2.979632-3.972842-4.966052 9.932105-1.986421 5.959263-5.959263-10.925315 2.979631-0.99321-10.925315-7.945684-12.911736-3.972842 0.99321-7.945684 1.986421-11.918525 0-15.891368 0.99321 3.972842-8.938894 8.938894-5.959263 9.932105 1.986421 10.925315-12.911736 1.986421-8.938894-1.986421-3.972842-3.972842-5.959263-7.945684-1.986421-3.972842-1.986421-9.932105-0.99321-11.918526 3.972842V72.504365C4.967983 56.612997 8.940825 39.728419 20.85935 27.809893 33.771087 12.911736 52.642086 3.972842 72.506295 0m75.483996 137.063046c-0.99321 0.99321-0.99321 1.986421-0.99321 3.972841v249.29583h28.803104c1.986421-26.816683-2.979631-56.612997 1.986421-82.43647 24.830262 25.823472 43.701261 56.612997 68.531522 81.443259 9.932105 2.979631 21.85063 0.99321 31.782736 0.993211-19.86421-28.803104-44.694471-54.626576-66.545102-83.42968-2.979631-3.972842-8.938894-7.945684-7.945684-13.904947l68.531523-68.531523c-11.918526 0-22.843841-0.99321-34.762367 0-21.85063 18.870999-39.728419 42.70805-62.57226 59.592629V140.042677c-5.959263-6.952473-17.877789-0.99321-26.816683-2.979631m487.666344 0c-3.972842 25.823472 0.99321 54.626576-1.986421 81.443259-0.99321 2.979631-2.979631 2.979631-4.966053 1.986421-25.823472-5.959263-55.619787-0.99321-77.470417 14.898157-48.667313 34.762367-46.680892 124.151309 11.918526 148.981571 31.782735 13.904947 69.524733 10.925315 101.307468-1.986421V138.056256c-7.945684-3.972842-19.86421 0-28.803103-0.99321m57.606207 0.99321v225.458778c1.986421 6.952473 0.99321 14.898157 7.945684 19.864209 12.911736 12.911736 31.782735 8.938894 47.674103 5.959263-5.959263 3.972842 0 10.925315 1.986421 15.891368 5.959263 11.918526 16.884578 23.837051 12.911736 37.741998-1.986421 14.898157 15.891368 24.830262 28.803104 23.837051 8.938894-12.911736 7.945684-29.796314 14.898157-43.701261 8.938894-10.925315 0.99321-22.843841-2.979632-33.769156 26.816683 7.945684 55.619787 2.979631 80.450049-9.932104 0.99321-6.952473-4.966052-12.911736-6.952473-18.870999-7.945684-0.99321-13.904947 7.945684-21.850631 6.952473-25.823472 8.938894-57.606208-1.986421-69.524733-26.816683-2.979631-8.938894-8.938894-20.85742-3.972842-29.796314 35.755577-0.99321 71.511154 0 107.266731 0 1.986421-27.809893-3.972842-57.606208-23.837051-77.470417-29.796314-26.816683-83.42968-18.870999-103.29389 16.884578-16.884578 30.789525-16.884578 68.531523-3.972841 100.314258 3.972842 14.898157 18.870999 23.837051 29.796314 32.775945-7.945684-2.979631-16.884578 0-24.830262-2.979631-4.966052 3.972842-10.925315 5.959263-16.884578 6.952473 0-6.952473-3.972842-13.904947-4.966053-20.85742-8.938894 0.99321-18.870999 0-23.837051-8.938894V138.056256c-2.979631-4.966052-16.884578-0.99321-24.830262 0M308.890388 159.906887c-17.877789 8.938894-9.932105 38.735209 9.932105 37.741998 10.925315-1.986421 22.843841-12.911736 17.877789-24.830262-3.972842-11.918526-17.877789-15.891368-27.809894-12.911736m135.076625 57.606207c-18.870999 2.979631-36.748788 10.925315-50.653734 23.837051-5.959263 1.986421-4.966052-5.959263-5.959263-9.932104 1.986421-14.898157-16.884578-6.952473-25.823473-8.938895v165.86615h28.803104V265.187197c16.884578-13.904947 39.728419-27.809893 62.57226-19.86421 12.911736 4.966052 16.884578 19.86421 17.877789 32.775946 0 36.748788-0.99321 73.497575 0.99321 110.246363 8.938894 1.986421 20.85742 1.986421 28.803104-0.993211-0.99321-41.71484 1.986421-84.42289-0.993211-126.13773-1.986421-25.823472-28.803104-47.674103-55.619786-43.701261m-141.035888 5.959263V389.338506h28.803104V223.472357h-28.803104m554.211446 187.71678c-4.966052 9.932105-21.85063 4.966052-19.86421 18.870999-2.979631 8.938894-6.952473 20.85742 0.993211 27.809893 5.959263-4.966052 19.86421 1.986421 19.864209-10.925315 0.99321-11.918526 8.938894-21.85063 7.945684-33.769156 0-4.966052-6.952473-1.986421-8.938894-1.986421m-134.083415 34.762366c-10.925315 6.952473 1.986421 16.884578-0.99321 24.830262-2.979631-1.986421-10.925315-2.979631-8.938894 2.979632 2.979631 5.959263-3.972842 0.99321-6.952474 0-5.959263 0.99321-4.966052-12.911736-8.938894-3.972842-3.972842 9.932105-1.986421-9.932105-7.945684-4.966053-1.986421 8.938894 10.925315 14.898157 16.884578 17.877789 12.911736 4.966052 12.911736 21.85063 24.830262 27.809893 13.904947 2.979631 23.837051 13.904947 36.748788 16.884578 5.959263 0.99321 15.891368-0.99321 14.898157-8.938894-4.966052-17.877789-16.884578-33.769156-33.769156-41.71484-3.972842-3.972842-4.966052 6.952473-7.945684 0.993211 1.986421-9.932105-11.918526-2.979631-11.918526-10.925316 0-5.959263-8.938894-9.932105-3.972842-15.891367 3.972842-1.986421 3.972842-6.952473-1.986421-4.966053m235.390883 28.803104c-14.898157 9.932105-31.782735 16.884578-42.70805 30.789525-3.972842 2.979631-3.972842 9.932105 1.986421 9.932105 14.898157-2.979631 35.755577-2.979631 39.728419-20.85742 1.986421-5.959263 7.945684-18.870999 0.99321-19.86421m-458.86324 27.809893c-6.952473 3.972842-9.932105 16.884578-0.99321 19.86421 0.99321-5.959263-0.99321-11.918526 1.986421-16.884578 1.986421-1.986421 1.986421-4.966052-0.993211-2.979632M586.989321 826.351115c-6.952473 5.959263-17.877789 11.918526-19.864209 21.850631 13.904947 5.959263 28.803104 11.918526 42.70805 16.884578-5.959263-11.918526-12.911736-22.843841-17.877788-35.755577 0-3.972842-2.979631-3.972842-4.966053-2.979632m-45.687682 93.361785c-17.877789 22.843841-37.741998 44.694471-56.612997 67.538312-7.945684-2.979631-18.870999 0-15.891367 10.925316 26.816683-5.959263 53.633366-16.884578 81.443259-21.850631 15.891368-6.952473 32.775946-14.898157 47.674103-24.830262-5.959263-5.959263-13.904947-7.945684-20.85742-12.911736-11.918526-3.972842-21.85063-16.884578-35.755578-18.870999z" fill="#252525" p-id="6683"></path><path d="M605.86032 243.336566c9.932105 0 19.86421 0 27.809894 4.966053v115.212415c-5.959263 9.932105-20.85742 5.959263-30.789525 7.945684-16.884578-0.99321-32.775946-9.932105-44.694471-20.85742-14.898157-22.843841-16.884578-54.626576-2.979632-79.456838 11.918526-17.877789 30.789525-28.803104 50.653734-27.809894z m208.5742-0.99321c13.904947-2.979631 29.796314 0 38.735209 10.925315 6.952473 10.925315 11.918526 22.843841 10.925315 35.755577-24.830262 5.959263-50.653734 0.99321-75.483996 1.986421-9.932105-5.959263-1.986421-20.85742 1.986421-29.796314 3.972842-7.945684 12.911736-16.884578 23.837051-18.870999z" fill="#252525" p-id="6684"></path><path d="M147.990291 137.063046c8.938894 1.986421 20.85742-3.972842 27.809894 1.986421 0.99321 47.674103 0 96.341416 0 144.015518 22.843841-16.884578 40.721629-40.721629 62.57226-59.592628 10.925315-0.99321 22.843841-0.99321 34.762366 0l-68.531523 68.531523c-0.99321 5.959263 4.966052 9.932105 7.945684 13.904946C234.399603 333.71872 259.229864 359.542192 279.094074 389.338506c-10.925315-0.99321-21.85063 1.986421-31.782735-0.99321-25.823472-24.830262-44.694471-55.619787-68.531523-81.443259-4.966052 25.823472 0 55.619787-1.986421 82.436469h-28.803104V140.042677c-0.99321-0.99321-0.99321-1.986421 0-2.979631z m487.666344 0c8.938894 0.99321 19.86421-2.979631 28.803103 0.99321v244.329777c-31.782735 13.904947-69.524733 16.884578-101.307468 1.986421-57.606208-24.830262-59.592629-114.219205-10.925315-149.974782 21.85063-15.891368 51.646945-20.85742 77.470417-14.898157 1.986421 1.986421 4.966052 0.99321 4.966052-1.986421 1.986421-25.823472-1.986421-54.626576 0.993211-80.450048m-29.796315 106.27352c-19.86421-0.99321-39.728419 9.932105-49.660523 27.809894-12.911736 24.830262-11.918526 55.619787 2.979631 79.456838 11.918526 11.918526 27.809893 19.86421 44.694471 20.85742 9.932105-0.99321 24.830262 1.986421 30.789525-7.945684V248.302619c-8.938894-5.959263-18.870999-5.959263-28.803104-4.966053z m87.402522-105.28031c7.945684-0.99321 21.85063-4.966052 28.803104 0.993211v219.499515c3.972842 8.938894 13.904947 9.932105 23.837051 8.938894 0.99321 6.952473 3.972842 13.904947 4.966053 20.85742l-0.993211 0.99321c-15.891368 2.979631-34.762367 6.952473-47.674103-5.959263-6.952473-3.972842-6.952473-12.911736-7.945683-19.864209-0.99321-75.483996-0.99321-149.974782-0.993211-225.458778zM308.890388 159.906887c10.925315-2.979631 24.830262 0.99321 27.809894 11.918525 4.966052 11.918526-6.952473 22.843841-17.877789 24.830262-19.86421 1.986421-27.809893-27.809893-9.932105-36.748787z m135.076625 57.606207c26.816683-3.972842 53.633366 16.884578 56.612997 44.694471 2.979631 41.71484 0.99321 84.42289 0.99321 126.137731-8.938894 1.986421-19.86421 1.986421-28.803103 0.99321-1.986421-35.755577 0-73.497575-0.993211-110.246362-0.99321-12.911736-4.966052-27.809893-17.877788-32.775946-22.843841-7.945684-45.687682 5.959263-62.57226 19.864209V389.338506h-28.803104V223.472357c8.938894 1.986421 27.809893-5.959263 25.823472 8.938894 0.99321 3.972842 0 11.918526 5.959263 9.932105 12.911736-13.904947 30.789525-20.85742 49.660524-24.830262zM765.767207 251.28225c18.870999-36.748788 72.504365-43.701261 103.293889-16.884578 19.86421 19.86421 25.823472 50.653734 23.837052 77.470417H785.631416c-5.959263 8.938894 0 20.85742 3.972842 29.796314 11.918526 24.830262 43.701261 35.755577 69.524734 26.816683 7.945684 0 13.904947-8.938894 21.85063-6.952473 2.979631 5.959263 7.945684 11.918526 6.952473 18.870999-24.830262 12.911736-53.633366 16.884578-80.450048 9.932105-4.966052-1.986421-9.932105-2.979631-13.904947-4.966053-10.925315-9.932105-25.823472-17.877789-29.796314-32.775945-14.898157-32.775946-13.904947-70.517944 1.986421-101.307469m48.667313-8.938894c-10.925315 1.986421-19.86421 9.932105-24.830262 19.864209-3.972842 8.938894-11.918526 23.837051-1.986421 29.796315 24.830262-0.99321 51.646945 3.972842 75.483996-1.986421 0.99321-12.911736-3.972842-24.830262-10.925315-35.755577-8.938894-11.918526-23.837051-14.898157-37.741998-11.918526z m-511.503395-18.870999h28.803104V389.338506h-28.803104V223.472357z" fill="#F59C24" p-id="6685"></path><path d="M766.760417 382.386033c7.945684 2.979631 16.884578 0 24.830262 2.979631 4.966052 1.986421 9.932105 2.979631 13.904947 4.966053 3.972842 10.925315 10.925315 22.843841 2.979631 33.769156-7.945684 13.904947-6.952473 30.789525-14.898157 43.701261-12.911736 0-31.782735-8.938894-28.803104-23.837052 3.972842-13.904947-6.952473-25.823472-12.911736-37.741998-1.986421-4.966052-7.945684-11.918526-1.986421-15.891367l0.993211-0.993211c5.959263-0.99321 11.918526-2.979631 15.891367-6.952473zM12.913667 395.297769c3.972842-3.972842 4.966052-0.99321 6.952473 1.986421 9.932105-3.972842 8.938894 10.925315-1.986421 8.938894-5.959263-2.979631-24.830262 6.952473-8.938894 5.959263 3.972842 0.99321 7.945684 0.99321 11.918525 0 6.952473 1.986421-2.979631 14.898157 7.945684 12.911736 3.972842 3.972842-9.932105 0.99321-5.959263 5.959263 5.959263 1.986421 12.911736 0 18.870999-0.99321 14.898157-4.966052 35.755577-1.986421 43.701261-17.877789 5.959263-5.959263 10.925315-16.884578 19.86421-14.898157 0 12.911736-20.85742 13.904947-19.86421 27.809893 3.972842 4.966052 9.932105-7.945684 13.904947 0 7.945684 6.952473 3.972842-11.918526 12.911736-8.938894-1.986421 8.938894-4.966052 18.870999-13.904947 22.843841-6.952473 2.979631-0.99321 9.932105 0.993211 13.904947-1.986421 3.972842-6.952473 7.945684-5.959263 12.911736 7.945684-0.99321 10.925315-9.932105 17.877789-12.911736 4.966052 1.986421 0 6.952473 0 9.932104 5.959263-2.979631 11.918526-1.986421 14.898157 3.972842 4.966052-2.979631 1.986421-12.911736 9.932105-10.925315 0 4.966052-5.959263 7.945684-1.986421 12.911736 9.932105 2.979631 6.952473-13.904947 15.891367-11.918525 0 13.904947-15.891368 22.843841-13.904946 37.741998-2.979631 8.938894 6.952473 1.986421 6.952473-2.979632-1.986421-10.925315 14.898157-12.911736 8.938894-24.830262 5.959263-3.972842 2.979631 13.904947-0.99321 18.870999-3.972842 5.959263 3.972842 11.918526 7.945683 15.891368 4.966052-0.99321 7.945684-6.952473 12.911737-3.972842 2.979631-1.986421-4.966052-11.918526 2.979631-10.925315-1.986421-4.966052-8.938894-12.911736 0-15.891368 2.979631 2.979631 7.945684 5.959263 10.925315 0 5.959263-4.966052 4.966052 7.945684 9.932105 3.972842 0.99321-5.959263-7.945684-17.877789 0.993211-20.85742 4.966052 0-0.99321 7.945684 0.99321 10.925315 3.972842 4.966052 9.932105 0.99321 14.898157 0.993211-0.99321 4.966052-10.925315 6.952473-7.945684 12.911736 1.986421 3.972842 3.972842-0.99321 5.959263-2.979631 3.972842-4.966052 15.891368-0.99321 8.938894 4.966052-2.979631 9.932105 6.952473-2.979631 9.932105-4.966052 9.932105-1.986421-4.966052 14.898157 1.986421 17.877788 5.959263-4.966052 4.966052-13.904947 9.932105-18.870999 8.938894-6.952473 7.945684 11.918526 17.877788 11.918526-5.959263-11.918526 9.932105-13.904947 6.952474-0.993211 2.979631 7.945684 6.952473-1.986421 7.945684-5.959262 10.925315-6.952473 2.979631 15.891368 14.898157 12.911736 0.99321-9.932105 10.925315-9.932105 17.877788-5.959263 8.938894-2.979631-4.966052-12.911736 0.993211-17.877789 6.952473-3.972842 11.918526 15.891368 14.898157 4.966053 5.959263-7.945684-2.979631-9.932105-7.945684-13.904947 0-6.952473 9.932105 0 9.932105 4.966052 4.966052-3.972842 0-12.911736-4.966053-12.911736-10.925315 0-9.932105-18.870999 0.993211-15.891367 1.986421-3.972842 3.972842-8.938894 9.932105-6.952474-0.99321 6.952473 3.972842 17.877789 9.932104 19.86421 2.979631-4.966052 11.918526-7.945684 5.959263 0.99321 0.99321 10.925315-11.918526 13.904947-12.911736 23.837052 4.966052-0.99321 8.938894-0.99321 13.904947-0.993211-0.99321-6.952473 7.945684-12.911736 13.904946-8.938894 0-3.972842-5.959263-7.945684-0.99321-10.925315 2.979631-1.986421 0.99321-9.932105 5.959263-6.952474 8.938894 5.959263-3.972842-14.898157 7.945684-7.945683 8.938894 7.945684 2.979631-11.918526 11.918525-5.959263 13.904947 2.979631 0 12.911736 0 20.85742-9.932105 3.972842-10.925315 14.898157-13.904946 23.837051 7.945684-1.986421 9.932105-13.904947 18.870999-14.898157 1.986421-3.972842 1.986421-7.945684 4.966052-10.925315 12.911736-1.986421 9.932105 16.884578 19.86421 18.870999 5.959263-4.966052 11.918526-8.938894 18.870999-3.972842 4.966052-4.966052 9.932105-10.925315 17.877788-5.959263 3.972842-9.932105 16.884578-14.898157 12.911736-27.809893 5.959263-2.979631 3.972842 5.959263 7.945684 5.959263 5.959263 4.966052-5.959263 7.945684-8.938894 10.925315-3.972842 16.884578 11.918526-7.945684 17.877788 1.986421-2.979631 5.959263-12.911736 6.952473-17.877788 10.925315 3.972842 9.932105-5.959263 5.959263-12.911736 7.945684-5.959263 2.979631 5.959263 7.945684 0 9.932105-5.959263-2.979631-15.891368-0.99321-14.898157 6.952473 3.972842-1.986421 14.898157-3.972842 11.918525 2.979631-4.966052 3.972842-7.945684 8.938894-6.952473 14.898157-1.986421 5.959263-7.945684 2.979631-11.918526 1.986421 1.986421 2.979631 0 12.911736 4.966053 10.925316 5.959263-9.932105 19.86421-3.972842 27.809893-3.972842 8.938894-7.945684-9.932105-4.966052-2.979632-14.898157 0.99321-5.959263 10.925315 0 6.952474 4.966052-1.986421 4.966052 2.979631 16.884578 7.945684 8.938894-1.986421-9.932105 5.959263-5.959263 9.932104-7.945684-0.99321-3.972842-6.952473-10.925315-0.99321-13.904946 4.966052 3.972842 2.979631 11.918526 5.959263 16.884578-7.945684 5.959263-12.911736 15.891368-12.911736 25.823472 8.938894 0 4.966052-15.891368 12.911736-15.891367 0.99321 5.959263 2.979631 25.823472 10.925315 10.925315 9.932105 4.966052-0.99321-5.959263 3.972842-9.932105 2.979631-0.99321 2.979631 4.966052 6.952473 3.972842 2.979631-7.945684-7.945684-9.932105-7.945684-15.891368 3.972842 0 7.945684-1.986421 11.918526-4.966052 3.972842-6.952473-8.938894-4.966052-6.952473-9.932105 0.99321-4.966052 7.945684 0.99321 8.938894-2.979631 3.972842-6.952473-7.945684-2.979631-5.959263-8.938894 0.99321-1.986421 5.959263-3.972842 2.979632-5.959263-3.972842-3.972842 1.986421-7.945684 3.972842-11.918526 3.972842-4.966052 7.945684 4.966052 11.918525 0 8.938894-3.972842-4.966052 9.932105 0.993211 11.918526 8.938894-3.972842 2.979631-15.891368 10.925315-19.86421 2.979631 5.959263-2.979631 12.911736 0.99321 18.870999 3.972842 4.966052-8.938894 11.918526-2.979631 14.898157 7.945684-1.986421 14.898157-6.952473 18.870999-13.904946 9.932105-1.986421 1.986421 12.911736-0.99321 17.877788 9.932105 4.966052 16.884578-3.972842 25.823472-2.979631 2.979631 7.945684-11.918526 9.932105-9.932105 17.877788 7.945684 2.979631 8.938894-8.938894 14.898157-7.945683 0.99321 5.959263 1.986421 12.911736 5.959263 16.884578 2.979631-2.979631 2.979631-7.945684 5.959263-10.925316 3.972842-3.972842 5.959263 9.932105 8.938894 3.972842 6.952473-11.918526-14.898157-19.86421-3.972842-30.789524 7.945684 1.986421 7.945684-8.938894 14.898157-9.932105 3.972842-0.99321 1.986421-6.952473 3.972842-9.932105 3.972842-1.986421 12.911736 2.979631 7.945684 6.952473-5.959263 2.979631-6.952473 10.925315-14.898157 10.925316-2.979631 11.918526 8.938894-3.972842 11.918526 2.979631 2.979631 7.945684-7.945684 8.938894-10.925315 14.898157-2.979631 3.972842-0.99321 9.932105 3.972841 5.959263 0.99321-5.959263 5.959263-10.925315 10.925316-3.972842 5.959263 4.966052 2.979631-9.932105 8.938894-5.959263 5.959263 3.972842 3.972842-6.952473 6.952473-7.945683 2.979631 3.972842 6.952473 4.966052 9.932105 0.99321 5.959263 1.986421 0.99321 8.938894 0.99321 12.911736 3.972842 0.99321 5.959263-7.945684 9.932105-2.979631 3.972842 2.979631 0.99321 5.959263-1.986421 7.945684 11.918526-1.986421 15.891368 9.932105 23.837052 14.898157 8.938894 6.952473 15.891368 16.884578 24.830262 23.837051 19.86421 6.952473 32.775946 30.789525 56.612997 27.809893 11.918526 11.918526 11.918526 30.789525 13.904946 45.687682 1.986421 36.748788-3.972842 72.504365-10.925315 108.259942-3.972842 31.782735-9.932105 62.57226-21.85063 92.368574-8.938894 19.86421-22.843841 37.741998-37.741998 51.646945-3.972842-2.979631-2.979631-9.932105-3.972842-14.898157-4.966052-22.843841-10.925315-46.680892-19.86421-68.531523-6.952473-14.898157-14.898157-35.755577-32.775946-44.694471-12.911736-4.966052-24.830262-11.918526-34.762366-20.85742-11.918526-12.911736-1.986421-29.796314-5.959263-44.694472-3.972842-16.884578-11.918526-33.769156-26.816683-43.701261-17.877789-7.945684-41.71484-17.877789-59.592628-3.972842-11.918526 12.911736-19.86421 28.803104-30.789525 43.701261-6.952473 6.952473-3.972842 18.870999 3.972842 23.837052 11.918526 8.938894 26.816683 17.877789 25.823472 35.755577 0 6.952473 10.925315 0.99321 12.911736 6.952473 3.972842 7.945684 13.904947 3.972842 19.86421 10.925315 5.959263-0.99321 20.85742-7.945684 18.870999 4.966053-12.911736 8.938894-25.823472 18.870999-33.769156 33.769156-3.972842 8.938894-12.911736 15.891368-11.918526 26.816683-5.959263 8.938894-9.932105 25.823472-24.830262 22.843841-13.904947-0.99321-28.803104 1.986421-42.70805-1.986421-2.979631-3.972842-4.966052-8.938894-8.938895-10.925315-1.986421-7.945684 12.911736-13.904947 7.945684-20.85742-20.85742-16.884578-39.728419-36.748788-61.579049-51.646945-11.918526 2.979631-19.86421 13.904947-30.789525 19.864209-3.972842 1.986421-11.918526 8.938894-4.966052 12.911737 16.884578 13.904947 33.769156 27.809893 49.660523 42.70805 1.986421 12.911736 10.925315 24.830262 25.823473 24.830262 13.904947-0.99321 23.837051 8.938894 34.762366 14.898157 4.966052 2.979631-2.979631 7.945684-3.972841 10.925315-17.877789 29.796314-35.755577 59.592629-52.640156 90.382153 4.966052 10.925315-1.986421 18.870999-11.918525 22.843841-14.898157 4.966052-29.796314 11.918526-45.687682 14.898158-7.945684 2.979631-17.877789 11.918526-11.918526 20.85742H71.513085C36.750718 1015.061106 7.947614 987.251212 0.995141 951.495635V399.270611c1.986421-5.959263 7.945684-5.959263 11.918526-3.972842z m844.228904 15.891368c1.986421 0.99321 8.938894-1.986421 8.938894 1.986421 0 11.918526-6.952473 21.85063-7.945684 33.769156 0 11.918526-13.904947 5.959263-19.864209 10.925315-7.945684-6.952473-3.972842-18.870999-0.993211-27.809893-2.979631-13.904947 14.898157-8.938894 19.86421-18.870999z m-134.083415 34.762366c4.966052-1.986421 4.966052 2.979631 0.993211 4.966053-4.966052 5.959263 3.972842 9.932105 3.972842 15.891367 0 6.952473 13.904947 0.99321 11.918526 10.925316 2.979631 5.959263 4.966052-4.966052 7.945683-0.993211 16.884578 7.945684 28.803104 23.837051 33.769156 41.71484 1.986421 7.945684-8.938894 9.932105-14.898157 8.938894-12.911736-3.972842-22.843841-13.904947-36.748787-16.884578-11.918526-4.966052-12.911736-21.85063-24.830262-27.809893-6.952473-3.972842-18.870999-8.938894-16.884578-17.877789 5.959263-4.966052 4.966052 14.898157 7.945684 4.966053 3.972842-8.938894 2.979631 5.959263 8.938894 3.972842 2.979631 0 9.932105 5.959263 6.952473 0-1.986421-5.959263 4.966052-4.966052 8.938894-2.979632 3.972842-8.938894-7.945684-17.877789 1.986421-24.830262z m235.390883 28.803104c6.952473 1.986421 0.99321 14.898157-0.99321 19.86421-4.966052 17.877789-25.823472 17.877789-39.728419 20.85742-5.959263 0-4.966052-6.952473-1.986421-9.932105 10.925315-14.898157 27.809893-20.85742 42.70805-30.789525z m19.86421 46.680893c6.952473-20.85742 30.789525-26.816683 42.70805-43.701261v305.908826c-27.809893-5.959263-57.606208-15.891368-73.497575-39.728419-28.803104-56.612997-20.85742-123.158099-26.816683-184.737148-3.972842-11.918526 9.932105-13.904947 17.877789-18.870999 13.904947-3.972842 31.782735-4.966052 39.728419-18.870999z" fill="#4083C3" p-id="6686"></path><path d="M499.586799 502.5645c2.979631-1.986421 2.979631 0.99321 1.986421 2.979632-2.979631 4.966052-1.986421 10.925315-1.986421 16.884578-8.938894-2.979631-6.952473-15.891368 0-19.86421zM586.989321 826.351115c1.986421-0.99321 4.966052 0 4.966053 2.979632 4.966052 12.911736 11.918526 23.837051 17.877788 35.755577-14.898157-4.966052-28.803104-10.925315-42.70805-16.884578 1.986421-9.932105 12.911736-15.891368 19.864209-21.850631z m-45.687682 93.361785c13.904947 1.986421 22.843841 14.898157 35.755578 19.86421 5.959263 4.966052 14.898157 6.952473 20.85742 12.911736-14.898157 9.932105-30.789525 17.877789-47.674103 24.830262-27.809893 3.972842-53.633366 14.898157-81.443259 21.85063-2.979631-10.925315 6.952473-13.904947 15.891367-10.925315 18.870999-24.830262 38.735209-45.687682 56.612997-68.531523z" fill="#4083C3" p-id="6687"></path></svg>