<?xml version="1.0" standalone="no"?><!DOCTYPE svg PUBLIC "-//W3C//DTD SVG 1.1//EN" "http://www.w3.org/Graphics/SVG/1.1/DTD/svg11.dtd"><svg t="1769011453593" class="icon" viewBox="0 0 1024 1024" version="1.1" xmlns="http://www.w3.org/2000/svg" p-id="12398" xmlns:xlink="http://www.w3.org/1999/xlink" width="16" height="16"><path d="M1015.18 177.26l0.22-29.12-29.12 0.22-5.24 0.02c-4.7 0-9.38-0.04-14.08-0.08-4.84-0.04-9.7-0.08-14.54-0.08-9.14 0-21.22 0.12-33.7 1.06l-27.64 2.06 1.1 27.68c0.38 9.5 0.38 19.04 0.38 29.14 0 8.72 0.04 17.7 0.3 26.78-12.94-0.02-25.88-0.04-38.82-0.04-31.2 0-62.42 0.04-93.62 0.08-31.18 0.04-62.38 0.08-93.56 0.08-66.22 0-117.28-0.18-165.54-0.56l-25.34-0.2-3.32 25.12c-2.2 16.68-2.58 33.1-2.48 49.18-3.64 0.02-7.26 0.06-10.9 0.1-4.02 0.06-8.04 0.12-12.06 0.12-0.92 0-1.9 0-2.88-0.02-0.08-6.16 0-12.5 0.1-18.98 0.12-8.22 0.24-16.72 0-25.36l-0.76-26.1-26.06-1.68c-21.52-1.4-40.74-2.08-58.76-2.08-21.1 0-40.38 0.92-58.98 2.8l-25.86 2.6 0.04 25.98c0.02 6.22 0.08 12.44 0.14 18.64 0.08 8.22 0.18 16.24 0.14 24.12-0.98 0-23.32-0.06-27.46-0.06h-7.38v-3.22l-7.18-8.12c-1.16-1.32-3.44-3.96-4.56-5.28l-8.52-9.94-13.1-0.06c-27-0.14-54-0.2-81-0.2-28.92 0-57.84 0.08-86.76 0.24l-28.44 0.16-0.08 28.44c-0.4 144.22-0.38 270.4 0.04 385.74L10 724.98h1.86c-0.14 6.38-0.2 12.78-0.26 19.16-0.06 5.42-0.1 10.84-0.22 16.28l-0.58 28.44s32.12 0.92 33.96 0.96c0 5.42-0.02 10.84-0.02 16.16-0.02 13.24-0.06 26.92 0.1 40.48l0.32 27.74 27.74 0.62c7.18 0.16 14.38 0.24 21.58 0.24 7.7 0 15.42-0.1 22.96-0.28l28.06-0.7-0.04-11.64c9.48 8.3 22.64 12.92 38.12 12.92 4.48 0 9.26-0.36 14.24-1.08l0.68-0.1 0.66-0.12c3.36-0.64 7.18-0.94 12-0.94 4.22 0 8.66 0.22 13.38 0.46 5.24 0.26 10.66 0.54 16.36 0.54 4.78 0 9.12-0.2 13.28-0.6l17.96-1.74c8.52 2.32 16.76 2.76 23 3.08 1.34 0.06 2.66 0.14 3.94 0.22l1.1 0.08 2.54-0.02c1.46 0 8.04 0.06 9.84 0.06 6.78 0 18.1-0.02 29.92-3.54l0.02 3 28.28 0.28c4.76 0.04 9.52 0.08 14.28 0.08 8.08 0 15.4-0.08 22.36-0.26l18.9 0.22c4.88 0.06 9.76 0.12 14.66 0.12 11.38 0 20.24-0.32 28.68-1l17.92-1.48 3.96-10.28 3.84 11.58 19.94 0.72c7.94 0.28 15.7 0.44 23.08 0.44 8.76 0 17.34-0.2 25.52-0.6l8.84-0.44c7.94 0.68 16.32 1.02 26.32 1.02 2.84 0 5.66-0.02 8.5-0.06l28.2-0.42 0.04-16.68c7.38 8.92 20.04 17.46 41.64 17.46 4.88 0 9.46-0.38 13.5-0.72 2.8-0.24 5.44-0.46 7.22-0.46l28.72-0.08-0.12-28.72c-0.04-9.32 0-18.64 0.04-27.96l0.06-11.42 0.26-0.08-0.24-7.22 0.02-5.78-0.22-0.04-0.46-14.5c-0.22-7.08-0.44-14.14-0.78-21.18l-1.14-24.3-14.68-1.74c-0.08-0.34-5.26-24.38-5.26-24.38l-23.86 0.72c-5.6 0.16-11.2 0.26-16.78 0.36-3.52 0.06-7.06 0.12-10.58 0.2l-26.7 0.58-1.18 23.72-5.54 1.58c-3.84 1.1-8.48 1.58-15.04 1.58-3.32 0-6.64-0.12-9.98-0.22-3.96-0.12-7.92-0.24-11.86-0.24-3.6 0-6.86 0.1-9.96 0.3l-25.06 1.64c-0.92-2.22-1.88-4.44-2.78-6.64l-0.86-2.1-0.72-1.2c-0.1-0.26-0.2-0.5-0.3-0.76-2.08-5.22-6.96-17.42-20.98-23.56l-4.1-1.78-2.36-0.24 0.02-3.4 0.06-11.84 27.58 0.02c19.88 0 39.76-0.02 59.64-0.06 19.86-0.02 39.72-0.04 59.58-0.04 36.56 0 66.32 0.08 93.54 0.28-1.34 2.22-2.66 4.42-4.08 6.7-7.44 12.12-15.14 24.64-21.22 38.88l-5.94 13.96s19.04 29.74 24.46 38.24c15.66 24.52 31.86 49.86 48.12 74.68 5.7 10.1 15.98 16.26 27.54 16.24 14.8 0 26.86-10.2 32.38-21.36 21.96-36.16 45.96-74.64 75.38-120.96l0.52-0.86c0.86-1.46 1.8-2.92 2.76-4.4 5.86-9.12 14.62-22.76 13.14-41.16-0.16-60.02-0.12-121.02-0.08-180.04 0.06-78.38 0.12-159.38-0.32-239.16h5.86c8.96 0 19.52 0.06 29.9 0.46l27.52 1.08 2.2-27.44c1.24-15.5 1.12-30.66 0.98-45.32-0.08-6-0.14-11.98-0.1-17.96z" fill="#D6FFFF" opacity=".66" p-id="12399"></path><path d="M578.42 386.02c75.34-0.76 150.64 0 225.98-0.36 24.62 0.12 49.28 0.04 73.94-0.04-9.92 20.08-20.56 39.76-29.92 60.12-4.02 7.92-7.5 16.5-13.94 22.82-10 1.48-20.16 1.04-30.24 1.12-90.24-0.76-180.52 0.84-270.78-0.8 11.98-29.16 31.06-54.66 44.96-82.86z" fill="#00CFFF" p-id="12400"></path><path d="M920.88 177.88c21.84-1.64 43.74-0.68 65.62-0.84-0.16 20.4 0.8 40.84-0.84 61.2-21.36-0.84-42.68-0.28-64.02-0.52-0.76-19.96 0.04-39.92-0.76-59.84z m-421.66 183.74c101.52 0.44 203.08 0.16 304.6 0.16 0.52 7.92 0.68 15.9 0.6 23.86 24.62 0.12 49.28 0.04 73.94-0.04-9.92 20.08-20.56 39.76-29.92 60.12-4.02 7.92-7.5 16.5-13.94 22.82-10 1.48-20.16 1.04-30.24 1.12 0.8 60.48 0.04 121 0.44 181.52 1 13.18-9.68 22.82-15.14 33.86-10.32 19.36-23.74 37.22-32.36 57.42 21.6 33.7 43.04 67.58 64.98 101.04 2.4 5.38 8.6-0.64 9.76-3.94 25.06-41.28 50.68-82.16 76.58-122.92 5.38-9.16 13.3-18.2 11.96-29.6-0.4-141.16 0.4-282.28-0.4-423.4-139.64-0.32-279.34 0.64-418.98-0.48-4.3 32.56-0.96 65.68-1.88 98.46z m-197.06-24.74c-18.4 0.8-36.86 0.48-55.26 0.48 0.72 39.04-1.08 78.18 0.92 117.18 18.32-0.64 36.66-0.36 54.98-0.28 0.28 42.24 0.36 84.46-0.04 126.7-22.52 0.04-44.98-0.16-67.5 0.12-0.44 38.64-0.28 77.3-0.12 115.98 83.98 0.24 167.94 0.12 251.88 0.08 0.2-38.72 0.36-77.42-0.12-116.14-23.7-0.24-47.46 0.24-71.16-0.28-0.08-42.08 0.04-84.14-0.08-126.22 19.04-0.76 38.08 0.08 57.1-0.36l2.08-2.98c1.08-37.94 0-75.94 0.44-113.88-19.24-0.16-38.6 1.32-57.74-1.64-3.42-23.3-1.12-46.94-1.8-70.36-37.54-2.44-75.58-3.14-113 0.64 0.06 23.68 0.94 47.34-0.58 70.96zM38.56 696.34c57.38 0.08 114.74 0.76 172.08-0.32 0.88-126.54 0.52-253.12 0.2-379.66-1.24-1.4-3.66-4.22-4.86-5.62-55.82-0.28-111.64-0.28-167.46 0.04-0.36 128.54-0.44 257.08 0.04 385.56z m101.4-238.06c0.64 29.64 0.96 59.32-0.08 88.92-11.92-0.28-23.82-0.4-35.74-0.84 0.6-28.84 0.56-57.74 0.04-86.62 11.84-1.86 23.82-1.66 35.78-1.46z m382.56 198.5c78.42 0.08 156.82-0.36 235.24 0.2 0.16-49.04 0.16-98.14 0-147.18-78.42 0.52-156.82 0.12-235.24 0.2-0.34 48.94-0.34 97.86 0 146.78z m150.74-87.56c0.08 9.44 0.08 18.92 0 28.36-22.08 0.32-44.18 0.44-66.26-0.08-0.04-9.4-0.04-18.8 0-28.2 22.06-0.52 44.18-0.44 66.26-0.08z m-633.22 191.8c11.08 0.32 22.16 0.52 33.22 0.96 0.4 28.04-0.08 56.14 0.24 84.18 14.38 0.32 28.8 0.32 43.18-0.04-0.08-26.46-0.76-52.92 0.12-79.36 7.6-9.96 23.58-3.66 34.78-5.62-0.4-11.84-0.36-23.7-0.52-35.58-36.86-0.16-73.7-0.04-110.56-0.04-0.26 11.82-0.22 23.66-0.46 35.5z m367.66-11.8c-0.72-8.92 2.7-21.88-7.8-26.22-14.58-9.32-34.66 6.7-27.86 22.94 5.54 15.4 26.02 13.2 35.66 3.28z m60.72-2.6c-13.18 33.54-28.92 66.06-41.88 99.68 13.58 0.16 27.18 0.32 40.72-0.8 7.84-20.32 16.26-40.36 23.78-60.76 1.64-0.28 4.94-0.84 6.62-1.12 4.22 21.32 11.84 41.76 18.64 62.36 15.38 0.56 30.8 0.6 46.14-0.16-13.82-35.22-29.68-69.6-43.98-104.62-2.48-4.06-3.06-10.12-7.8-12.2-10.8-1.12-21.72-0.96-32.56-0.28-5.18 4.6-6.76 11.86-9.68 17.9z m184.48 9.54c-3.74 3.18-7.5 6.46-11.12 9.72l0.32 13.18c15.82 14.78 2.2 38.28 12.82 55.7 7.22 17.14 28.68 10.8 43.1 10.76-0.04-9.4 0-18.8 0.04-28.2-4.42-0.72-8.88-1.48-13.26-2.24 0.08-9.04 0-18.08-0.04-27.14 4.3-1.24 8.6-2.44 12.9-3.62-0.28-8.6-0.52-17.22-0.92-25.78-3.7-0.44-7.42-0.84-11.12-1.24-1.28-7.1-2.78-14.1-4.3-21.12-9.2 0.28-18.4 0.36-27.62 0.56-0.28 6.46-0.56 12.96-0.8 19.42z m-441.22 60.56l-16.3 0.6c-0.36-18.48 0.28-36.98-0.68-55.46-12.2 1.68-29.4-5.86-38.12 4.82 0.32 22.04-2.98 44.82 2.66 66.34 4.66 14.54 21.96 14.7 34.46 12.9 19.08-3.66 38.4 0.96 57.66-0.92-0.64-27.86 0.08-55.7-0.44-83.56-12.2 0-24.42 0-36.62-0.4-3.78 18.34-1.16 37.14-2.62 55.68z m59.84-20.2c6.58 13.78 24.62 11.24 34.62 20.52-14.1 2.62-27.02-3.14-39-9.76-0.04 9.8-0.72 19.68 0.48 29.44 7.64 9.64 22.12 9 33.34 9.76 17.06-0.16 39.36 2.44 49.84-14.38 8.08-8.96 2.16-20.64-1.28-30.16-12.32-5.26-25.86-7.3-37.46-14.1 12.08-1.64 24.02 0.64 35.02 5.78 0.88-10.04 0.96-20.12 0.68-30.16-20.8-7.46-44.82-10.04-65.14 0.2-11.94 5.24-18.9 21.5-11.1 32.86z m99.48 49.76c12.32 0.12 24.58 0.12 36.9-0.2-0.4-27.46-0.28-54.9-0.04-82.32-12.16-0.04-24.3-0.04-36.42-0.32-1.38 27.58-0.56 55.22-0.44 82.84z m203.72-0.84c10.76 0.96 21.56 1.04 32.4 0.88 0.04-14.46-0.96-29 0.36-43.42 1.8-12.7 15.78-9.6 24.94-10.16-0.64-10.32 5.14-24.1-4.82-31.2-17.38 4.98-35.18 1.32-52.88 2.48 0.76 27.12 0.76 54.28 0 81.42z" fill="#333333" p-id="12401"></path></svg>