<?xml version="1.0" standalone="no"?><!DOCTYPE svg PUBLIC "-//W3C//DTD SVG 1.1//EN" "http://www.w3.org/Graphics/SVG/1.1/DTD/svg11.dtd"><svg t="1769009317759" class="icon" viewBox="0 0 1024 1024" version="1.1" xmlns="http://www.w3.org/2000/svg" p-id="9343" xmlns:xlink="http://www.w3.org/1999/xlink" width="16" height="16"><path d="M865.792 1024H158.208A158.144 158.144 0 0 1 0 865.792V158.208A158.144 158.144 0 0 1 158.208 0h707.584A158.144 158.144 0 0 1 1024 158.208v707.584A158.144 158.144 0 0 1 865.792 1024z" fill="#FFFFFF" opacity=".15" p-id="9344"></path><path d="M171.776 75.584c58.432 63.36 120.832 123.584 181.76 184.64 5.12 97.792-0.512 195.968 3.072 293.952 1.216 15.232 18.816 19.008 31.36 18.624 92.8 0.192 185.6 0.192 278.4 0 62.4 61.44 122.88 124.8 185.856 185.216-189.632-3.2-379.2-0.384-569.024-1.408-27.392-1.024-55.232 2.368-82.432-1.792a35.2 35.2 0 0 1-27.968-35.84c-0.832-214.208 1.024-428.8-1.024-643.392z" fill="#265BFF" p-id="9345"></path><path d="M171.776 800.192c8 8.576 16 17.216 24.448 25.408 1.792 29.44 0 58.816 0.768 88.384 0.192 5.76 5.76 8.96 11.008 9.408 9.216 0.384 18.176-0.384 27.392 0.384 8.576 7.04 15.808 16 24.192 23.424-24.768-0.384-49.6 0-74.56-0.192-7.04 0.192-13.632-6.016-13.248-13.184 0-44.8 0.448-89.216 0-133.632z m159.808 146.432c7.232-0.256 15.04 0.96 21.632-2.432 0.768-2.368 1.6-4.608 2.176-7.04a27.136 27.136 0 0 0 3.84 1.28c6.144 7.552 16.768 8.768 25.792 9.984 10.752-0.448 21.952-3.648 29.376-11.84 14.784-16.96 16.192-41.6 11.2-62.592a45.44 45.44 0 0 0-24-30.016 43.84 43.84 0 0 0-46.016 9.856c-0.768-17.6 0.192-35.392-0.64-53.056a184.96 184.96 0 0 0-23.552 0.256c0.192 48.192 0.192 96.768 0.192 145.6z m64-77.248c7.232 6.848 8.192 17.408 8.384 26.88-0.192 8.96-2.176 19.52-10.176 24.96-12.608 8.96-33.792 3.392-37.76-12.416-5.248-15.808-2.24-39.04 16.192-44.416 7.744-1.984 17.344-1.408 23.36 4.992z m215.808 77.248c7.04-0.64 15.232 1.792 21.184-2.816 2.048-1.6 1.792-4.416 2.624-6.784l3.968 1.344c6.208 7.68 16.832 8.832 25.856 10.048 10.752-0.448 21.952-3.648 29.376-11.84 14.784-16.96 16.192-41.6 11.2-62.592a45.632 45.632 0 0 0-24-30.208 45.504 45.504 0 0 0-46.4 9.6c-0.192-17.6 0.192-35.2-0.192-52.8a118.592 118.592 0 0 0-23.808 0.448c0.384 48.384 0.192 96.96 0.192 145.6z m63.232-78.208c6.976 5.568 8.768 15.168 9.152 23.552 0.448 9.024-0.768 19.2-6.976 26.24-11.776 12.608-36.608 7.616-40.96-9.6-5.248-15.808-2.24-39.232 16.128-44.608 7.68-1.408 16.64-1.216 22.656 4.416z m64.384-5.248c-3.392 7.808-7.424 15.616-10.24 23.808h22.848l14.592-38.4c4.416-8.192 4.992-18.752 11.584-25.344 1.408 5.952 3.84 11.776 6.208 17.536 5.184 13.824 10.368 27.456 15.808 41.216 0.384 1.216 1.408 3.84 1.792 5.248 7.808 0 15.616-0.256 23.424 0-1.408-2.816-2.816-5.44-4.032-8.256-11.008-26.176-23.04-52.16-33.792-78.592-7.04 0.192-14.016 0.192-20.8 0l-27.392 62.848z m90.368 24.064c7.68-0.256 15.232-0.256 22.848 0 0-29.056-0.256-57.856 0-86.848-7.68 0.192-15.424 0.192-23.04 0 0.448 28.992 0.192 57.792 0.192 86.848z m-376.768 42.176c0 3.008 0.384 6.208 0.768 9.216 2.432 4.992 7.808 7.552 13.44 7.744 24.192 0.256 48.64-0.192 72.96 0.256a487.168 487.168 0 0 1-22.592-22.848c-11.584-2.176-23.616 0.64-35.2-1.92a72.704 72.704 0 0 0-3.584-4.032c-1.984-30.592 0.384-61.632-1.216-92.224-7.808-8.576-16.64-16.384-24.384-24.96 0 42.944-0.384 85.952-0.192 128.768z m-175.808 16.96H300.8c-0.192-35.2-0.192-70.4 0-105.6h-24v105.6z m280 0h24c-0.192-35.2-0.192-70.4 0-105.6h-23.808c-0.192 35.2-0.192 70.4-0.192 105.6z" fill="#000000" p-id="9346"></path></svg>